<?xml version="1.0" standalone="no"?>
<!DOCTYPE svg PUBLIC "-//W3C//DTD SVG 1.1//EN" "http://www.w3.org/Graphics/SVG/1.1/DTD/svg11.dtd" >
<svg>
<metadata>
Created by FontForge 20090622 at Thu Dec 22 13:03:21 2016
 By deploy user
Copyright (c) Typographer Mediengestaltung, 2000. All rights reserved.
</metadata>
<defs>
<font id="BlackwoodCastle" horiz-adv-x="409" >
  <font-face 
    font-family="Blackwood Castle"
    font-weight="400"
    font-stretch="normal"
    units-per-em="1000"
    panose-1="2 0 5 3 2 0 0 2 0 4"
    ascent="800"
    descent="-200"
    x-height="534"
    cap-height="662"
    bbox="-123 -267 1415 871"
    underline-thickness="0"
    underline-position="0"
    unicode-range="U+0008-U+E003"
  />
<missing-glyph horiz-adv-x="500" 
d="M63 0h375v767h-375v-767zM125 63v642h250v-642h-250z" />
    <glyph glyph-name=".notdef" horiz-adv-x="500" 
d="M63 0h375v767h-375v-767zM125 63v642h250v-642h-250z" />
    <glyph glyph-name="ring" horiz-adv-x="327" 
d="M260 659q-8 7 -21 45q-11 29 -32 36l-3 5q-50 6 -56 6h-5l-21 -9q-20 -12 -33 -45q-14 -33 -22 -38q14 -15 17 -21q2 -21 27 -40q13 -10 24.5 -16.5t22.5 -8.5l22.5 2t22.5 3l4 4l4 1q5 6 9.5 10.5l7.5 7.5l9 6q7 34 15 45zM211 665q-11 -36 -18 -46q-5 -2 -7 -7
q-8 -1 -12 -1h-3h-2t-7 1l-5 4l-4 7h-9l-15 9q-2 14 -6 20l-2 19q2 8 2 10l16 23l10 3l6 6l31 -3l14 -10l7 -25l3 -4z" />
    <glyph glyph-name="dotlessi" unicode="&#xd;" horiz-adv-x="245" 
d="M225 114l-18 13t-12 7q-8 6 -8 32q-1 30 -3 35l2 15l-9 6l8 5q1 8 1 11v4v15l-4 9l-4 2l-5 10q-1 3 4 19l3 4q1 10 1.5 16.5t0.5 11.5q0 75 8 97l6 2t5 2q5 7 8 13.5t5 12.5v3l-7 9q-23 9 -30 9q-3 1 -21 19q-8 8 -15 14t-14 8q-7 9 -16 14h-5l-3 4l-19 2
q-5 -5 -8.5 -9.5t-6.5 -6.5q-1 -4 2 -16t3 -16q0 -3 -1 -4q-6 -3 -10 -10l-2 -6q-14 -18 -21 -19q-3 -4 -6 -7l-7 -7l-2 -14l2 -9l9 -6.5t13 -2.5q10 -10 10 -40v-2q0 -1 -1 -3q2 -6 2.5 -10.5t1.5 -6.5q-4 -9 -1 -26l-4 -7l-1 -6q6 -17 6 -27q0 -38 -5 -48q1 -3 1.5 -9.5
t-0.5 -17.5q0 -20 -3 -26l3 -12l-3 -11q2 -9 -2 -18q-5 -15 -5 -18q-8 -8 -13.5 -13t-9.5 -9l-2 -12l2 -7l4 -4l2 -6q2 -1 9.5 -3.5t20.5 -6.5q22 -8 35 -22l5 -1q25 -33 60 -33l11 9l3 7v8l-6 15q0 6 4.5 13.5t11.5 14.5t14.5 13t13.5 9q12 18 12 25z" />
    <glyph glyph-name="fraction" horiz-adv-x="280" 
d="M346 609v10t-1 10l-11 9q-6 -1 -18 2l-4 -3l-4 -1q-24 -41 -33 -67l-17 -24.5l-12 -17.5q0 -4 -8 -15l1 -9l-8 -16l-11 -9h-4q-55 -85 -55 -87q-13 -10 -29 -40q-29 -47 -47 -71q-2 -5 -4 -9l-3 -6l-14 -19.5t-11 -13.5q-119 -181 -119 -202v-3t1 -9q1 -2 1.5 -4t1.5 -4
l9 -10l9 -2l3 -2q6 1 12.5 3.5t13.5 14.5l2 11q13 19 14 29q14 26 25 44t18 28q65 92 74 119l16 12q3 8 5 14t4 11q10 7 15 15l44.5 65.5l40.5 57.5l-3 4q2 4 6 9.5t9 13.5l10 5q2 4 7.5 13.5l15.5 26.5q19 33 26 41l1 4q31 38 31 72z" />
    <glyph glyph-name="fi" horiz-adv-x="521" 
d="M501 109q-5 8 -14 12l-4.5 1.5t-12.5 4.5q-5 22 -7 39t-3 29q3 10 2 16l-9 6l9 4v31l-4 9l-4 2l-5 10q-2 8 7 23l3 28q0 83 8 97q3 1 11 3l12 26v4l-6 9q-11 5 -18 7t-11 3q-5 1 -23 19q-17 17 -29 21l-7 9l-8 5h-6l-3 4q-4 1 -9 1t-10 1q-2 -5 -11 -10l-4 -7v-4l2 -4
q-11 -8 -63 -9h-34q-16 0 -30 0.5t-24.5 1.5t-14.5 4l-24 -15q9 13 12 24l10 11q3 12 3 21q0 37 -14 56l-10 6l-2 28q41 3 42 4l12 -4q6 -3 9 -10l8 -5l7 1q19 -38 35 -54q8 -5 17 -7l6 1l8 6l3 5q1 10 1 15v7q9 12 28 22q20 10 27 19l1 7l-3 14q-14 5 -25 3q-20 6 -71 65
q-7 2 -10 2.5l-3 0.5h-11l-11 -7q-7 -30 -43 -44q-7 -2 -23.5 -5.5t-42.5 -8.5q-53 -9 -50 -9h-23l-10 -9q-1 -2 -2 -4.5t-2 -4.5l4 -14l6 -8l11 -5q11 -11 14 -17q0 -7 1.5 -21.5t1.5 -21.5q0 -32 6 -39l-2 -7l-11 2l-6 -2t-5 -2q-44 0 -39 1q-2 -15 -3.5 -27.5t-1.5 -23.5
v-4l4 -9q3 0 8.5 -2t8.5 -2q4 0 11.5 2t10.5 2q4 0 12 -1t11 -1l-4 -6q0 -41 -2 -49l2 -7q-2 -8 -2.5 -12.5l-0.5 -4.5v-5l3 -5q1 -10 -6 -37l5 -11q0 -12 2 -34.5t2 -34.5q0 -13 -3 -19l-6 -5l-1 -4l1 -4l3 -4v-8q0 -55 -6 -68l1 -6l-9 -14t-8 -10l-1 -14q5 -8 11.5 -10.5
t9.5 -5.5h10q8 -3 14.5 -6l13.5 -6l3 -4h4l5 -6q11 -6 22 -9q13 -11 21 -15q1 0 22 -9t36 -9h2t7 1q15 7 19 13v12q-1 3 -10 10l-2 6q2 5 7.5 12.5t15.5 16.5q20 18 24 31l-5 12l-5 5q-17 6 -21 5l-3 2q-4 0 -39 7l-7 11l-15 -5l-20 4l-2 5q10 17 15 26.5t7 11.5q4 14 6 23
q1 11 1.5 19t0.5 13l-3 11q5 10 5.5 22.5t0.5 21.5q0 3 -1 4l-5 4q-1 3 -2 15.5t-2 35.5q-1 42 0 46l6 33q17 1 25 1h8q54 0 77 -12l4 -8l8 -7q7 -3 14 -2q10 -10 10 -40v-2q0 -1 -1 -3q2 -6 2.5 -10.5t1.5 -6.5q-4 -10 -1 -27q-5 -8 -5 -12q7 -11 7 -48q0 -17 -6 -27
q1 -3 1.5 -9.5t-0.5 -17.5q0 -20 -3 -26l3 -12l-3 -11q2 -7 -7 -36q-7 -8 -12.5 -13t-9.5 -9l-1.5 -9l-0.5 -3v-2q0 -1 1 -5q6 -4 7 -10l5 -3q33 -5 59 -29l5 -1l14.5 -14.5t11.5 -10.5l20 -3.5t14 -3.5l11 8l3 7v8l-6 15q1 4 3 10q14 24 41 40q11 14 12 25z" />
    <glyph glyph-name="fl" horiz-adv-x="518" 
d="M517 688q0 -1 -0.5 3.5t-1.5 14.5l-8 8q-10 7 -28 4l-4 2q-3 0 -30 -11l-18.5 -29t-9.5 -20l4 -6l-2 -5l-6 -2q-25 27 -49 40q-13 -2 -29 10l-13 9l-13 9l-76 10t-18 3h-11l-11 -7q-10 -42 -83 -61q-44 -6 -66 -6l-10 -9q-1 -2 -2 -4.5t-2 -4.5l4 -14l6 -8l11 -5
q11 -11 14 -17q0 -7 1.5 -21t1.5 -21q0 -33 6 -40l-2 -7l-11 2l-6 -2t-5 -2q-44 0 -39 1q-2 -15 -3.5 -27.5t-1.5 -23.5v-4l4 -9q3 0 8.5 -2t8.5 -2q4 0 11.5 2t10.5 2q4 0 12 -1t11 -1l-4 -6q0 -41 -2 -49l2 -7q-2 -8 -2.5 -12.5l-0.5 -4.5v-5l3 -5q1 -10 -6 -37l5 -11
q0 -12 2 -34.5t2 -34.5q0 -13 -3 -19l-6 -5l-1 -4l1 -4l3 -4v-8q0 -55 -6 -68l1 -6l-9 -14t-8 -10l-1 -14q5 -8 11.5 -10.5t9.5 -5.5h10q8 -3 14.5 -6l13.5 -6l3 -4l4 1l5 -7l22 -9q7 -10 36 -22q30 -11 43 -11h2t7 1q15 7 19 13v12q-1 3 -10 10l-2 6q2 5 7.5 12.5
t15.5 16.5q20 18 24 31l-5 12l-5 5q-17 6 -21 5l-3 2q-4 0 -39 7l-7 11l-15 -5l-20 4l-2 5q10 17 15 26.5t7 11.5q4 14 6 23q1 11 1.5 19t0.5 13l-3 11q5 10 5.5 22.5t0.5 21.5q0 3 -1 4l-5 4q-8 25 -4 97l2 34l4 2l30 2l12 -8q-1 -35 1 -42l6 -3h22q10 7 16 23q1 5 1 8
q0 4 1 6q-3 28 -3 33l-3 7l1 10l-4 1h5q9 16 13 27q1 7 -2 16l-8 9q-19 1 -29 -7l-3 -4q-13 -8 -32 -8q-27 0 -32 4l-24 -14q9 12 12 24l10 10q3 10 3 22q0 34 -14 56l-10 5l-2 29l9 3q13 -3 17 -7l4 -7l43.5 -2t43.5 -3q7 -5 24 -30q16 -25 27 -28l6 -1l1.5 -50.5
t0.5 -17.5l1 -4l-1 -4q0 -20 12 -30l-6 -6q-5 -8 -5 -36v-28t1 -15l2 -4l-2 -5l3 -9q0 -6 -1 -15.5t-3 -22.5l2 -6q0 -6 -3 -18t-3 -19q7 -13 5 -27l3 -2l3 -5q-5 -13 -4 -31l-5 -3q3 -15 0 -35l-3 -5l2 -11l3 -5l-3 -6v-21l-7 -14q-19 -7 -24 -22q1 -11 3 -15q2 -2 32 -18
q28 -14 38 -18l8 -10q13 -8 22 -14.5l15 -10.5h5l4 -3l9 -2l7 1l8 7l5 13l-3 10q-6 6 -10 18q3 14 20 25l11 2l3 7q21 13 28 28q1 8 -1 14l-10 9q-22 4 -28 9q-7 31 -10 35l1 8l-5 18q2 4 2.5 11.5t0.5 14.5v15t2 10q-5 25 -4 33l-7 1q5 10 5 18q0 5 -1 10v11l2 5l3 3
q1 46 -6 62q3 8 2 11l-2 5q-2 12 6 24q-1 10 2 18q-1 5 -1 15l-5 4l1 8l-4 8q2 8 7 70q4 60 3 76q7 13 9 22l10 10q13 5 22 9.5t15 6.5z" />
    <glyph glyph-name="Lslash" horiz-adv-x="546" 
d="M369 428l-11 15l-8 2q-5 -1 -9 -1h-7q-19 -6 -39 -28q-24 -26 -45 -36q2 6 2 7l-4 16l2 6l-1 9l4 4q-4 7 -4 35q0 47 4 52q0 29 6 47l11.5 11.5t8.5 7.5q14 2 26.5 3t23.5 1l19 9h9l7 -5q18 1 27 3l3 3l8 -1l5 5q10 2 22 15t14 24q3 13 -8 25l-12 9q-1 0 -7.5 0.5
t-17.5 1.5q-23 -13 -33 -23q-26 -15 -80 -15h-35t-6 1l-4 -2h-7l-4 -2l-4 -2l4 -3q-5 -1 -8 -1h-3h-5l-9 6q-3 0 -12 1.5t-13 1.5h-2q-1 0 -3 -1q-28 5 -35 2q-1 1 -3 1q-25 0 -26 -1q-37 5 -55 6q-5 -2 -9.5 -4t-7.5 -4l-7 -10l-2 -8l2 -13q8 -7 14 -11.5t9 -6.5q4 1 21 -4
q8 -5 16 -17q5 -22 5 -36v-21q0 -5 1 -1q0 -2 -1.5 -7t-1.5 -8q0 -5 1.5 -16.5t1.5 -16.5v-19q-1 -7 -1 -12v-8q0 -1 -2.5 -7.5t-2.5 -8.5q0 -4 2.5 -10t2.5 -9q0 -8 -1 -10q3 -14 3 -25q0 -2 -1 -5v-5l3 -1q-2 -1 -4 -1q-1 0 -3 -1l-8 2q-34 -8 -56 -21q-7 -9 -6 -22
q7 -9 10 -10q4 -11 3 -15q-29 -42 -27 -65q3 -4 5 -10l8 -7l17 2q30 20 37 29l-1 4l15 12h2q1 -38 -6 -51q6 -16 1 -32l3 -4v-10l3 -8l-6 -8l-1 -8l-4 -6l1 -4q-2 -14 -11 -25q-4 -3 -7 -5.5t-5 -4.5q-7 -5 -14 -9.5l-15 -9.5q-18 -15 -22 -27l-1.5 -13.5l-0.5 -4.5
q0 -2 2 -12l12 -16q10 -6 18 -6h8q7 4 12 4l25 20t19 17q14 2 20 3.5t2 1.5h53q10 -2 14 -3q14 -2 25 -4t19 -4l8 3l10 -6l13 2l7 -5q3 0 26 -4q6 2 10 1l5 -3l12 2q33 -6 55 -6l10 10v4l7 -11l9 2q11 -3 43 8l7 -1l3 2q4 0 10.5 2t9.5 2l11 8l5 1l2 10.5t2 13.5l-10 6
q-9 12 -8 22q-12 28 -12 39q0 1 1 5t1 6l-10 22q1 6 -2 13l1.5 19.5l0.5 6.5l-0.5 2t-1.5 7l2 12l-5 5l4 5q1 17 1 26t1 11l5 6l1 16q3 5 6 20l7 9l7 2l5 -1l10 2q5 5 6 8l5 -1q6 2 11.5 12t5.5 16q0 10 -7 25q-8 9 -25 14l-5 -2q-8 3 -12 2l-2 -5q-6 0 -9 1q-11 -5 -17 -6
v-4l-9 -3l-3 -6q-6 -3 -10 -10l-6 -3l-1 -8l-10 -1q-3 -7 -3 -12q0 -4 -7 -19q-5 -12 -5 -20l-4 -7l-1 -7q-13 -18 -11 -32l-4 -4q-1 -3 -5 -11v-5l3 -5l-4 -10l3 -9v-9l-5 -5l-1 -12l-5 -3q-1 -5 -1 -7v-2v-4l4 -6q-2 -6 -4.5 -12.5t-5.5 -13.5q0 -48 -34 -57q1 0 -27 6v5
q-9 2 -22 16q-15 30 -15 50q0 24 -3 32l-3 1l-2 6q2 2 3.5 5.5t3.5 7.5l1 18l-8 3v3l3 4q-1 4 -3 14q1 4 1.5 7.5t-0.5 8.5l-3 3q2 14 -3 29q1 1 1 4q58 16 79 33q10 15 8 21q-3 10 -8 15l2 16l22 38.5z" />
    <glyph glyph-name="lslash" horiz-adv-x="366" 
d="M363 390l-11 14l-8 3q-5 -1 -9 -1t-7 -1q-19 -5 -41 -30q-11 -13 -23 -21.5t-23 -13.5q2 38 -6 52q3 8 2 11l-2 5q-2 12 6 24q-1 10 2 18q-1 5 -1 15l-5 4l1 8l-4 8q2 8 7 70q4 60 3 76q16 29 19 32q13 5 22 9.5t15 6.5l4 9q0 -1 -0.5 3.5t-1.5 14.5l-8 8q-10 7 -28 4
l-4 2q-3 0 -30 -11l-18.5 -29t-9.5 -20l4 -6l-2 -5l-6 -2q-30 29 -49 40q-2 0 -7 1t-11.5 2.5t-12 2.5t-8.5 1h-4t-12 -1l-8 -6l-5 -9l2 -10l6 -9q5 -2 20 -20q2 -11 3 -19.5t2 -14.5q1 -35 2 -61.5t3 -44.5l-2 -5l1 -4l-1 -4q0 -20 12 -30l-6 -6q-6 -11 -6 -53l0.5 -6.5
l1.5 -19.5l2 -4l-2 -5l3 -9q0 -11 -1 -23.5t-3 -26.5l-5 -1q-14 -6 -29 -9l-8 1q-33 -8 -55 -21q-7 -7 -7 -22q8 -8 11 -10q4 -9 3 -15q-28 -42 -27 -64q2 -4 3 -6.5t2 -4.5l8 -7l17 3q30 19 37 29l-2 3l16 13l7 1l11 5l4 5l14 2l-2 -1q3 -15 0 -35l-3 -5l2 -11l3 -5l-3 -6
v-21l-7 -14q-20 -11 -24 -22q1 -11 3 -15q2 -2 32 -18q28 -14 38 -18l8 -10q13 -8 22 -14.5l15 -10.5h5l4 -3l9 -2l7 1l8 7l5 13l-2 10l-5 5l-6 13q3 14 20 25l11 2l3 7q21 13 28 28q1 8 -1 14l-10 9q-22 4 -28 9q-5 20 -8.5 35.5t-5.5 25.5q2 5 3 9l2 8q-1 6 -1 12v11
q61 18 81 33q10 16 9 21q-3 11 -8 16l1 16l22 38.5t16 27.5z" />
    <glyph glyph-name="Zcaron" horiz-adv-x="610" 
d="M539 235q31 12 31 47q0 17 -8 25q-13 7 -31 7q-13 -1 -31 -21t-18 -32l6 -4q-5 -8 -9.5 -13t-7.5 -9q-2 -26 -40 -85v-5l-6 -5v-7l-5 -8q-22 -19 -30 -32q-14 -10 -25 -17t-19 -11l-2 -6l-8 -3l-4 7h-5l-5 -3l-4 -5l-9 -3q-5 0 -19.5 1.5t-21.5 0.5l-12 12l-3 8q1 7 1 10
v3v2q0 3 -1 8q7 16 11 26.5t6 16.5q8 10 13 17t8 12l19 17t14 11q1 5 1.5 7l0.5 2v4l-2 5l-9 1v6q27 30 41 44q24 34 31.5 46t10.5 19l11 7l4 7v3l7 15l8 5l2 13l-2 5q2 5 4 8.5t4 7.5l12 10q1 11 7 20l4 2q4 15 14 23q0 9 2 15q18 18 34 42l1 6q23 29 38 85q7 6 10 21
l-5 17l-10 5l-6 -2t-7 -3l-5 -5q-15 -5 -20 -6q-44 -9 -90 -6l-5 -7l-36 2l-5 5l-6 -1q-10 2 -78 2q-4 0 -14.5 -1.5t-14.5 -1.5q-23 1 -38 3l-25 -6l-3 5l-6 4l-20 3t-9 2l-5 4q-2 13 -7 17t-15 7h-6q-40 -18 -40 -84q0 -1 0.5 -8l1.5 -20q2 -24 1 -26l2 -10l-1 -5
q4 -6 6 -15q-3 -7 1 -18q-5 -17 1 -32q-1 -5 -1 -12l2 -5q-6 -22 -5 -32l-3 -5l-5 -4l-6 2l-19 -3l-11 -10q-6 -12 -6 -18q0 -9 4 -21q7 -7 12.5 -11.5t9.5 -6.5q10 -1 14 -1h5q26 0 51 37q25 34 24 60q2 4 4.5 7t4.5 7v5q16 43 18 48l7 9l1 11h6l6 8l1 5l-3 10l10 13l6 -2
l7 2l-4 -4l11 9l4 1q6 5 13 20l8 4l6 -3q8 3 14 6l10 5q6 1 13.5 1.5t15.5 0.5q15 0 28 -16q1 -5 1.5 -12t0.5 -17q0 -13 -20 -45q-11 -17 -16.5 -27.5t-6.5 -14.5q-16 -19 -26 -34l-1 -6q-4 -3 -13 -12v-6l-15 -18l-2 -8q-22 -25 -30 -41l1 -6l-9 -2q-21 -22 -32 -43
q-4 -1 -11 -13l-8 -4q-2 -7 -9.5 -17.5t-18.5 -24.5q-23 -29 -27 -45l-8 -10l1 -7l-3 -6l-6 -1l-8 -7q-8 -23 -12 -27l2 -10q-3 -16 -14 -24q-5 -23 -8 -38.5t-3 -23.5q0 -24 13 -34q10 -5 14 -8q10 -1 18 2q14 12 25 30q27 6 47 6q5 0 14.5 -1t25.5 -3q32 -3 35 -4h3l4 -2
h12l3 3l6 2l11 -3l8 -7q5 -1 8 -1.5l3 -0.5q2 0 7 1t7 1q4 0 12 -2t11 -2h6v7l15 1l9 -11q19 1 71 3q47 0 70 4q20 4 32 6l10 6l3 6q1 7 -3 15l-5 2l-4 5l-3 10l2 4q-2 15 -3 19l1 4l-4 7q4 17 8 25v4l-7 9l-4 1l-1.5 9l-0.5 3q0 10 3 15q0 3 -0.5 9t-1.5 14q-3 15 0 24
l-2 8q1 7 2 11.5t3 8.5l5 4q0 5 5 13zM476 814l-5 8l-2 10l-7 9l-15 3q-17 -5 -23 -7q-5 -7 -43 -26q-38 -20 -45 -20q-15 0 -46 15q-30 15 -40 28h-5l-2 4l-8 6q-5 1 -8 1h-2l-3.5 -0.5l-10.5 -1.5q-8 -8 -8 -22v-2t1 -7q6 -14 18 -24q3 0 19 -16q19 -16 21 -19
q4 -2 6.5 -3.5t4.5 -3.5q7 -4 11.5 -7t8.5 -5q1 -1 5 -4.5t12 -11.5q10 -10 21 -10q5 0 30 11l5 7q5 2 64 41l7 1l3 4q12 2 16 5v7q11 8 17 17z" />
    <glyph glyph-name="zcaron" horiz-adv-x="363" 
d="M346 157q1 9 0.5 15t-1.5 9l-6 8q-6 0 -10 4l-18 -8l-16 -17l-2 -5q-11 -9 -20 -14.5t-14 -7.5q-2 0 -8 -1.5t-9 -1.5q-7 0 -17.5 1t-24.5 3t-23.5 3.5t-16.5 1.5q-28 0 -35 -9q2 5 3 9t2 9q17 20 17 30l27.5 38.5l25.5 35.5h8q21 0 29 -3q10 1 19 1t18 1q23 2 35 11
q8 9 9 16v13l-8 14l-8 5l-14 2q-23 -6 -41 -9q-2 5 -3 8l-1 3v4q17 17 33 40t30 51q5 13 9.5 23t6.5 17l4 3q5 15 6 20l-2 4q1 8 2 14.5t2 10.5q-2 24 -3 27l-11 10l-14 -1q-8 -6 -13.5 -11t-9.5 -10q-12 -5 -28 -5q-5 0 -18 2.5t-35 7.5q-14 2 -23.5 4t-16.5 3l-7 -5
q-6 7 -9 9l-5 -1q-7 7 -33 7h-3q-2 0 -7 -1l-11 -7q-2 -3 -3.5 -6t-3.5 -5q-1 -5 5 -32q-2 -7 -24 -29q-24 -24 -28 -33q-2 -10 -2.5 -14.5l-0.5 -4.5q0 -9 5 -17l7 -4q3 -1 4 -1h2q20 0 36 19q8 3 16 9q7 2 10 2.5l3 0.5q14 0 32.5 -3t43.5 -8q10 4 18 1l5 2q4 -2 18 3v-5
l-19.5 -29.5t-13.5 -20.5l-7 -5l-2 -7l-4 -4l-3 -8l-6 -3q-2 -6 -5 -9l-2 -7l-6 -7l-24.5 3.5t-17.5 3.5q-10 1 -17 1h-11q-6 -2 -31 -4l-17 -11q-8 -17 -9 -26l2 -8q8 -12 21 -17l8 -1q33 9 43 9l12 -3l-1 -6q-7 -5 -14 -13.5t-14 -20.5q0 -8 -24 -44q-22 -33 -24 -40
l-4 -3l-2 -7l2 -5q-7 -4 -16 -45q-8 -37 -8 -49v-2t1 -6q7 -10 11 -14.5t11 -4.5q10 3 18 3l6.5 10t4.5 6q5 17 10 23q4 2 6.5 3.5t4.5 3.5l26 -4l9 -5h3q14 -8 25 -13.5t18 -10.5q22 -8 31 -11l4 1l6 -3l6 2q25 -5 39 -6h14q8 3 19 15l3 11l-2 10q-5 9 -10 11l1 8
q5 10 9.5 17t6.5 12l5 2q28 33 44 72zM335 694l-5 8l-2 10l-7 9l-15 3q-17 -5 -23 -7q-5 -7 -43 -26q-38 -20 -45 -20q-15 0 -46 15q-30 15 -40 28h-5l-2 4l-8 6q-5 1 -8 1h-2l-3.5 -0.5l-10.5 -1.5q-8 -8 -8 -22v-2t1 -7q6 -14 18 -24q3 0 19 -16q19 -16 21 -19
q4 -2 6.5 -3.5t4.5 -3.5q7 -4 11.5 -7t8.5 -5q1 -1 5 -4.5t12 -11.5q10 -10 21 -10q5 0 30 11l5 7q5 2 64 41l7 1l3 4q12 2 16 5v7q11 8 17 17z" />
    <glyph glyph-name="space" unicode=" " horiz-adv-x="367" 
 />
    <glyph glyph-name="exclam" unicode="!" horiz-adv-x="288" 
d="M261 554q-9 5 -33 10q-19 14 -20 14q-5 10 -3 15l-7 3l-7 -2q-10 13 -10 21v4q0 5 1 15q-5 9 -9 12q0 4 -5 12l-3 2l-3 5q-8 6 -23 6q-4 -2 -7.5 -4.5l-6.5 -4.5q-5 -5 -14 -25q-10 -21 -15 -25q-2 -6 -1 -8q-2 -2 -5 -7l-8 -13q-9 -12 -17 -17q-6 -2 -11 -4l-14 1
q-5 -2 -13 -10v-12q23 -20 28 -47l4.5 -23.5l1.5 -7.5v-6l6 -14v-18l11 -18q2 -8 -3 -23l10 -9l1 -7l-8 -11v-5l6 -7l8 -3l4 -8v-8l-3 -8q-2 -11 14 -60q8 -25 13.5 -40.5t9.5 -22.5q2 -2 4.5 -4l6.5 -5h10l9 4q13 19 18 61l4 2q3 7 2 13l2 5l4 4q-2 9 9 51q12 44 19 52
l-4 5l-6 3q1 30 5 41l6 3q8 40 14.5 64t10.5 33l13 11zM222 81l-1 15q-13 16 -40 27l-1 4q-16 15 -18 26q-10 6 -15 14l-14 2l-3 -3l-4 -1l-10 -7l-4 -7q1 -3 -1 -9q3 -5 3 -12v-4l-24.5 -19l-17.5 -13q1 -5 -3 -18l4 -9q8 -8 12 -11h6l6 -7l5 -1q1 -2 2 -5t3 -7
q5 -6 9.5 -10.5t6.5 -7.5q16 -11 23 -14l14 -3l7 2l8 6q3 4 3 8v4t-1 12l10 16q27 20 35 32z" />
    <glyph glyph-name="quotedbl" unicode="&#x22;" horiz-adv-x="341" 
d="M308 584l-21 6q-11 9 -12 9q-3 6 -2 9l-4 2l-4 -2q-2 3 -6 13l1 12l-5 8.5t-4 5.5l-2 1l-1 3q-8 4 -14 4q-6 -4 -9 -5q-14 -18 -18 -33v-3l-2 -3l-7 -10q-5 -5 -16 -12l-8 1q-4 -2 -5 -3q-5 -2 -14 3q-11 9 -12 9q-3 6 -2 9l-4 2l-4 -2q-6 7 -6 25q-7 10 -8 14l-2 1l-2 3
q-8 4 -14 4q-12 -7 -16.5 -19.5t-9.5 -16.5l-11 -22q-10 -7 -14 -8l-9 1q-2 -1 -7 -6v-7q24 -26 20 -51l4 -8v-11q7 -11 7 -18q-1 -2 -1 -4q0 -1 -1 -3l5 -6l1 -4l-4 -6v-3l3 -4l5 -3l2 -4v-5l-2 -5q0 -4 7 -31l6.5 -23t3.5 -11q3 -8 13 -15q4 -1 11 2q9 15 11 37l2 1
q1 7 3 12l2 2q-2 4 6 30l6.5 21t4.5 11q-4 4 -6 5q2 21 3 25l4 2q7 41 15 58l5 5q2 -3 7 -8q10 -29 13 -47v-11l7 -12q0 -1 -0.5 -4.5t-1.5 -8.5l6 -6l1 -4l-5 -6v-3l3 -4q5 -3 6 -5t2 -7l-2 -5q-4 -15 22 -74q2 -1 7 -6q5 -1 12 2q9 14 10 37l2 1l2 5q0 4 1 7l3 2
q-1 6 5 29q3 11 6 19.5t5 13.5l-2 3l-4 2q2 21 3 25l4 2q13 56 15 58l8 7z" />
    <glyph glyph-name="numbersign" unicode="#" horiz-adv-x="490" 
d="M339 341h118v40h-114l28 200h-40l-28 -200h-88l28 200h-40l-30 -200h-124v-40h119l-11 -85h-128v-40h123l-30 -216h40l31 216h88l-31 -216h41l31 216h117v40h-112zM209 341h89l-12 -85h-88z" />
    <glyph glyph-name="dollar" unicode="$" horiz-adv-x="537" 
d="M504 175q-13 19 -12 37q-2 5 -8 23q-6 21 -6 24l-4 4l-2 8q-7 5 -8 15l-5 4q-14 17 -27 31t-25 25l-2 8l-3 4l-17 9l-9 1q-17 11 -30.5 18.5t-23.5 12.5l-15 1l-6 -3q-4 5 -2 19l1.5 16.5t0.5 4.5q0 38 3 46q-2 6 -3 10.5t-2 6.5q6 33 2 106q20 -2 46 -32q16 -36 22 -62
l-2 -9q2 -22 5.5 -43.5t22.5 -35.5l13 -4q20 3 26 6l7 8l5 17l-4 19q-10 10 -14.5 15t-5.5 6q-1 5 -1 7v2q0 4 1 8v8q8 15 10 32l5 10q0 6 -1 10q2 4 5.5 12t7.5 19q8 24 8 31v9q-5 11 -16 17l-10 1q-13 -1 -25 -18q-7 -2 -10.5 -2.5l-3.5 -0.5q-6 0 -13 3q-20 7 -35 11
t-26 6h-17q-5 17 -2 27q-2 5 -1 27q1 19 -8 27l-10 4q-12 0 -23 -4l-11 -13q-1 -6 -1 -9v-3l0.5 -2l1.5 -6q-3 -9 -3 -24q0 -7 4 -15l-1 -8q-42 -11 -66 -15q-21 -9 -29 -14.5t-12 -7.5q-28 -21 -43 -46q-26 -48 -36 -72q-10 -9 -12 -14l1 -5q10 -8 21 -42t21 -41l-1 -10
l2 -4q13 -14 18 -21q1 -8 8 -22q24 -14 41.5 -25.5t28.5 -21.5q10 -5 18 -8.5t13 -5.5v-7l4 -4l16 9q4 -10 13 -16v-17q1 -6 1 -11v-6q0 -17 -0.5 -41.5t-1.5 -56.5q2 -5 2.5 -8t1.5 -5l-5 -5q0 -4 -1 -17.5t-1 -20.5v-38l-5 -1q-8 2 -12 1l-6 3l-4 -1l-5 4q-6 0 -11 4h-5
q-10 3 -38 37l-2 10l-8 8q2 13 4 16q-5 18 -9 25l-6 3q-1 4 -1 6v2v1q0 2 1 5l-6 12q1 4 2 7t2 5v4l-6 9q3 6 -5 32q-5 19 -11 30l-14 12q-7 4 -21 4q-17 0 -26.5 -12t-9.5 -24q0 -8 1 -13l5 -9l21 -15l4 -6l3 -15q0 -6 -1.5 -14.5t-4 -17t-4 -15t-1.5 -9.5v-5l5 -11l-8 -5
q-3 -15 -10 -27q1 -5 -5 -31l1 -6q-3 -6 0 -26q4 -20 9 -24l12 -7l8 -1l12 4q6 5 11 15l13 7q16 -3 28 -1q60 -19 101 -24q1 -4 1 -5v-2l-1 -50l5 -11.5t4 -8.5l13 -6q7 2 12 3t9 2q4 4 9 12q4 11 4 24q0 6 -1 21.5t-1 23.5l34.5 7l24.5 5q4 4 24 10q15 4 25 19l18 10
q5 9 14 16l1 13q11 0 23 14q7 19 6 23q4 7 15 36q8 23 18 35zM251 482q0 -9 -3 -27.5t-3 -27.5v-2t1 -6l-6 1q-12 9 -31 28l-4 14q-10 13 -12 22l-2.5 23.5t-1.5 21.5q0 11 5.5 22.5t13.5 22t18.5 19t21.5 13.5l2 -8l-2 -5v-11q0 -9 1 -29q1 -29 -2 -39l4 -10l-2 -10l1.5 -9
zM373 151q-3 -20 -6 -30l2 -11q-4 -4 -6 -14l1 -5q-4 -8 -7.5 -14t-5.5 -10l-12 -10l-2 -6l-4 -1l-5 -6l-11 1l-12 -6q-2 7 -2.5 10l-0.5 3q0 23 3 43q-3 6 -1 47q1 28 1.5 40.5t0.5 9.5v25q-1 8 -1 14v11q17 -5 28 -17l4 -7l2 -12l7 -3q10 -16 20 -19q3 -13 2 -20z" />
    <glyph glyph-name="percent" unicode="%" horiz-adv-x="584" 
d="M313 506q-2 10 -11 20q-14 61 -35 85q-25 30 -84 41h-4q-34 0 -42 -7l-7 1q-49 -29 -68 -60q-14 -21 -35 -84l5 -7q9 -38 14.5 -55.5t12.5 -34.5q5 -8 30 -32v-6q28 -12 33 -15h9q16 -10 45 -10q37 0 57 18l21 19t20 19q8 23 14 27q10 26 13 43q-1 19 12 38zM497 617
l-0.5 3l-1.5 9l-11 9q-6 -1 -17 2l-4 -3l-4 -1q-3 -2 -17 -31q-7 -14 -10.5 -23t-5.5 -13q-10 -13 -17 -23.5l-12 -18.5l-1 -4l-8 -11l2 -9l-8 -16l-12 -9h-3q-21 -26 -25 -42l-54.5 -79l-51.5 -77q-23 -32 -33 -48q-119 -185 -119 -196v-9t1 -9q1 -2 1.5 -4t1.5 -4l9 -10
q9 -2 12 -4q6 1 12.5 3.5t13.5 14.5l1 11q12 17 16 29q14 25 35.5 59.5l51.5 79.5l11.5 16.5t8.5 11.5q4 8 6 14t4 10l16 12q5 18 9 25q9 10 15 18t9 13l16 21l12 15q34 53 44 63l3 8l-3 4l7 9.5t9 13.5l9 5q1 2 7 11.5t17 28.5l17.5 29.5t7.5 12.5t6 11l13 23q14 23 14 49z
M558 149q-3 10 -10 15q-3 13 -5 22.5t-3 16.5l-4 2l-1 6l-3 5q0 3 -4 16l-13 16l-9 4q-3 13 -2 18h-7q-37 31 -84 31q-2 0 -7.5 -1.5t-12.5 -3t-12.5 -2.5t-7.5 -1q-31 -12 -44 -27.5t-16 -16.5q-4 -7 -9 -19t-10 -29t-11 -28.5t-11 -19.5l1 -6q4 -4 6 -8q3 -12 6 -18
q22 -78 43 -96l1 -4q39 -34 67 -30l6 -5h7l3 4q4 -1 10 -3h3l5 2l3 -1q10 6 29 6l36 21l3 6l6 4q12 20 19.5 31.5t9.5 15.5q12 51 22 77zM231 466q0 -1 -2 -5.5t-2 -5.5q-6 -32 -9 -39q-6 -17 -24 -33q-11 -2 -15 -4q-11 2 -16 0q-10 3 -15.5 6.5t-9.5 6.5q-13 29 -17 31
q-6 13 -6 42q0 3 1 9.5t1 9.5q0 7 -2 20.5t-2 19.5l6 15q-3 11 2 28.5t14 23.5v5l7 8q5 2 9 4.5t8 4.5q5 1 7 1h3q15 0 24 -4q38 -26 38 -117v-27zM471 112l-1.5 -6t-3.5 -17q-13 -43 -20 -52q-11 -5 -19.5 -8t-13.5 -5l-6 3l-9 1q-7 3 -18 14q-14 30 -13 42q-7 25 -7 42h-3
l-1.5 4.5l-0.5 1.5v9l6 4q0 4 1 12.5t1 11.5q0 23 4 30q0 2 8 32q9 13 19 19q2 1 8 2.5t16 5.5q9 0 16 -4q18 -15 21 -28l7 -4l3 -12q0 -20 5 -32l1 -42v-24z" />
    <glyph glyph-name="ampersand" unicode="&#x26;" horiz-adv-x="678" 
d="M670 365l-2 18q-2 5 -14 13l-10 3l-19 -4q-5 -7 -9.5 -12.5t-6.5 -9.5l-19 -3l-10 2q-4 -1 -10 -3l-12 1.5l-4 0.5q-3 0 -11 -1t-12 -1q-23 2 -31.5 3t-3.5 1h-23l-15 -6q-10 -8 -11 -18l5 -15l10 -10q5 -2 9 -4l8 -4l7 -8q1 -5 1 -8v-3v-8q-18 -45 -26 -53q-4 4 -7 7.5
t-5 5.5l-2 10q-5 2 -9.5 3.5t-7.5 3.5q-1 3 -3.5 8t-3.5 8l-6 5h-8q-5 17 -6 25q-4 4 -10 4q-3 16 -2 20l-4 2l-10.5 12t-6.5 7l-2 12h-6l-4 8q7 -2 10 -2.5l3 -0.5q52 0 69 24q16 1 32 28l8 5q5 8 8.5 14.5t7.5 10.5v9q4 6 7.5 10.5t5.5 7.5q0 14 14 31v9l-7 7
q-8 19 -13 32.5l-9 23.5q-15 33 -79 61l-12 -1l-6 6q-20 5 -28 5q-7 1 -17 -3l-14 7l-11 -6l-5 4q-26 -8 -39 -9l-6 1q-12 -1 -30 -11h-7q-2 -2 -10 -7.5t-24 -15.5l-3 -4q-9 0 -14 -4l-4 -10q-10 -5 -23 -29q-7 -11 -18 -35l1 4q-4 -7 -6.5 -12.5t-3.5 -10.5q3 -6 2 -10
q5 -4 8 -7l5 -5l2 -8l-5 -5v-7l8.5 -22t5.5 -16l15 -21q2 -5 4 -9.5t3 -6.5l12.5 -21t9.5 -15l-2 -6l-25.5 -6t-9.5 -2h-7q-9 -7 -13 -8l-5 -6.5t-4 -4.5l-5 -1l-7 3l4 3q-15 -10 -22 -17l-6 -12l-4 1q-17 -12 -18 -33q-9 -8 -21 -36q-13 -31 -20 -41q17 -53 28 -77l8 -7
v-12q2 -5 4 -9l3 -6q13 -17 20 -23q11 -35 76 -63q9 1 19 -6q5 0 15.5 -3t15.5 -3h3q4 0 12 1l5 -2l7 1q6 -2 16 -2q15 0 24 4q3 -1 9 -1q11 0 36 11l30 12l16 12l3 8q27 30 27 38l7 -1l15 -19t14 -17l6 -1l4 -7l12 -2l5 -3l5 -9q24 -1 32 -11q3 0 10.5 -2t11.5 -2h8
q6 1 15 14l-2 6l1 8l-9 14q4 10 12 16q2 1 6 3.5l12 7.5l6 1l8 13l11 2q4 8 17.5 21t19.5 29l-1 13l-4 6q-9 4 -13 4q-11 0 -26 -9.5t-23 -9.5q-10 0 -19 6q-7 4 -11 6.5t-6 3.5l-5 6q-3 0 -18 15q-13 15 -24 17q9 17 17 29q8 14 15.5 29t15.5 29q24 35 51 37q9 9 15 11
l4 -3q29 8 40 14l14 18q0 5 4 12zM395 512q-2 -14 -4.5 -29t-4.5 -29q-11 -41 -46 -45q-19 21 -29 43l-9 9q-2 8 -11 22t-11 22l-8 36v4l-4 6q5 17 9 28.5t8 17.5q26 15 38 14l5 2q11 2 22.5 -5l21.5 -13l14 -30.5t8 -21.5l-3 -9v-7l3 -4l-2 -8zM386 103q-2 -17 -22 -34
q-25 -20 -26 -24l-18 -3l-4 4q-16 -5 -22 -6l-25 8q-13 11 -24 16q-5 7 -9.5 11.5t-6.5 8.5l-7 19.5l-5 14.5l-7 4l-3 9l5 -1q-3 11 -4.5 19.5t-2.5 13.5l2 13q0 5 -4 10q-1 -3 -1 39v15l4 10q0 2 -3 20q3 22 15 41q9 7 10 10l4 -1l10.5 -19.5t6.5 -13.5q5 -7 9.5 -11.5
l7.5 -7.5q13 -17 36 -51q3 -5 11 -12t13 -20l20 -15q0 -16 16 -35l18 -24z" />
    <glyph glyph-name="quotesingle" unicode="'" horiz-adv-x="208" 
d="M175 584q-15 5 -20 6q-11 9 -12 9q-3 6 -2 9l-4 2l-4 -2q-6 7 -6 25q-7 10 -8 14l-2 1l-2 3q-8 4 -14 4q-12 -7 -16.5 -19.5t-9.5 -16.5l-11 -22q-10 -7 -14 -8l-9 1q-2 -1 -7 -6l-1 -7q25 -23 21 -51l4 -8v-11q7 -11 7 -18q-1 -2 -1 -4q0 -1 -1 -3l5 -6l1 -4l-4 -6v-3
l3 -4l5 -3l2 -4v-5l-2 -5q0 -4 7 -31l6.5 -23t3.5 -11q3 -8 13 -15q4 -1 11 2q9 15 11 37l2 1q1 7 3 12l2 2q-2 5 6 31q8 28 11 31q-4 4 -6 5q2 21 3 25l4 2q7 41 15 58l8 7z" />
    <glyph glyph-name="parenleft" unicode="(" horiz-adv-x="320" 
d="M278 657q-1 4 -2 7.5t-3 7.5l-14 5q-3 -1 -6 -1q-2 0 -4 -1q-29 -31 -41 -47q-11 -20 -18 -26q-3 -8 -6 -13t-5 -9q-47 -89 -68 -136v-6q-19 -31 -30 -67l-24 -24q0 -6 1 -10l14 -12l5 -9q2 -21 10 -39v-5l4 -15.5t3 -12.5q8 -11 19 -57l5 -6v-8l5 -10l5 -3q1 -2 1 -5
t1 -7l4 -4v-9l3 -7q3 -2 6 -3.5t5 -3.5q0 -21 19 -47q24 -34 28 -44q13 -12 17 -13l2 -6l21 -15l10 -3l10 1q12 5 14 8l3 9q-5 20 -10 34t-10 24q-12 42 -24 123v18q0 8 1 13l-6 3l-2 7q3 12 5 21t3 15l-1 5l-6 8q-1 8 -1.5 11.5l-0.5 3.5q0 2 1.5 7t1.5 7q0 12 -1 25.5
t-3 29.5h-5q0 5 1.5 14t1.5 13q0 8 -4 19q6 9 12 17q-3 21 4 48q5 19 7 30t3 16l-2 6l-4 2v4l6 3l6 8q1 8 5 22t12 35q14 41 13 46z" />
    <glyph glyph-name="parenright" unicode=")" horiz-adv-x="320" 
d="M264 345l-16 14q-14 34 -14 36l-9.5 29l-8.5 27l-5 4q0 3 -2 10t-5 13.5t-6 12t-5 7.5l-9 3q-7 5 -10 17v5l6 5v8q-3 1 -27 38l-17.5 30t-8.5 15l2 -4q-17 25 -37 46q-8 2 -17 11q-5 2 -9 3l-8 2h-5l-6 -3l-6 -9q-1 -5 -1 -7v-2q0 -9 12 -34l8 -18t8 -17q7 -19 12 -39
t7 -42l5 -3l4 -14l-4 -16l3 -8q-2 -11 1 -23l6 -4v-10l-3 -8v-59q1 -46 11 -57l1 -18q-3 -6 -5 -17l4 -8l-1 -7l-3 -5q2 -8 -9 -44l-12 -53.5t-8 -38.5l-16 -48l-12 -34q-5 -20 -5 -14v-10l7 -10l6 -4q11 -1 19 2q15 14 25.5 25.5l17.5 19.5q19 35 38 62v13l5 1q4 9 13 17
q0 2 9 25q10 25 11 30l-1 8l4 2q7 18 13 36l12 36q18 50 31 64l7 3z" />
    <glyph glyph-name="asterisk" unicode="*" horiz-adv-x="278" 
d="M238 484v11q-4 5 -5.5 9t-2.5 6q-11 7 -21 12.5t-20 9.5l-3 4l3 9q15 11 25 13l3 4l4 2q8 6 11 20l-1 10l-4 8l-10 7q-4 1 -6 1h-1q-13 0 -44 -27l-2 4q4 9 2 32q-1 19 -8 31q-5 2 -8.5 3t-7.5 2h-6q-9 -5 -17 -19q-1 -5 -1.5 -7l-0.5 -2v-40l0.5 -3l1.5 -9
q-17 10 -37 31l-20 3l-9 -2l-5 -4l-7 -12q0 -2 0.5 -6.5t1.5 -11.5q34 -29 47 -32l-6 -11l-27 -18q-15 -13 -17 -27l3 -10l7 -8q9 -4 18 -4q32 20 49 33q-2 -13 -2.5 -25t-1.5 -23q4 -12 12 -20l10 -4q10 0 17 4l7 7q6 9 6 32v3l-3 5q3 15 2 23q35 -35 48 -35h3t9 1
q4 1 12 12l1.5 6z" />
    <glyph glyph-name="plus" unicode="+" horiz-adv-x="682" 
d="M382 277h276v69h-276v276h-70v-276h-280v-69h280v-277h70v277z" />
    <glyph glyph-name="comma" unicode="," horiz-adv-x="233" 
d="M193 80l-3 10l-8 8q-20 13 -32 25l-3 6l-4 3l-3.5 8.5t-2.5 5.5l-27 19q-3 -1 -7 -1q-5 -4 -11 -4l-8 -8l-2 -5l2 -16l-2 -8l-8 -8l-2 -7q-14 -2 -26 -12q-8 -13 -7 -20l3 -8q14 -15 22 -18q21 -24 22 -27l-1 -15q-10 -9 -16 -22q-1 -4 -1 -5v-2q0 -5 4 -14h5l4 -4
q5 -1 8.5 -1.5t4.5 -0.5h3q11 5 16 8q6 6 10.5 11t8.5 9l3 8l5 2l2 4v4l20 43q12 9 23 13l7 8z" />
    <glyph glyph-name="hyphen" unicode="-" horiz-adv-x="365" 
d="M325 331l-4 17l-5 5q-5 2 -8 2.5l-3 0.5q-11 0 -36 -20q-23 -19 -51 -19q-4 0 -11 1t-10 1q-5 -2 -7.5 -2.5l-2.5 -0.5h-32l-12 4q-5 -1 -11 -1h-10l-5 4q-24 2 -41 -4q-6 -6 -9 -19q2 -5 3 -8t2 -5q1 -8 -1 -15q-28 -31 -31 -54q1 -5 1 -11l4 -9l12 -3q23 10 30 17v4
l13 7l5 -1l8 2l4 3l13 -2q6 2 10.5 2.5t7.5 1.5l11 -7q16 -1 28 -1h22q48 0 66 8q10 13 10 18q0 9 -2 17l4 15l22.5 30.5z" />
    <glyph glyph-name="period" unicode="." horiz-adv-x="233" 
d="M193 78v9q-8 18 -18 19q-6 7 -11 12l-9 9l-4 2l-1 6l-7 4q-7 18 -14 26l-10 7h-12l-16 -6l-5 -6q-2 -5 -3 -9.5t-2 -6.5l2 -10q-11 -20 -28 -26q-11 -11 -15 -21l2 -12l10 -14l9 -3l18 -14.5t15 -10.5l4 -12l21 -19l9 -2q5 2 8.5 3t5.5 2q11 11 11 22v1q0 2 -1 5
q1 11 19 25q16 12 22 20z" />
    <glyph glyph-name="slash" unicode="/" horiz-adv-x="394" 
d="M381 684q0 7 -13 19l-10 2l-12 -4q-7 -5 -20 -30q-14 -26 -14 -31l-4 -4q-5 -18 -9 -25q-12 -8 -16 -36l-4 -4q-3 -13 -10 -28q-11 -11 -11 -23l-12 -14t-8 -11l-1 -7q-3 -7 -11 -15l-2 -6l1 -9q-9 -35 -33 -72l2 -5q-8 -11 -27 -60q-16 -44 -32 -55l-15 -37.5l-10 -25.5
v-14l-6 -2q-9 -20 -16.5 -34.5l-12.5 -24.5q-13 -31 -17 -44q-9 -17 -19.5 -39.5l-23.5 -50.5q-1 -5 -1.5 -9t-0.5 -7l4 -11q6 -9 16 -13h13q16 8 20 27l3 1v5q7 15 12 27l39 85.5t30 59.5q4 15 4 24l3 4l9 5l11 26v8l15.5 29.5t11.5 20.5q0 2 8 20q7 13 15 32.5t17 46.5
l58.5 124.5l55.5 122.5q23 51 23 62z" />
    <glyph glyph-name="zero" unicode="0" horiz-adv-x="597" 
d="M577 324l-2 11q-15 14 -22.5 38l-14.5 46l-9 9q-1 3 -1 4v2l0.5 4.5t2.5 12.5q-12 34 -15 53l-4 1l-2 15l-4 4q-4 7 -4 13q-4 6 -6.5 10.5t-3.5 8.5q-11 13 -20 22.5t-16 15.5q1 5 -2 13l-13 2l-5 5l-8 2q-30 23 -61 30q-21 4 -27 8q-5 0 -14.5 -1t-13.5 -1
q-2 0 -8.5 1.5t-10.5 0.5q-47 -7 -84 -20q-35 -12 -72 -51q-38 -39 -45 -72l-3 -3q-4 -11 -6.5 -18.5t-4.5 -12.5q-7 -34 -9 -50q-6 -11 -12 -18q-3 -14 -14 -42q-14 -33 -22 -38l-1 -10l3 -4h9q10 -14 15 -36.5t10 -42.5l7 -5q0 -33 15 -64q4 -6 14 -10l-1 -4q-5 -4 -7 -9
q6 -11 6 -15l3 -3q4 -8 6.5 -13.5t4.5 -9.5l4 -2q5 -14 12 -20h8q4 -22 34 -46l8 -3l2 -4q45 -23 71 -33q6 1 33 -2q25 -3 32 -3q70 0 107 31l4 1q5 7 15 17l25 24q13 13 22.5 24.5t16.5 22.5q4 5 6 9t4 6q9 22 11 24q1 6 3 11.5l4 10.5l-4 8v7l7 2l5 8q-1 3 8 35
q2 10 4.5 19t4.5 18q9 43 25 56zM406 336q-2 -9 -4 -13l2 -16l-5 -12q2 -10 -1 -77l3 -6q1 -7 -1.5 -11t-7.5 -11q0 -8 0.5 -14.5t1.5 -11.5q-3 -27 -6 -43l-5 -3v-6l-3 -8v-9q-11 -24 -27 -42l-7 -1q-19 -14 -37 -14q-24 0 -34 6q-15 12 -25 16l-11.5 13.5t-10.5 13.5l1 6
l-9 28l-4 1q-1 14 -2.5 29.5t-5.5 32.5l-7 7l-1 8q3 4 3 12q0 4 -1 7v7l5 11q2 5 -3 13q-1 17 -1 26v9v5q0 6 1 17l-6 10l-1 7l1 4q9 7 10 12l-1 9l2 6l-7 5l-2 7l4 7q1 11 1.5 17l0.5 6q0 5 -1.5 15t-1.5 15v6l8 19l-2 20l10 34.5l10 34.5q12 39 40 57l21.5 5t13.5 4l5 -2
l13 2q8 -2 11 -3q6 -6 21 -11l13 -15l8.5 -19t7.5 -14q15 -38 15 -98q0 -10 -2 -18l2 -6l-1 -7l5 -5l-4 -13l1 -15l4 -7l-1 -7l-3 -4q-1 -2 -1 -3v-1q0 -8 1 -11z" />
    <glyph glyph-name="one" unicode="1" horiz-adv-x="375" 
d="M368 27v1q0 2 -1 5l-5 6q-3 2 -5 3l-4 2q-14 3 -24.5 5.5l-18.5 4.5q-2 4 -6.5 7.5t-9.5 8.5l-3 8q2 11 -6 23l-5 3q0 7 -3 12q1 4 -3 15l-10 10l-3 12l7 6l-2 4q2 10 3 15.5t1 7.5q0 8 -5 23l-3 2q1 7 -0.5 16t-1.5 13q0 9 -1 26.5t-1 26.5v3t1 8l-4 6q0 7 5 15l-3 47
t-1 18q1 47 -2 57q0 4 2.5 13.5t2.5 14.5v3l-3 6q7 28 9 45l7 27q1 8 18 40q12 25 12 42q0 15 -1 18l-35 18q-9 -1 -24 -16l-5 -10l-1 -19l-5 -5v-5q-4 -1 -23 -14q-13 -8 -24 -10l-13 -10q-15 -2 -42 -9l-37 -8.5t-32 -12.5q-2 -4 -4 -7.5t-4 -8.5l2 -17q5 -4 8.5 -7.5
t7.5 -5.5l29 -7.5t12 -3.5l8 -9q1 -8 0.5 -14.5t-1.5 -10.5l2 -8l3 -4q-3 -14 -3 -18v-11l4 -9q-3 -18 -6 -26q1 -14 1.5 -24t-0.5 -17l-4 -6v-9l6 -5q1 -20 1.5 -35.5t0.5 -25.5l-6 -7l-2 -6q0 -7 1 -10l6 -3q-1 -10 2 -19q-7 -15 -7 -48v-9l7 -6q1 -5 1 -8v-3l-0.5 -3
t-2.5 -10l-7.5 -9t-3.5 -4q-2 -8 -4 -14.5t-3 -10.5l-4 -4l-1 -3q-12 -14 -21 -15q-4 -6 -13 -7l-15.5 -10t-11.5 -6q-1 -1 -4.5 -5.5t-11.5 -12.5q-9 -9 -9 -33q4 -13 13 -20l14 -6q11 1 20 3q8 7 14.5 13.5t11.5 13.5l-3 -3q13 11 44 11q8 -2 11 -3q2 1 7 1q9 0 57 -14
l8 4l11 -4l2 -6l11 1l9 -4q17 10 24 10l3 -6q7 -4 13 -4q49 0 75 15q10 11 10 25z" />
    <glyph glyph-name="two" unicode="2" horiz-adv-x="448" 
d="M420 132v8q-2 4 -9 12l-9 1.5l-3 0.5h-5q-16 -13 -28 -27q-4 -2 -8.5 -4t-11.5 -4q-10 1 -18 -2l-5 3q-4 0 -8.5 -0.5t-11.5 -1.5l-7 5q-7 -2 -10.5 -2.5l-3.5 -0.5q-8 0 -21 1t-30 3l-30 3.5t-21 1.5q-69 0 -85 -25l2 8l6 7l1 9q5 10 17 22t29 27q12 7 18 12q6 0 13 4
q4 5 7 11t5 11l17 -6l6 2l6 10q8 4 16 12l8 2l8 10l7 -1q8 3 13 8l5 1q3 6 10 9l2 4l-1 6q4 -1 7 -1q4 0 7 -1l7 4l1 5l7 7q29 14 40 22l3 4q6 1 18 15q13 14 13 21v7l-4 9l-4 3l-1 4l2 6q10 7 18 33q8 27 8 41q0 6 -3 26q-3 22 -2 27q-5 7 -9 30q-3 19 -15 26q-4 10 -3 14
q-3 10 -16 20.5t-17 18.5q-27 18 -28 18l2 3h-4l-1 1l-12 3t-21 7q-22 8 -36 8q-30 0 -50 -1.5t-33.5 -3.5t-22 -4t-14.5 -3l-4 -4q-11 -4 -19 -8t-13 -8q-79 -48 -79 -128q0 -24 14 -63q13 -14 28 -21h8l4 -2q16 -2 31 8q11 11 16 26q2 19 -11 34l-14 9q-3 4 -4 14l-4 4
l-4 1v6t1 9q2 1 4 1.5t4 1.5l5 10l7 6v22l12 5l1 9l7 7q2 1 3 1h1l18 -1q22 13 37 13h3q4 0 12 -1q10 -7 26 -10q6 -3 9 -10q4 -2 7 -4t5 -4l3 -8v-4q12 -8 13 -14q-1 -7 3 -19l5 -7q2 -13 3 -22t2 -16l-3 -5q2 -10 1 -15l6 -3q-2 -6 -1 -8l-4 -10t-9 -8q-3 -11 -3 -15
q-9 -28 -21 -44q-14 -8 -18 -18l-10 -7q-3 -26 -37 -44l-6 -12q-13 -10 -45 -49q-33 -41 -37 -51l-5 -4l-1 -5l-6 -3l-2 -3q-1 -5 -1 -12q-16 -26 -16 -33l-2 -3l-1 -7q-9 -11 -12 -30l1 -7q-2 -7 -3 -11.5t-2 -8.5l1 -7l-3 -4q1 -8 1 -16t1 -16q1 -20 9 -30l9 -7
q5 -1 7 -1.5l2 -0.5q2 0 5.5 0.5t8.5 1.5q12 11 14 22l4 2l-1 4q22 7 38 11t27 5l5 -3l1 -8q5 1 10 1t9 1l10 -7q39 -5 48 -10l17 -1l5 -3q4 0 10.5 -1t13 -2.5t13 -2.5t9.5 -1q37 0 48 15h3l1 11q-1 7 -10 17l-2 10l6 10q6 5 12 7l4 5q16 8 25 17l3 5l8 6q18 33 18 44z" />
    <glyph glyph-name="three" unicode="3" horiz-adv-x="407" 
d="M387 223l-4 6l-9 6q-4 8 -6.5 13.5t-4.5 9.5q-1 11 -6 19q-1 10 -18 43q-8 17 -14.5 27t-10.5 13q-14 5 -20 3l-8 16q-9 2 -28 12q-20 11 -32 12q-46 4 -71 6q10 4 15 12l2 5q5 3 15 10t24 18q31 25 33 31q23 17 27 22q2 11 25 24l3 7q13 7 37 39q24 31 24 46q0 11 -2 17
q-7 7 -14 10q-10 1 -25 -5q-13 -12 -22 -17h-4l-7 -3q-5 0 -14.5 -1t-13.5 -1h-51q-8 0 -18.5 0.5t-24.5 1.5q-17 2 -27.5 2.5t-15.5 1.5l-9 -3q-15 1 -33 9l-11 11l-14 4l-10 -2q-6 -4 -10 -7l-4 -8q1 -8 2 -14.5t2 -11.5q-3 -17 -6 -30q-22 -37 -28 -60l1 -10q3 -8 14 -16
l9 -2l17 7l3 5q4 3 7.5 6t6.5 5q17 5 23 11h10q5 1 10 1q3 0 10.5 -1t11.5 -1l14 6l2 5l4 1l5 -2l5 -5h9l13 -5q3 1 11 3l23 -4q-2 -5 -9 -12t-20 -17q-27 -21 -33 -22l-5 -11l-11 -1l-9 -9l-1 -5q-49 -20 -53 -57l3 -11l8 -9q20 -4 35.5 -5t26.5 0q16 -5 22 -6
q11 -10 26 -14l10 -14h-10l14 -7q6 -18 6 -19q5 -9 6 -11q-2 -8 0 -21q1 -8 1 -14v-7l3 -3q3 -5 3 -12v-6l-3 -7l1 -12l-9 -9q1 -6 -10 -28q0 -4 -2 -11.5t-4 -12.5q-4 -3 -7 -5.5t-5 -4.5q-8 -23 -15 -34q-14 -15 -21 -24q-2 -6 -15 -15q-8 -17 -40 -39q-39 -26 -47 -34
l-3 -12q3 -4 7 -10q18 -3 25 -2q21 3 18 4q4 1 12 6h4q35 22 56 22l5 4q5 0 13 5l11 13l4 -2h5l8 5q7 6 9 20q12 1 23 -5l6 6l1 4l17 11q4 5 6.5 9t3.5 8q24 8 38 31l6 1q15 13 18 26l6 4q3 4 24 42q18 29 19 41z" />
    <glyph glyph-name="four" unicode="4" horiz-adv-x="554" 
d="M534 282l-0.5 2.5l-1.5 7.5q-2 5 -11 10q-7 1 -16 -5.5t-11 -13.5q-7 -7 -16 -14t-21 -15q-17 -3 -30 -4.5l-21 -2.5l-7 3l-17 -4l-4 5q4 8 4 11q0 25 -0.5 40t-1.5 22l-3 6q2 5 3 8t2 5q-1 5 -1 24v72q-2 65 6 101l4 11q3 6 3 10q0 3 -1.5 9.5t-0.5 9.5q4 23 4 33
q0 2 -1 6l-2 8q0 4 -6.5 10.5t-27.5 6.5q-18 0 -66 -36q-38 -29 -61 -52q-2 -4 -3 -6.5t-2 -4.5l-30 -27q-9 -5 -11 -6q-9 -9 -15.5 -16.5t-11.5 -12.5q-8 -8 -12 -9q-2 -8 -11.5 -20.5t-25.5 -31.5q-32 -36 -36 -58q-10 -7 -34 -64q-11 -28 -17.5 -46.5t-7.5 -27.5
q-1 -8 -1.5 -14.5t-0.5 -11.5l2 -5l7 -6l2 -10l4 -4l6 1l4 -1l4 -4l5 -2l8 1l5 3q22 -3 31 -2q10 0 19 4l17 -4q7 2 11.5 2.5t7.5 1.5q7 -5 33 3l7 -4l14 6q37 -6 39 -8l1.5 -7.5l0.5 -2.5q0 -62 -27 -87q-7 -2 -11.5 -4t-8.5 -3l-5 -7q-32 -15 -33 -16l-12 -10.5t-5 -4.5
l-7 -15v-7q0 -4 3 -23q9 -9 28 -12q10 1 19 6q7 5 14 18q17 11 40 11q20 0 47 -3.5t62 -10.5q5 4 12 4l6 -2l3 -4l5 -2q8 0 14 3l13 -4l6 2l15 -4q12 3 36 2q2 1 6 2.5t9 5.5l7 1v3q11 8 11 19q0 2 -0.5 6t-1.5 9l-5 4q-3 0 -10 5l-7 -1q-10 7 -17 6q-11 3 -22 14h-6l-6 4
q-4 5 -8.5 11.5l-10.5 14.5l1 6l-3 4l-1 10q-6 7 -6 12l2 6q0 5 -2.5 16t-2.5 16v8l8 3q22 1 32 -2l6 1q17 -4 32.5 -6.5l28.5 -4.5l18 13l2 10q-3 15 -9 22q-2 5 3 16q31 28 31 59zM251 444v-10q0 -7 -1 -18q-5 -7 -9 -16q0 -6 4 -17t4 -16v-7l-4 -7q0 -5 -5 -17
q8 -36 3 -50l2 -7l-5 -32l-14 -1l-5 -3q3 -1 -36 -1h-85h-6q-5 0 -16 1q-2 24 34 86v7q2 6 12 16t11 18l12 12l2 11q5 3 17 20q14 19 20 21q13 17 24.5 30.5t21.5 23.5l3 -1l3 6l7 5l3 -6q-2 -9 0 -24q3 -20 3 -24z" />
    <glyph glyph-name="five" unicode="5" horiz-adv-x="394" 
d="M374 632v4q0 5 -1 13q-7 10 -15 13h-8q-4 0 -9 -1q-16 -11 -17 -20l-12 -12q-5 -1 -7 -1.5l-2 -0.5q-38 0 -47 -4q-9 1 -21 1.5t-26 -0.5q-21 -1 -33 -1.5t-14 -0.5q-4 0 -11.5 0.5t-18.5 1.5q-24 3 -32 2q-10 7 -13 20l-17 10q-5 -1 -8.5 -2t-7.5 -3l-9 -9
q-2 -10 -4 -18.5t-3 -15.5l1 -5q-6 -23 -6 -53v-6l2 -4q-1 -9 -3 -16q1 -12 3 -22q-5 -14 -6 -21q-4 -31 -5.5 -54t-2.5 -40q0 -1 -1 -2v-3v-7l5 -9q5 -5 14 -7q7 3 47 3q52 0 69 -15l6 -1q15 -18 28 -31q2 -2 4.5 -9.5t6.5 -18.5q7 -21 7 -30l9 -8l2 -12l-8 -13v-4l5 -6
l-4 -8q1 -3 -1 -8l-6 -4q-4 -11 -7 -18.5l-5 -12.5l-7 -8l-3 -9q0 -5 2 -11l-1 -8q-9 -5 -19 -7q-2 -5 -3 -8.5t-2 -5.5l-10 -13h-6q-2 -4 -4 -7t-4 -5l-2 -7l-10 -11l-5 -1l-2 -11l-6 -6l-15 -1q-6 -20 -25 -21q-16 -15 -33 -25l-1 -4l-4 -4l3 -15l7 -8l8 -3q17 4 30 6
t21 4l5 4l6 1q19 10 36 15l4 8l4 2q8 4 13.5 6t9.5 4l35 24l25 17q4 0 14 5q11 13 16.5 19t6.5 7l8 1q5 5 10 15l12 6l1 7l11 10l2 6q5 5 12.5 16t17.5 28q19 34 19 45v14q-5 3 -6 13l-9 8q-5 14 -7 27l-3 5q0 1 -9 24l-7 5l-3 8v5q-5 8 -17 17q-7 12 -10 15l-11 8l-1 4
q-2 2 -5.5 5t-7.5 7l-12 4q-7 5 -12.5 8.5t-10.5 5.5q-16 0 -36 10q-6 -1 -28 3q-23 4 -34 4q-7 0 -22 -2.5t-20 -2.5l-6 -3l-17 -1q-1 14 -1 21v8l6 33l-3 6l3.5 22t1.5 16l4 3l4 1q7 -1 12.5 -2l10.5 -2l6 3l6 -4h5l5 2q3 0 11.5 -2t12.5 -2t7 1h7l7 -3q21 2 63 -7l3 2
q5 1 11 1.5t14 0.5q10 0 30 6l9 12q1 5 -1 13t-2 12v1q0 2 1 4q19 16 37 26q1 3 18 20q11 13 11 29z" />
    <glyph glyph-name="six" unicode="6" horiz-adv-x="511" 
d="M504 185l-2 6q-5 6 -12 8q2 18 -9 35q1 22 -15 59q-17 38 -33 50l-2 4q-5 4 -13 8.5t-17 9t-17 9t-12 7.5q-14 -2 -28 7l-6 -1l-16 6q-20 -3 -35 -4.5t-26 -2.5q-11 -5 -20 -10.5t-17 -12.5q-6 -11 -6 -22q0 -9 7 -20l12 -7q5 -1 17 2q7 4 15.5 10l19.5 14l12 2l16 -3
q19 -12 24 -41q-1 -2 -1 -5t-1 -7q5 -14 8 -17q3 -18 3 -21q0 -17 -4 -24q4 -7 4 -12l-3 -6q1 -7 1.5 -11.5t0.5 -6.5q0 -20 -2 -30l2 -7l5 -5l-8 -9q-7 -27 -15.5 -54t-33.5 -45l-5 1l-9 -6q-8 -1 -12 -1h-4l-2 0.5l-6 1.5l-5 5q-6 2 -11 4q-9 11 -14 14l-2 9l-6 6
q-1 2 -1 4q0 3 -1 7l-4 3l-3 7v10l-5 5q-1 5 1 11q-2 8 -3 13.5t-2 9.5q-5 7 -5 22v4q1 2 1.5 4t1.5 4l-3 12l3 7q-3 34 -3 26q0 16 3 46q0 7 -1 9l-8 11l6 23l-7 15l3 7l-3 10q0 3 10.5 24.5t10.5 59.5q2 4 5 9l6 10l1 17q13 34 55 91q52 72 57 84l-1 8l-3 5l-6 2t-7 3
q-46 -20 -81.5 -47.5t-61.5 -61.5l-8 -3q-3 -7 -18 -25q-15 -17 -15 -22q-12 -9 -20 -32l-11 -7q-3 -12 -9 -16q-15 -27 -28 -40q-5 -13 -6 -19l-19 -48q-2 -5 -3.5 -9.5t-2.5 -6.5l-6 -6l-3 -9q16 -28 16 -44q0 -10 3 -23q3 -18 3 -24l1 -7l3 -6q0 -7 8 -36l6 -2l7.5 -38
t3.5 -15q8 -15 15.5 -27l13.5 -21l17 -17.5t11 -12.5l9 -3q9 -12 26 -20q6 -2 32 -10q35 -11 47 -11q7 0 13 -2q8 1 14.5 1.5t10.5 -0.5q48 3 81 19l4 2h3l2 8l9 9t11 10q3 -1 16 4v7h6q9 6 13.5 15.5t8.5 19.5q7 2 13 8q3 4 3 13l-2 8l5 9l6 3q19 43 37 58z" />
    <glyph glyph-name="seven" unicode="7" horiz-adv-x="377" 
d="M401 635v8l-10 13l-10 4h-13l-9 -4l-10 -11.5t-6 -6.5q-15 -7 -76 -7q-56 0 -52 1l-7 3l-16.5 -3l-5.5 -1q-16 0 -31.5 1.5t-31.5 3.5l-3 4l-5 1q-17 13 -18 15h-11q-10 0 -18 -8l-4 -8l-1 -12l3 -4q1 -8 1.5 -12.5l0.5 -4.5q0 -8 -43 -87q-1 -6 -1 -9v-3v-2t1 -7
q2 -5 13 -15l9 -2l11 3l9 7q4 5 6.5 9.5t4.5 7.5q24 15 40 15q8 0 23.5 -1.5t23.5 -1.5l4 0.5t12 2.5l13 -4q10 1 17 -1q11 1 21 1h22q26 1 40 12q-5 -15 -20 -33l-27 -27l-6 -2q-3 -7 -15.5 -18t-20.5 -14q-2 -5 -2.5 -9t-1.5 -7q-12 -11 -15 -15l-14 -6q-13 -16 -13 -19
l-7 -2l-6 -7v-5l-14 -19l-10 -13l-2 -8l3 -7q-7 -4 -13.5 -17t-12.5 -17v-6l-2 -5l-4 -4l-2 -7l2 -7l-5 -13v-11q-13 -4 -18 -11v-8l4 -5q-1 -4 -2 -7.5t-3 -7.5v-12l-3 -7v-14q-8 -29 -6 -47l7 -12q-1 -7 5 -34q8 -27 12 -31q0 -6 13 -22q13 -15 20 -18q7 -4 12.5 -6
t9.5 -4h5q8 0 15 4l8 11q1 7 1 10v3q-2 8 -3 11q11 25 41 32l-1 5l10 8q13 4 28 6q15 10 29 20.5t19 28.5l-1 6l-6 8q-11 5 -18.5 9t-12.5 6q-2 11 -5 14l-11 2q-12 42 -12 48q0 34 18 85v4l2 5q-3 13 -7 17l5 -2l7 6q7 22 9 33q10 11 10 17q9 10 10 22l-1 5l2 6l25 30
l18 21q10 18 11 26q8 13 17 25.5t17 25.5q20 33 26 54q5 17 7 26z" />
    <glyph glyph-name="eight" unicode="8" horiz-adv-x="513" 
d="M499 184q-2 11 -6 20v4q-10 46 -32 72l-5 2l-17 22l-2 8q-15 8 -20 15l-6 2l-5 8q-9 7 -11 10q-19 13 -33.5 22t-25.5 15l8 1l48 23l6 12h7q22 14 35 47l10 28l10 28l-8 8l-11 23.5l-9 18.5l-17.5 19.5l-13.5 15.5l-5 3l-2 6l-16 6l-7 9q-19 9 -55 22q-12 -2 -32 0
q-26 3 -33 3q-4 0 -18.5 -3t-18.5 -2q-15 -11 -68 -25q-7 -5 -11.5 -9.5t-8.5 -6.5l-4 -2q-17 -23 -27 -33l-22.5 -43.5t-14.5 -31.5q-2 -9 15 -47q7 -17 12.5 -28.5t9.5 -17.5l4 -1q2 -7 7 -15l12 -8q7 -10 14 -15l1 -5l3 -3l15 2l13 -23q16 -11 23 -11l-8 -7
q-10 -1 -17 -2t-11 -2q-3 0 -9.5 -2.5l-14 -5.5t-14.5 -5.5t-13 -2.5l-5 -19l-5 -6l-9 -4q-15 -14 -32 -49q-17 -36 -24 -40l-12 -3l16.5 -19.5t6.5 -7.5q15 -38 21 -57l7 -4l4 -16l8 -1q1 -5 1 -8v-5l11.5 -11.5t6.5 -8.5q20 -15 34 -28q81 -30 140 -30q19 0 49 6
q36 6 43 13q7 0 21.5 10t18.5 16l10 4q8 12 26 24l12.5 22.5l9.5 16.5q2 2 5.5 4.5t7.5 6.5q-2 5 -1 8q8 20 13 34t7 24zM331 496q0 -16 -7 -35l-13 -36q-11 -10 -16 -18l-21 14.5t-16 10.5l-3 10l-15 4l-7 -2l-2 16q-23 28 -28 46l-3 3q3 7 1 13q-1 5 -1.5 8t-0.5 4
q0 27 13 56q25 25 46 25h19l4 -2l7 1q15 -8 22 -19l14 -23l7 -47v-29zM351 183l-7 -19v-12q-1 -4 -1 -7v-4q0 -6 3 -13q-5 -9 -3 -21l-9 -14q-1 -4 -1 -11q-12 -18 -19 -25q-2 0 -24 -19h-8q-4 -4 -13 -4q-6 0 -17 2t-17 2q-8 5 -13 5l-2 3l-4 1l-5 5l-1 4q-11 6 -20 39
q-8 27 -9 43l6 14v12l-5 7q2 8 2.5 12l0.5 4v6l-4 6l3 9q-3 18 5 48q9 28 24 39l12 4q16 -6 39 -24l25.5 -21t9.5 -8l5.5 -5.5t12.5 -14.5q17 -19 22 -37l4 -5z" />
    <glyph glyph-name="nine" unicode="9" horiz-adv-x="497" 
d="M470 333q-8 11 -9.5 22.5t-2.5 24.5q-5 55 -6 84q-1 2 -2.5 8t-5.5 16q-7 20 -7 23l-4 6l-1 7q-7 16 -13 20q1 9 -6 22l-5 5l-2 6l-12 14l-11 4l-1 7l-9 8q-25 6 -31 19l-5 1q-22 25 -100 25q-45 0 -56 -8h-3q-14 -5 -22.5 -7.5t-11.5 -3.5q-57 -37 -83 -79l-1 -6
q-26 -49 -39 -82q-4 -2 -7 -7l-7 -12l7 -8q0 -4 2 -10q10 -27 13 -41l4 -14q4 -3 9 -12q0 -17 15 -36l1 -5q23 -31 43.5 -43l42.5 -24l4 1q16 -8 50 -8q2 0 32 3l19 12t13 9q8 5 12.5 8.5t7.5 7.5t5 10t5 16l-1 18l-3 6q-2 2 -5 3.5t-5 3.5q-7 1 -19 -3q-13 -11 -27 -41
l-10 -4l-16 2l-4 -5l-26 21q-2 12 -13 23q-1 5 -1.5 9.5t-1.5 9.5l-6 5l3 5l1 11l-5 7q-2 7 -1 16l-8 7v8q5 3 8 5t5 4q3 35 5 39q1 4 -2 10l-4 2q-1 7 2.5 20.5t3.5 19.5v3q0 4 -1 11q3 6 10 9v10l8 12q-1 8 19 36q8 4 14.5 6.5l11.5 4.5q14 -4 25 -1q26 -14 32 -30
q14 -31 16 -34l-1 -9q13 -36 13 -55q0 -24 2 -28q1 -2 -4 -28l3 -10q-6 -9 -6 -17q0 -4 0.5 -8.5t1.5 -9.5l9 -15q-3 -60 -16 -76l3 -11l-11 -26l2 -9q-6 -2 -10 -12l-2 -17l-5 -5l-6 -18q-14 -14 -20 -27l4 -8l-3 -7q-3 -1 -11 -3q-23 -38 -41 -46l-10 -20l-8 -2l-5 -5
l-1 -5l-21 -16l-21 -16q-29 -23 -33 -34l3 -9l4 -4l7 -3q27 3 40 7q4 4 16 6l3 3q12 5 18 5l60.5 38.5t40.5 27.5q5 4 8.5 7.5l5.5 5.5l1 5q18 9 33 27q25 7 25 29l10 6q7 10 9 21l7 2q10 7 16 13q4 9 6.5 16t3.5 12q10 18 18 28l1 13q9 9 10 12q2 8 4 14t3 10
q5 13 9.5 22.5t7.5 16.5z" />
    <glyph glyph-name="colon" unicode=":" horiz-adv-x="233" 
d="M193 442v9q-8 18 -18 19q-21 22 -24 24l-1 5l-7 4q-7 18 -14 26l-10 7h-12l-16 -6l-5 -6q-2 -5 -3 -9.5t-2 -6.5l2 -10q-11 -20 -28 -26q-11 -11 -15 -21l2 -12l10 -14l9 -3l18 -14.5t15 -10.5l4 -12l21 -19l9 -2q5 2 8.5 3t5.5 2q11 11 11 22v1q0 2 -1 5q2 9 4 12
q32 25 37 33zM193 78v9q-8 18 -18 19q-6 7 -11 12l-9 9l-4 2l-1 6l-7 4q-7 18 -14 26l-10 7h-12l-16 -6l-5 -6q-2 -5 -3 -9.5t-2 -6.5l2 -10q-11 -20 -28 -26q-11 -11 -15 -21l2 -12l10 -14l9 -3l18 -14.5t15 -10.5l4 -12l21 -19l9 -2q5 2 8.5 3t5.5 2q11 11 11 22v1
q0 2 -1 5q1 11 19 25q16 12 22 20z" />
    <glyph glyph-name="semicolon" unicode=";" horiz-adv-x="233" 
d="M192 442v9q-8 18 -18 19q-21 22 -24 24l-1 5l-7 4q-7 18 -14 26l-10 7h-12l-16 -6l-6 -6q0 -3 -2 -8t-2 -8v-3q0 -2 1 -7l-6 -10q-7 -5 -12 -9l-9 -7q-11 -11 -15 -21l2 -12l10 -14l9 -3l18 -14.5t15 -10.5l4 -12l21 -19l9 -2q5 2 8.5 3t5.5 2q11 11 11 22v14q2 4 7.5 9
t12 9.5t12 9.5t8.5 9zM194 80l-3 10l-8 8q-11 7 -19.5 13.5t-13.5 11.5l-2 6l-4 3q-5 12 -14 19t-20 14q-4 -2 -7 -1q-4 -4 -10 -4q-8 -5 -10 -13q1 -17 0 -24l-9 -8l-2 -7q-13 -3 -25 -12q-8 -13 -7 -20l2 -8q15 -16 23 -18q19 -21 21 -27v-15q-10 -9 -16 -22q-1 -4 -1 -5
v-2q0 -5 4 -14h5l4 -4l9 -1.5l3 -0.5h4q6 2 12 7l4 1q6 6 10.5 11t8.5 9l3 8l4 2l3 4v4l3 6.5t8 19.5q7 17 15.5 21.5l16.5 8.5l7 8z" />
    <glyph glyph-name="less" unicode="&#x3c;" horiz-adv-x="726" 
d="M348 383l-3 10q-2 2 -4 4.5t-4 4.5q-5 1 -9 1q-3 0 -6 1l-3 20q-11 13 -14 17q-3 9 -3 14q-14 33 -22 46l-8 1q-4 8 -6.5 14.5l-4.5 11.5l-15 13l-14 1h-3l-5 -2q-8 -6 -12 -15l-1 -8q-27 -21 -34 -21q-10 -12 -48 -23q-40 -10 -46 -15q-2 0 -21 -6l-12 1.5t-3 0.5
l-12 -6q-6 -9 -6 -15q2 -8 6 -14h9l-1 -12l9 -3q-1 -17 0.5 -30t3.5 -23l-2 -4q-1 -3 1 -9l-4 -11q-1 1 -1 -18v-4l2 -5q-1 -11 -0.5 -19.5t1.5 -14.5q-1 -22 -1.5 -34.5t-0.5 -16.5l6 -15l-6 -6q-2 -6 -4 -43q0 -17 -2.5 -27t-6 -16t-6.5 -8.5t-5 -5.5q-2 -5 -2.5 -7.5
l-0.5 -2.5v-6l4 -9l4 -3q3 -1 4 -1h2h25l6 -7l13 2l3 -8q6 -1 38 -18q16 -8 25 -13t11 -7l40.5 -10.5l13.5 -3.5l5 0.5l15 1.5l8 10v14l-4 9q0 4 1 7t4 6.5t10.5 7.5l21.5 12q21 13 26 24l6 3q23 25 23 59v12q-4 8 -6 14t-4 9l-21 10q-4 -3 -10 -4t-11 -7l-4 -10
q0 -2 1 -6.5t2.5 -9.5l3 -10t1.5 -6l-3 -6v-4l-2 -5l-7 -2q-7 -9 -12 -10v8q-29 -2 -54 4q-38 8 -45 26l-1 7l9 5l2 5l4 4q0 4 4 14t4 15q0 42 -1 39l3 1q-1 2 -1 5q0 4 -1 8l-4 3q0 6 3 15.5t3 14.5q0 6 -1.5 16.5t-1.5 15.5l-2 3l4 9l-2 12l1 4l-4 6q6 25 -11 55l-2 22
l6 9l5 3q9 -8 17 -25q4 -13 11 -28l9 -8q27 -71 41 -83h10l10 4l5 6l5 15l12 13l27 12.5t22 17.5zM689 447v14l-5 6l-10 4l-4 4q-20 7 -27 12h-3l-7 5l-18 4q-10 8 -22 13l-2 4q-11 7 -18.5 12.5t-12.5 9.5l-6 1l-6 4q-3 1 -5 1h-1l-4.5 -0.5l-13.5 -1.5l-6 -3
q-9 -11 -9 -20l0.5 -4l1.5 -12l-2 -5l-12 -13l-14 1q-9 12 -9 43q0 39 1 35q4 8 4 18l-3 6l6.5 43.5t20.5 37.5q4 1 12 5q2 -1 5 -1t7 -1q6 -6 8 -9q2 -10 -4 -24l3 -11l10 -14l24 1l14 9q2 4 3.5 6.5t3.5 4.5q1 4 1 7v6l2 4q-2 9 -2.5 15.5t-1.5 11.5q-16 22 -28 31l-6 1
l-4 5l-4 1l-4 3q-13 2 -18 4q-4 -1 -6 -1h-1h-5t-8 1h-14q-29 -9 -42 -21.5t-27 -41.5h-7l-16 15.5t-12 10.5q-5 0 -12.5 3.5t-10.5 4.5l-21 -3l-4 -5l-4 -2l-1 -5q1 -3 1 -5v-1v-2q0 -1 -1 -4q11 -10 17.5 -16.5t8.5 -9.5q0 -5 3 -16.5t3 -18.5t1.5 -23.5t1.5 -24.5v-10
q-6 -9 -6 -34q0 -4 2 -12.5t2 -11.5l-1 -37q-5 -8 -5 -22q0 -3 1 -5v-6l4 -6l-1 -4l2 -6q1 3 1 -31q0 -4 -4 -13l6 -21q-3 -32 -3 -26q0 -4 1 -7v-8l-6 -8l-3 -14q9 -18 7 -38l3 -7q1 -5 -3 -15q2 -11 -1.5 -21t-3.5 -14q5 -17 5 -21q0 -8 -4 -22.5t-5 -20.5
q-19 -10 -28 -21l-2 -7l1 -14q1 -6 8 -11l19 -3l4 -4q20 -5 36 -17v-4l5 -5l4 -1l8 -6l-4 1q26 -23 41 -23q3 0 7 0.5t9 1.5l9 8q1 7 1.5 10l0.5 3q0 10 -6 24v6l4 9q6 6 16 8l4 3l8 2q7 5 12 9.5t9 6.5l3 7l4 3l3 7l-1 5l1 5l-4 8l-14 7l-13 1l-1 7q-19 31 -16 49l-2 4
q3 9 3 83q0 8 -2 25t-2 26q0 4 0.5 8.5t1.5 9.5l-3 5q-1 3 -1 4v2q1 25 3.5 41.5t6.5 25.5l3 -2l-1 4l15 10l5 -7q31 -17 51 -27q-11 -42 -16 -63.5t-6 -32.5l3 -7q-4 -36 3 -52q2 -20 3.5 -40t3.5 -40l2 -5q-3 -13 0 -34q2 -14 3 -22t1 -12q0 -7 -3 -23t-2 -25
q-12 -27 -12 -55q0 -22 11 -55l15 -16l17 -6l24 5l12 11l5 20l-3 17q-5 6 -6 10q-6 5 -10 7l-14 17q-1 5 -1.5 7l-0.5 2q0 15 3 25t8 16.5t11.5 11.5t12.5 11q24 10 33 17l12 1l15 10l2 12l-10 11l-3 8q-2 12 -3.5 24t-3.5 24l-2 4q-1 7 -1 13v15v43l-7 9q1 10 6 13v7l-3 5
v11q-1 4 -1 6v5q0 6 2 17.5t2 17.5q0 55 -1 50q3 31 19 41l-4 -5q9 9 11 14z" />
    <glyph glyph-name="equal" unicode="=" 
d="M379 407l-5 17l-6 5q-7 2 -10 2.5l-3 0.5q-15 0 -44 -20q-28 -19 -61 -19q-4 0 -12.5 1t-12.5 1l-12 -3h-38l-15 4q-7 -1 -13 -1h-12l-6 4q-30 2 -49 -4q-8 -7 -11 -19q3 -8 6 -13q1 -8 -1 -15q-34 -31 -37 -54q1 -5 1 -11l5 -9l14 -3q27 10 36 17v4l16 7l6 -1l9 2l5 3
l16 -2q7 2 12 2.5t9 1.5l13 -7q19 -1 34 -1h26q59 0 80 8q12 13 12 18q0 11 -3 17l5 15q16 17 27 30.5t19 21.5zM379 252l-5 17l-6 5q-7 2 -10 2.5l-3 0.5q-15 0 -44 -20q-28 -19 -61 -19q-4 0 -12.5 1t-12.5 1l-12 -3h-38l-15 4q-7 -1 -13 -1h-12l-6 4q-30 2 -49 -4
q-8 -7 -11 -19q3 -8 6 -13q1 -8 -1 -15q-34 -31 -37 -54q1 -5 1 -11l5 -9l14 -3q27 10 36 17v4l16 7l6 -1l9 2l5 3l16 -2q7 2 12 2.5t9 1.5l14 -7q19 -1 34 -1h26q58 0 79 8q12 13 12 18q0 11 -3 17l5 15q16 17 27 30.5t19 21.5z" />
    <glyph glyph-name="greater" unicode="&#x3e;" horiz-adv-x="729" 
d="M348 383l-3 10q-2 2 -4 4.5t-4 4.5q-5 1 -9 1q-3 0 -6 1l-3 20q-11 13 -14 17q-3 9 -3 14q-14 33 -22 46l-8 1q-4 8 -6.5 14.5l-4.5 11.5l-15 13l-14 1h-3l-5 -2q-8 -6 -12 -15l-1 -8q-27 -21 -34 -21q-10 -12 -48 -23q-40 -10 -46 -15q-2 0 -21 -6l-12 1.5t-3 0.5
l-12 -6q-6 -9 -6 -15q2 -8 6 -14h9l-1 -12l9 -3q-1 -17 0.5 -30t3.5 -23l-2 -4q-1 -3 1 -9l-4 -11q-1 1 -1 -18v-4l2 -5q-1 -11 -0.5 -19.5t1.5 -14.5q-1 -22 -1.5 -34.5t-0.5 -16.5l6 -15l-6 -6q-2 -6 -4 -43q0 -17 -2.5 -27t-6 -16t-6.5 -8.5t-5 -5.5q-2 -5 -2.5 -7.5
l-0.5 -2.5v-6l4 -9l4 -3q3 -1 4 -1h2h25l6 -7l13 2l3 -8q6 -1 38 -18q16 -8 25 -13t11 -7l40.5 -10.5l13.5 -3.5l5 0.5l15 1.5l8 10v14l-4 9q0 4 1 7t4 6.5t10.5 7.5l21.5 12q21 13 26 24l6 3q23 25 23 59v12q-4 8 -6 14t-4 9l-21 10q-4 -3 -10 -4t-11 -7l-4 -10
q0 -2 1 -6.5t2.5 -9.5l3 -10t1.5 -6l-3 -6v-4l-2 -5l-7 -2q-7 -9 -12 -10v8q-29 -2 -54 4q-38 8 -45 26l-1 7l9 5l2 5l4 4q0 4 4 14t4 15q0 42 -1 39l3 1q-1 2 -1 5q0 4 -1 8l-4 3q0 6 3 15.5t3 14.5q0 6 -1.5 16.5t-1.5 15.5l-2 3l4 9l-2 12l1 4l-4 6q6 25 -11 55l-2 22
l6 9l5 3q9 -8 17 -25q4 -13 11 -28l9 -8q27 -71 41 -83h10l10 4l5 6l5 15l12 13l27 12.5t22 17.5zM710 115v8l-3 5l-5 4h-10l-16 6l-8 15q0 7 -1 20t-1 18q0 9 1 12l-4 5v7l9 17q-8 36 12 65v4l-7 11q-35 14 -44 13q-4 2 -7.5 3.5t-7.5 3.5l-6 -1l1 13q15 13 19 22
l20.5 32.5t17.5 31.5q10 4 21 25l-5 18l-6 4q-5 1 -7 1.5l-2 0.5h-2t-7 -1l-23 8l-8 7l-3 1q-24 7 -32 12q-7 5 -14 9.5t-14 9.5q-23 14 -29 14h-14l-7 -3l-8.5 -25.5t-5.5 -17.5q-10 -13 -17 -15l-15 7q-3 18 -3 36v1q0 2 1 4q-1 4 -1 9l2 5q0 7 1.5 20t1.5 19q0 47 23 85
l11 6q5 1 7 1h3l2 -0.5t7 -1.5q1 -7 -2 -17.5t-3 -15.5l0.5 -3.5l1.5 -10.5q7 -13 16 -19l8 -2q14 2 18 5l3.5 3t10.5 10l2 10l-10 10v4l6 4l5 8q-2 17 -4 22q-1 1 -4 5t-10 12q-23 27 -72 27l-3.5 -0.5l-10.5 -1.5q-4 -2 -9 -5t-13 -6q-12 -5 -32 -25q-2 -5 -3.5 -9.5
t-3.5 -7.5v-7l-5 -3q-8 11 -15.5 20t-15.5 14h-4l-8 4q-10 1 -16 0.5t-10 -1.5q-6 -5 -11 -17v-8l12 -7q3 -5 6 -11t7 -12q2 -21 3.5 -30t1.5 -7q0 -118 1 -121l7 -4v-11l-3 -5l2 -9l5 -3v-3l-9 -11q-5 -20 -5 -52v-9t1 -12v-22l-4 -8l2 -25l3 -5q-5 -23 1 -38
q-2 -17 -7 -24v-10l3 -6v-5t1 -8v-13q0 -7 -2.5 -22t-2.5 -22q0 -24 -6 -39l-5 -4l-3 -6q-9 -6 -13 -19q1 -5 1 -11q8 -5 14.5 -8t11.5 -5q2 -2 7.5 -6t13.5 -11q13 -11 24 -14l7 -7l3 -7l13 -7l3 -4l21 -5q10 4 15 9l3 15v3l-9 18q2 13 6 17l12 9v5q33 11 44 41l-5 9
q-4 3 -7 5.5t-5 4.5h-7l-6 3l-5 12l-4 4l-1.5 7.5t-0.5 4.5q0 22 1 25q-7 18 -7 28v13l4 4q1 2 1 3v1q0 1 -1 12l-3 33q-3 33 1 40l-2 4q1 8 1 14q0 7 1 11l-6 -2q-1 8 -1.5 13t-0.5 9l8 5q1 7 1 10v3q0 8 -1 10q2 10 3 17t2 12l7 5q11 0 31 -10q23 -11 26 -17q18 -10 33 -8
l4 -2h4l6 5h5l2 -6l-1 -7l-4 -3q-20 -44 -34 -57q-10 -3 -16 -10l-9 -2q-11 2 -19 3t-13 2l-4 -1l-7 -6l-3 -6q-2 -8 7 -21l14 -6l3 -4l14 -2q10 -12 33 -15l9 -8l-6 -20q-7 -5 -5 -20q-3 -5 -3 -14q0 -8 1.5 -20.5l3.5 -28.5l-2 -7q4 -22 -14 -39l1 -4l-9 -9l-1 -15
q4 -4 9.5 -8t13.5 -8h6l5 -2l2 4l2 -7l10 -8t10 -9l1 -4q3 -5 10 -10.5t15 -10.5t15.5 -8.5t12.5 -3.5l8 1l4 5l7 22l-4 17q1 13 19 26l-1 9q11 0 16 3q16 25 16 28z" />
    <glyph glyph-name="question" unicode="?" horiz-adv-x="382" 
d="M356 474q-4 8 -6.5 13.5t-4.5 9.5q-11 55 -13 60q-10 32 -34 50l-2 12h-14l-3 4l-6 3l-4 5q-52 20 -69 20q-4 0 -62 -12q-4 1 -6.5 2t-4.5 2l-2 4l-18 14q-6 1 -9 1h-3q-6 0 -13 -4l-10 -13q0 -6 3 -33l4 -4l3 -9q0 -14 -9 -33q-9 -6 -16 -19l-6 -3q-2 -3 -15 -27
q-9 -17 -9 -30q0 -17 7 -27l8 -7l11 -4q16 0 21 5q5 12 12 19l-1 6l5 5l-4 11l5 7l10 5l9 12q5 0 22 4l6 -3q5 -1 9 -1h9l22 -9l18.5 -19l11.5 -12q4 -31 13 -47q-2 -6 -3 -15q-3 -31 -20 -70l-12 -24t-22 -41v-6q-3 -2 -6 -7.5t-5.5 -13t-4.5 -14.5t-2 -11q0 -26 1 -27
q2 -4 4 -7t3 -5l11 -5q7 -1 11 -0.5t6 1.5q6 6 13 9l6 11q3 14 6 24.5l5 17.5l8 9q1 5 1 7v3q0 3 -1 4l4 6h5l13 8l2 4l-1 7q13 8 27 13l1 10l7 4l4 9l-3 7l4 9l13 4q24 33 33 51q-2 7 6 27q9 27 9 29l7 7t5 7zM261 87l-7 14q-5 5 -12 10t-15 10h-5l-12 12q-1 4 -1.5 8.5
t-2.5 10.5l-6 1l-7 8l-5 2h-8q-3 1 -7 1q-5 0 -11 -2l-10 -8q-3 -14 -3 -21q-12 -13 -21.5 -21.5t-16.5 -13.5l-3 -9l-1 -3v-13q11 -10 20 -17t14 -12l8 10l5 -3l2 -15q30 -33 42 -37h5l3 3q3 1 8 6q2 15 3.5 22.5t1.5 8.5q12 14 31 24z" />
    <glyph glyph-name="at" unicode="@" horiz-adv-x="681" 
d="M664 431q0 127 -89 208q-89 82 -216 78l-30 -1l-28 -4q-122 -17 -202 -110q-80 -94 -80 -216q0 -144 94 -245q94 -102 236 -102q76 0 151 35q78 36 120 97q17 14 33 58l-53 -3l-14 -21l-15 -18q-83 -99 -219 -99q-113 0 -189 71q-74 70 -90 186q-1 5 -1.5 10.5t-0.5 10.5
l-1 22q-4 115 84 200q85 82 202 82q113 0 186 -65q73 -64 73 -178q0 -81 -83 -158q-40 -37 -55 -37q-10 2 -11 7l-3 22l1 200l5 30l8 21q4 11 19 29l-23 12q-8 -10 -17 -16q-5 -3 -16 -3q-30 0 -49 9l-45 20q-3 3 -9 4l-8 2q-15 -17 -33 -21q-27 -11 -40 -11l-9 -2h-25
l-12 1l71 -126q-80 -86 -75 -150q5 -62 68 -108l102 83q2 -11 4.5 -21t6.5 -21q15 -25 39 -40q19 4 46 20l34 19l21 12q137 89 137 227zM379 472h-6v-87l-68 30l-51 91l123 -39zM379 361h-6v-95l-45 -36q-45 37 -45 80l4 42l12 36l78 -33z" />
    <glyph glyph-name="A" unicode="A" horiz-adv-x="760" 
d="M760 24l-5 11l-13 8q-13 0 -26.5 5t-16.5 5q-5 6 -8 11t-5 9l-13 4l-3 12l-6 8q-1 12 -13 29q-9 1 -21 8l8 11v4l-9 25.5t-7 21.5q1 5 -1 15l-7 10v6q-4 12 -9 17l1 9l-2 6l-4 2q-4 11 -6.5 20t-4.5 14q16 -8 24 -7q6 -4 10 -6t6 -4l10.5 -17.5t6.5 -13.5l14 -10
q4 -1 8 -1.5t8 -1.5q14 5 21 13l6 20q-2 8 -3 13.5t-2 7.5q-8 14 -17 19l-4 1q1 5 -2 12l-8 -3l-3 10q-20 12 -33 12l-12 8q-20 -3 -36 7h-4l-10 14l-2 13q4 16 -7 32l-6 5q-1 5 -1.5 7l-0.5 2q0 3 -1.5 12t-3.5 24l-7 6l1 9l-12 60v5l3 4q0 8 3 11l26 20q19 1 49 24
q5 13 12 17l4 18l-2 12q-3 3 -6 6.5t-6 7.5q-8 2 -11.5 3.5l-3.5 1.5h-15l-12 -5l-13 -18q-20 -12 -57 -12l-4 2q-34 3 -51 -5l-4 -7l-9 2l-7 -7l-4 10q-5 2 -8 2.5l-3 0.5q-68 0 -81 -3q-23 6 -77 6l-8 3l-2 6q-7 6 -11.5 10.5l-7.5 7.5h-6l-4 3q-3 1 -5 1h-1q-5 0 -21 -3
l-5 -3l-12 -16t-6 -20q0 -6 3 -16l7 -10q12 -7 17 -13q13 -2 23.5 -4t18.5 -4q8 3 21 -1l21 -6l11 -8v-8l2 -4q-3 -3 -14 -60l-13 -20v-10l-9.5 -25.5l-7.5 -19.5q3 -8 -1 -17q-6 -5 -8 -10l1 -6l-5 -10l-1 -9l-2 -4l-13 -6q-48 -1 -86 -21q-47 -24 -47 -67q0 -11 1 -16
l16 -16q8 -1 12.5 -1.5l4.5 -0.5l3 0.5l9 1.5q15 15 15 17v5q8 18 14 24q21 14 38 12q4 -1 10 -3l-6.5 -16.5t-9.5 -28.5q-10 -31 -19 -43v-6l-4 -8v-3q-4 -11 -9 -20.5t-11 -17.5l-1 -10q-4 -5 -7.5 -10t-6.5 -10q-13 -7 -16 -19l-6 -5q-12 -2 -15 -5l-2 -8q-8 -8 -46 -27
q-34 -17 -44 -40l-1 -16l8.5 -13.5t5.5 -9.5q4 -1 7 -1q4 0 6 -1l5 1l4 -1q11 5 18 7.5t11 4.5l4 8q30 13 38 14q5 1 15 2t26 3l4 -2q31 -3 27 -3l4 -3h8h4h22l7 -2l4 -7l13 -1q4 -2 23 -2q23 0 57 7l15 11l4 7q-2 10 -2.5 15l-0.5 5l-6.5 5t-4.5 4q-54 9 -65 26l-1 4l-5 6
q-8 24 -10 27v11q0 32 11 48l-1 8l-9 11l7 6l1 5l-6 13l13 5l4 4l2 9l-2 10l-2 3q0 5 5 18l4 5l-1 9l7 -1l-1 -5h4q42 -29 54 -68q9 -29 9 -30l17 -7l9 2l11 9q19 76 71 93q10 -34 10 -54q0 -26 4 -41l-2 -19l5 -12q3 -22 -14 -44.5t-38 -32.5l-7 -1q-14 -13 -21.5 -19
t-8.5 -7q-15 -16 -13 -36q4 -13 17 -23q8 -4 15 -4q5 2 11 4t14 4l1 4q12 9 20 17l7 1l5 5l15 5l4 -2h3l5 2q58 3 120 -12l1 6q5 1 13 -1q15 -10 28 -8q19 -6 30 -9h6l8 3q14 -3 39 2q19 7 27 19q2 5 2.5 8.5t1.5 5.5zM449 313l-9 2q-25 -7 -43 -20l-4 -1l-15.5 -17.5
l-10.5 -12.5q-49 58 -79 61q-1 5 -1.5 7l-0.5 2v2q0 3 1 8q10 10 16 38q6 29 13 37v5q10 28 11 39q10 32 18 55t16 37l6 2l7 -7l37 -109l-4 -7l3 -11l17 -19v-15q-3 -3 -5 -11q1 -3 6.5 -16.5t5.5 -20.5v-3t-1 -8l15 -8z" />
    <glyph glyph-name="B" unicode="B" horiz-adv-x="622" 
d="M602 189q-7 16 -10 20l-19 42.5t-29 36.5v6l-3 4l-8 -1l-20 13l1 4l-3 4l-8 -1l-11 6l-3 5q-5 -1 -8 -1h-5l-7 3l-3 -1q-34 10 -47 11l16 13l30 7q34 20 55 47l12 19t8 14l3.5 22.5t3.5 16.5l8 13q-8 22 -12 29q3 14 -19 47q-23 35 -37 39l-7 9l-7 -1l-8 9q-14 5 -16 8
q-5 1 -18.5 5t-19.5 4h-4l-3 -7l-7 3l2 8q-42 3 -34 3h-65q-13 0 -36 -4q-27 -5 -30 -7q-30 -5 -47.5 -7.5t-22.5 -2.5q-25 0 -29 3q-8 8 -13 14.5l-9 11.5l-37 6q-5 -5 -15 -9q-7 -19 -8 -26q2 -20 9 -26.5l15 -14.5l16 -7h4q2 -2 5.5 -5t7.5 -7q5 -17 7 -28.5t3 -16.5
l-2 -8l1 -9l3 -5q2 -11 0 -26l2 -5v-19q0 -7 -1 -12q0 -5 1.5 -18.5t1.5 -20.5l-1 -35l-4 -7l1 -38q0 -3 -3.5 -10.5t-3.5 -11.5q0 -3 2 -9t2 -9q0 -9 -3 -22l2 -12l7 -4q1 -3 1 -5v-1q0 -12 -4 -23v1l-2 3v-3l-6 -4q-3 -11 -3 -22q0 -5 1.5 -14.5t1.5 -13.5q-6 -9 -6 -15
q1 -2 2 -4.5t2 -6.5q1 -5 -19 -45l-14 -10l-2 -3q-30 -13 -38 -22l-5 -1q-9 -4 -17 -16l-10 -25l1 -15q13 -20 22 -26l25 4l8 5q7 8 11.5 14t8.5 10q10 4 27 12q13 -1 25 2h28l2 -0.5l6 -1.5l5 2q19 -6 31 -6l8 -6l11 3q8 12 14 13q1 -5 1.5 -9.5t0.5 -7.5l6 -5l10 3
q8 -1 17.5 -1.5t20.5 -2.5l3 1l11 -4q2 2 41 -3l6 2l5 -2q48 6 45 6h3t9 -1q27 6 63 26l3 9l5 -1l-1 -5q4 3 10 8.5t12.5 12.5t13 12.5t12.5 8.5l7 9l-7 12q15 5 18 9.5t6 7.5l-2 8l12 11v4l3 5l1 9q8 13 12 17l1 8l8.5 12t5.5 9zM422 184l-9 1l1 -6q-3 -8 -3 -15
q0 -11 1 -13q-3 -5 -3 -9q0 -2 0.5 -4.5l1.5 -7.5l8 -9l-10 1l-8.5 -27.5t-5.5 -19.5l-6 -5q-1 -7 -11 -15.5t-17 -8.5l-3 -3h-8q-3 -1 -7 -1q-17 0 -27 9l-5 11l-5 2l-1 11l-11 6l1 15q-9 28 -12 42l-4 2v6q1 3 1 6q0 4 -2.5 12t-2.5 12q0 5 1 15.5t1 16.5q-3 2 -6 3.5
t-5 3.5v6q2 7 6 13q-5 39 6 53v13l-6 13q-2 17 -3 33.5t-1 30.5v3t1 8l-8 7q5 6 10 8q-3 9 -1 39q1 14 2 23.5t3 14.5l-4 9v9q0 15 7 36l-3 15l4 17q7 6 12.5 11.5t9.5 10.5l15 3l4 3q4 1 6 1h2q6 0 28 -7l22 -20l13 1l-6 -10q6 -11 6 -17l3 -3l5 -12l-2 -6l1 -8l11 -14
l1 -16v-4l-5 -7l-2 -9q3 -8 2 -22l-2 -4q0 -21 -10 -41q-12 -25 -28 -32l-5 31l-9 14l-15 7q-15 1 -29.5 -11t-14.5 -27v-17q18 -12 30 -30h8l11 -6l4 1l10 -9q10 1 42 -31l8.5 -27t5.5 -19q2 -15 2.5 -27t1.5 -22z" />
    <glyph glyph-name="C" unicode="C" horiz-adv-x="613" 
d="M646 -77v20l-9 16q-8 5 -12 7l-4 2q-8 -3 -17 -2q-10 -8 -24 -10l-8 1q-3 5 -6 8l-5 5q-13 22 -23 66l-3 1l-3 -4v6q-1 3 -1 6v4l3 6q-6 7 -4 39l-6 5l3 7q-3 9 -2 17l-5 5v9l7 4q-1 2 -1 3v2q0 11 1 12l-5 12l7 7l-7 -2q1 5 1 8q0 4 1 6l-4 12q0 5 6 19q0 6 1 16.5
t1 16.5q0 32 -8 46l-11 8l-5 -1l-11 2q-17 -8 -27 -29l-2 -29l4 -5v-7l-7 -7l-2 -9l1 -6q-2 -12 -5 -16q-1 -5 -1 -8v-2q0 -18 -1 -19l-5 -6l-1 -3l1 -6l-1.5 -6t-4.5 -19q-4 -14 -9 -22v-4q-23 -35 -31 -42l-10.5 -7t-8.5 -5l-9 -1q-5 -2 -8.5 -4t-5.5 -3h-16l-6 -3
q-4 -1 -14.5 2.5t-14.5 3.5h-2t-6 -1l-18 13t-14 11l-8.5 17t-5.5 12l-6 3q1 5 -7 36q-9 34 -9 38q5 17 6 25q-5 4 -7 9q-2 7 3 30l-5 14q1 5 1 8v3v24l-5 1l-1 3q1 8 2 14t2 10l-1 4q-3 3 -9 5q-1 8 -1.5 14.5t0.5 10.5l-2 5q1 4 2 7t3 7l-2 8q6 15 6 21l-5 12q2 8 3 14.5
t2 11.5l-1 7q2 2 9 32q8 33 7 35q12 30 15 41q4 4 18 25q11 17 38 31l6 1l4 3l18 5q4 -1 10 -1.5t16 0.5q27 -10 32 -15h7q13 -11 19 -15q30 -36 27 -57l7 -5l3 -6v-10l5 -9l-3 -5q3 -13 6 -17l-4 -10q7 -22 9 -35q-2 -16 -3.5 -22t-1.5 -4v-5q0 -4 1 -12q2 -4 4 -7.5
t4 -7.5q9 -9 18 -12q18 1 35 14q11 17 11 35q0 7 -3 20.5t-3 20.5q0 6 3 11q0 7 -2.5 18t-2.5 15q1 -5 1 5v37l-0.5 2t-1.5 7l4 7q-2 29 24 49v5l5 2l4 9v-4l5 27l-2 11q-3 7 -15 13h-6q-4 0 -12 -1q-15 -8 -36 -29l-2 -4l-10 -8h-6q-39 25 -68 30q-34 6 -38 9h-19l-4 2
q-50 -3 -76 -3l-7 -3h-6q-26 -10 -43 -13q-11 -5 -19 -9t-13 -8v-5l-17 -8l-3 -4q-6 0 -16 -6q-25 -32 -37 -39q-4 -9 -11 -18l-13 -1q-3 -2 -8 -16q4 -25 -22 -68l-1 -10l-4 -6q0 -5 -3.5 -15t-2.5 -16l-15 -47q-13 -18 -19 -24q4 -8 7 -15.5t5 -13.5q1 -7 2 -12t3 -9
q-1 -6 -1 -11q0 -4 -1 -7l6 -7q-2 -8 1 -17l-4 -16l15 -13l4 -8t3 -9q-1 -7 -1 -12t-1 -8q3 -11 2 -15q2 -3 5.5 -10t7.5 -18q8 -20 20 -28l4 -1l1 -12q3 -3 8 -15q10 -8 16.5 -14.5l11.5 -11.5q0 -9 4 -16q26 -27 40 -28q4 -3 7 -5.5t6 -4.5h6q27 -14 43 -13q10 -10 35 -10
q6 0 16 1t24 3l14 -5q8 5 15 5h2t7 -1l14 6l9 -4q23 10 31 10v5l6 3l4 -3l12 9l1 5l5 -1q13 9 15 9l2 3l21 15l12 -45q7 -26 18 -42v-4q11 -21 15 -32q6 -7 11 -9l15 -16q8 -4 13 -7t9 -5q15 -5 19 -6h18l5 3h6l10 5l3 4l-3 6l5 -1l4 2q13 22 13 25z" />
    <glyph glyph-name="D" unicode="D" horiz-adv-x="665" 
d="M645 337l-7 5q-2 5 -3 9.5t-2 7.5l-7 -1q-13 33 -13 63q-1 3 -6 8q0 32 -6 47l-7 7q-6 32 -32 67q-22 28 -22 30h-7q-5 6 -6 12q-20 13 -22 15l-7 -3h-4l-1 6l1 4q-4 2 -7.5 4t-7.5 4l3 -1q-55 34 -105 34q-14 0 -24.5 -0.5t-17.5 -1.5l-6 3l-7 -3q-20 2 -31 -4
q-5 1 -42 -6q-38 -8 -40 -10q-2 0 -7.5 -1t-12 -2.5t-12 -3t-7.5 -1.5q-4 0 -7 1h-8l-6 4l-13 3l-2 4q-8 8 -14.5 13.5t-10.5 9.5q-11 3 -25 3q-2 -1 -5 -1.5t-5 -1.5l-15 -10l-6 -13q1 -5 -2 -12l1 -9q8 -17 19 -26l15 -6.5t9 -4.5l6 3l2 -6l-1 -5l7 -5q11 -20 12 -55
q1 -34 8 -49q-4 -26 -6.5 -44.5t-3.5 -31.5q3 -8 8 -15l-1 -4l-5 -1q-3 -7 -2 -18l-2 -5v-4q0 -54 -9 -76l4.5 -4.5t5.5 -6.5q2 -11 -5 -26l1 -7q3 1 10 -1l-9 -4q-4 -7 -4 -20l2 -4q1 -7 -3 -31q-5 -25 -7 -28q1 -4 -1 -10l2 -7l7 -6l-13 1q-14 -20 -22 -28q-17 -6 -30 -17
l-5 -1l-1 -4q-5 -2 -10 -5l-20 -27q-1 -9 -3 -14l2 -15l12 -15q11 -6 16 -8h19q8 4 11 5l10 11l-1 4l-4 2l2 3h10q17 13 33 14q23 1 28 3l16 -4l4 1l13 -3l4 -4q16 -1 27 -2t19 -3q6 -2 10 -2l8 -5q10 1 28 -2l4 2q6 0 11 -3l6 1l6 -3q7 2 21 -1l11 8v-7l5 -4l11 1l8 4
q30 -3 96 17l4 5l6 3l4 5q8 4 12 5l6 6q3 1 5 1q3 0 5 1l7 11q5 2 9.5 2.5t6.5 1.5q5 10 24 32q8 10 14 19.5t11 18.5v4l5 3l2 11l10 7q8 17 13 29l-3 7q3 4 5.5 6.5l4.5 4.5l-1 7q7 18 11 30.5t6 20.5q2 9 3 10q0 10 8 40q7 28 14 38zM457 294q-5 -10 -6 -13
q9 -63 -13 -125q3 -10 -2 -30q-5 -3 -10 -5l-7 -20l-7 -7t-5 -7l-2 -13q-16 -18 -25 -24q-15 -7 -31 -7q-3 0 -5 1h-6q-8 6 -12 6q-19 16 -27 29q-1 7 -3 12.5l-4 10.5q2 30 -4 43l-7 7q-1 6 -1 9v3q0 5 1 10v11l-3 6q1 5 3 9l4 8q0 1 -0.5 2.5t-1 6.5t-1 14.5t-0.5 26.5
q-2 7 -9 12q1 8 -4 20q1 3 1 4v2v2q0 3 -1 8l4 13q-2 6 0 66q1 18 1 28t1 12q-4 5 -4 24q0 3 2.5 10t2.5 10t-1 10t-1 10q0 2 0.5 7.5t1.5 13.5q1 7 1.5 12t0.5 9v1q0 2 -1 5l5 10q-4 24 25 50q6 -2 15 3q46 -8 56 -16q20 -15 21 -19q7 -3 11 -9l1 -6q5 -4 16 -27l2 -16
q1 -3 8 -8q4 -8 3 -30q5 -15 9 -19q0 -6 3 -10q1 3 1 -39l2 -4q0 5 0.5 -6.5t1.5 -40.5l-6 -9q0 -5 3 -15.5t3 -16.5v-15z" />
    <glyph glyph-name="E" unicode="E" horiz-adv-x="600" 
d="M643 -79v16l-7 17l-3 3l-35 13h-17q-12 12 -13 31l-4 4l-6 -2q-7 51 -15 85l2 26l2 4q-6 43 -6 38l2 5q-1 7 -3 32q-2 19 -9 35l-4 4l-8 2l-4 3l-16 -4q-6 -6 -11 -7q-4 -10 -11 -41q-3 -13 -6 -23t-7 -17q-3 -2 -8 -7q-3 -20 -7 -26q-12 -10 -18 -19l-1 -8
q-8 -8 -13.5 -14t-9.5 -10l-5 -1l-7 -6q-5 -1 -12 -1l-6 -6q-18 -8 -29 -8h-7l-4 2l-6 -1l-35 15q-12 7 -15 10q-35 43 -40 96l-4 5q-2 5 -2.5 9.5t-1.5 7.5h-5l5 26l-5 5v15q0 10 1 24l-5 6q-1 8 -1 11v4q0 13 3 22l3 -6l9 -1l4 2q46 0 50 2l54 -3q24 -3 49 -24
q0 -15 3 -22l-1 -5q13 -14 24 -18l15 6l10 13q3 12 4.5 22.5t2.5 18.5l-10 9q-2 15 -6 31l7 5q-6 49 -6 47v7q4 3 7.5 14t5.5 21v12l-6 11l-10 5q-5 -1 -8 -1t-5 -1l-25 -25t-18 -20l-9 -2l6 8l-11 -7h-21l-5 -4l-2 5q-10 -1 -15 -1h-5q-91 0 -97 -2l-6 6l5 11l8 4
q-1 2 1 25l-6 7l4 7q0 2 6 23l-3 10l4 1l9 30q6 16 11 27t9 18l8 4q7 10 13 16q14 8 28.5 14t28.5 8l10 -4l5 6q8 -1 17 -1.5t19 -0.5q16 -6 22 -10l3 -5q8 -2 13 -4t9 -3l10.5 -14t6.5 -11l1 -16l10 -4q-4 -9 -1 -20l3 -4q8 -24 9 -37q-1 -8 4 -24q6 -5 8 -10q7 -4 17 -4
t18 9l9 19v22l-4 6l4 8q2 69 25 107l-3 8l12 9l9 16l1 16l-4 9l-4 3q-13 1 -19 3l-11 -4q-5 -7 -11 -8q-5 -4 -15 -20q-7 -10 -20 -18q-5 -1 -8 -1h-2h-3q-19 15 -49 23l-2 5q-2 1 -3 1h-1q-5 0 -7 -1q-41 12 -75 12t-102 -16l-4 -4l-12 -2q-26 -16 -37 -20l-6 -1
q-8 -6 -15 -12t-15 -11q-17 -14 -21 -30l-4 -4l-12 -4q-3 -12 -12 -24q1 -1 -4 -15q-5 -2 -8 -4t-5 -4l2 -5l-14 -29v-6q-12 -23 -11 -41q-4 -6 -9 -17l-10.5 -23l-11 -23.5t-11.5 -19.5l-1 -7q8 -11 9 -17l6 -5q4 -30 17 -54l-2 -9q5 -25 8 -37.5l3 -12.5q-4 -13 2 -24
l5 -6q4 -19 19 -44l6 -4h3l1 -6l-2 -7l11 -5l4 -11l-2 -7l2 -6q4 -4 8.5 -9l9.5 -11l9 5l2 -18l25 -14.5t19 -13.5q34 -18 54 -24l6 1l4 -2q11 -2 18.5 -4t12.5 -4q14 -2 24 -2.5t17 -1.5h6q3 1 6 1h27t14 1q4 4 14 4h1q2 0 5 -1q3 1 42 18q30 14 37 30h6t14 -1
q7 -32 12 -48v-3l3 -4q0 -17 12 -39l12 -18t11 -18l5 -2q21 -16 32 -20q6 1 11 1t10 1l5 -2q6 1 12 7q1 3 -1 9l7 -6l8 2q9 7 13 22z" />
    <glyph glyph-name="F" unicode="F" horiz-adv-x="572" 
d="M552 391q0 3 -1 10t-1 11q-3 4 -6 7l-6 6q-16 5 -19 4q-2 6 -2 40v3t1 9l-2 4q8 35 9 52q-5 7 -5 10l7 14l2 48q-2 11 -4 20t-3 16q-5 5 -24 11q-8 -5 -12 -12q-5 -2 -15 -4t-26 -4q-33 -3 -39 -2l-5 -2q5 -1 -44 -1h-3t-9 1l-14 -9v5l-9 6q-4 0 -11 -1t-10 -1
q-9 0 -27.5 1t-27.5 1q-2 0 -7 -1.5t-7 -1.5q-7 0 -23.5 3t-23.5 3q-3 0 -9 0.5t-12.5 1.5t-12.5 1h-8l-10 6q-3 4 -6.5 8l-7.5 9l-12 6q-11 1 -16 1.5l-5 0.5h-7l-15 -7l-12 -15l-1.5 -6l-0.5 -2q0 -19 8 -30q4 -6 14 -9h9l4 -3l1 -4q5 -2 10 -3t11 -2q12 -26 15 -39
q3 -9 -5 -20l6 -7q-1 -7 -0.5 -15.5t1.5 -19.5q1 -13 1 -21v-13q0 -8 -1 -26t-1 -28l2 -4l-1 -5l2 -5q-4 -9 -4 -22q0 -21 -6 -28q-1 -5 1 -11l5 -5q-3 -14 -3 -22l2 -5q0 2 0.5 -2l1.5 -12q-4 -5 -4 -51q0 -18 3 -25l-3 -4l-2 -13l4 -12l-16 -64q-11 -20 -28 -29.5
t-23 -16.5q-8 -4 -13.5 -7t-9.5 -5l-2 -4q-22 -13 -22 -48v-7l6 -10l10 -8q5 -1 11 -1.5t14 -2.5l23 18l5 12q7 2 11 5t6 5q8 -1 22.5 1.5t20.5 2.5q14 0 31 -3q6 2 11 4q13 -1 20 -7q12 2 44 -3q2 0 7 -2t8 -2q9 0 16.5 -0.5t14.5 -1.5l5 -3q20 -2 34.5 -4t24.5 -4
q9 3 22 2l4 2q19 4 32 7t21 7q9 8 15 14.5t10 11.5q8 27 8 23q0 23 -10 34q-8 4 -12.5 6.5t-6.5 3.5h-7q-15 0 -28 -12q-2 -7 -6 -14q1 -4 -3 -17l-6 2l-27 -11l-9 2q-1 3 -8 8l-5 -2l-5 14l-7 3l-14 14q-4 12 -10 20l-2 15l2 6l-3 6l-10 6q-2 5 -3 8.5t-2 7.5q0 10 1 13
l5 5l1 5q-2 8 -3 12.5l-1 4.5v4t1 12q-6 22 -6 37q4 7 4 15v7l-7 7q-1 7 -1 10v3v1q0 2 1 4q12 4 59 4q11 0 29 -3q26 -15 26 -33q0 -5 -2.5 -15t-2.5 -16l2 -7l10 -10l12 -5h6q13 1 22 21q8 18 8 31q0 9 -6 29l-6 8q3 12 -2 28l3 7q-3 19 12 65q1 1 -5 29q-8 8 -17 8
q-13 0 -19 -7q-3 -3 -5.5 -6.5t-6.5 -7.5t-11 -9.5t-19 -12.5h-7l-6 -4l-8 2q-16 -2 -26.5 -3t-16.5 -1h-5t-8 1h-13q-4 5 -2 52q0 18 1 19l-2 5q0 2 -1 6t-1 6q0 5 6 35q7 31 9 34l8 6l3 10q30 17 42 20q29 4 68 -19l9.5 -11.5l8.5 -10.5l5 -1q5 -13 10 -22t10 -15
q6 -23 9 -27q5 -38 9 -53q2 -11 4 -20t4 -16q3 -5 5.5 -8.5t4.5 -5.5q13 -13 31 -13q9 0 27 8q3 7 9 13q1 5 1 7v2z" />
    <glyph glyph-name="G" unicode="G" horiz-adv-x="610" 
d="M590 199q-13 18 -14 25v19q-7 19 -8 27l-4 1v8l2 5l-6 10l-1 9q-8 5 -11 21l-10 13v8l-23 7l-2 6l-6 5l-3 6q-5 4 -32 15q-26 11 -32 12l-8 -2l-13 4l-5 -2l-9 1l-29 -8l-11 2q-44 -20 -67 -41q-5 -5 -7.5 -7l-2.5 -2q-7 -14 -11 -24l-6 -15q1 -4 -1 -13t-2 -12
q0 -4 2.5 -12t1.5 -13q7 -8 11.5 -14.5t8.5 -11.5q8 -2 13.5 -4t9.5 -3q17 2 32 10q7 6 10 16l-1 10l4 13l-11 18q-13 4 -16 11q-2 10 4 24q5 5 15 10q19 -6 22 -6l14 -12l10 -20l10 -18l2 -13l5 -8l-4 -3q1 3 1 -8q1 -16 0.5 -27t-1.5 -18l5 -11l-3 -10l-5 -6l-2 -8l4 -4
q-11 -38 -15 -63l-12 -27q-8 -8 -14 -21q-24 -11 -39 -15l-5 2l-5 -1l-5 1l-4 -1q-8 5 -16.5 9t-18.5 8q-9 14 -16.5 24.5l-12.5 17.5q-2 5 -2.5 8t-1.5 5l-4 2q0 5 -1 12.5t-3 15t-3.5 14.5t-1.5 11q0 11 1 13q-1 3 -2 7t-2 9q4 5 4 23q0 38 -5 56l-5 7h-5q-2 10 -2.5 15
l-0.5 5q0 75 6 98l-1 5q4 17 4 30l-3 15l10 12q0 19 5 39l-3 9q9 12 18 39l6 3l1 15q22 14 43 33q1 1 5 3q13 2 22.5 4t16.5 4l3 4l14 -2q3 -2 16 -5.5t20 -9.5l7.5 -9t6.5 -7q1 -5 9 -13v-6l2 -5l11 -13l9 -11q-1 -12 2 -20q-2 -6 -1 -11q14 -38 17 -59l10 -8l19 -1l7 5
l5.5 9.5t4.5 6.5l1 17q0 3 -1 4l3 4q-1 6 2 16.5t3 15.5q-1 2 -1 3t-1 3q3 9 1 17l-7 11q10 31 11 45l24 42l3 16l-3 11l-30 10q-15 -4 -23 -16l-16 -24l-10 -4q-7 1 -12 1q-4 0 -6 1q-30 26 -88 33q-15 0 -19 -1q-14 1 -21 1h-8q-3 1 -9 1q-13 0 -43 -9q-32 -8 -36 -7
l-4 -5q-12 -5 -27 -21l-13 -2l-20 -16t-14 -12q-5 0 -9 -4l-3 -4l-1 -5l-13 -11l-2 -5l-5 -4q0 -7 -16 -32q-15 -26 -19 -27l1 -8q-1 -4 -3 -10.5t-7 -14.5q1 -5 0.5 -9.5t-1.5 -7.5h-4q-4 -9 -4 -17l-8 -13q0 -7 -27 -52q1 -11 7 -20q0 -6 6 -45q6 -37 8 -43l6 -4l3 -5
l-5 -11q1 -13 3 -19q4 -14 5.5 -20.5l1.5 -6.5q1 -5 9 -15q5 -8 6 -20q4 -6 11 -18t17 -31q8 -16 16 -28t15 -21h9q6 -15 23 -26.5l33 -21.5h4q4 -5 12 -6h5l3 -4q3 0 8.5 -1.5t12 -3t11.5 -3t7 -1.5q14 0 22 3l11 -6l14 -1l4 2q6 1 30 -3l5 1l5 -1l3 5h8q4 1 8 1l5 -0.5
l15 -1.5q4 2 6.5 3t4.5 2l9 1l4 2h5q14 5 32 14.5t40 23.5l4 8l6 -2q10 8 17 15.5l12 12.5l2 10q12 7 25 31q1 10 4 14v13q2 2 3 4l2 4l4 2q0 4 5 12q3 34 18 43z" />
    <glyph glyph-name="H" unicode="H" horiz-adv-x="637" 
d="M617 -68l-3 23q-7 19 -25 27q-8 -1 -14 -1t-10 -1q-10 -7 -16 -7q-8 -17 -10 -27q1 -5 1 -9v-7l9 -11l-4 -7l-7 -2l-11 4l5 -3q-20 12 -27 21q-5 15 -9 19q-1 60 13 83q14 19 19 35q7 6 30 53v4l7 12l-1 7l-6 3q7 7 20 48l11 34q4 11 4 88q0 2 1 6.5t1 6.5q0 37 -15 54
q1 6 -2 13l-12 13.5t-9 9.5l1 8q-17 32 -42 47l-3 7q-5 1 -11 7q-10 2 -17 4t-12 4l-6 -1q-11 4 -19 6t-13 4l-4 -1q-12 3 -25 3q-5 0 -16 -3t-17 -3q-12 -4 -21 -6.5l-16 -4.5q-17 -6 -36 -24q-8 -8 -15 -16t-15 -16l-2 -9l-5 3l2 5l-3 11l5 49q-3 6 -3 14q0 13 13 53l9 9
q14 8 69 8q6 0 17 -1.5t16 -1.5q14 0 20 3l13 -3l12 3l1 11q18 3 28 3l3 4l11 -2l32 9q19 13 21 15l8 11q0 2 0.5 5t1.5 8q1 4 1.5 7t0.5 6q0 8 -5 21q-7 4 -12 6t-9 4q-15 2 -26 -6l-12 -13q-4 -16 -9 -19l-9 -1l-12 -6q-12 0 -27 -4q-20 -4 -26 -6l-7 -6l-8 1l-7 5
q-5 1 -14 -1t-13 -2h-28l-5 4l-38 -3l-4 -6l-1 6q-5 1 -13 1l-5 2q-9 -4 -29 -4q-19 0 -27 5l-10 1l-4 -3q-10 1 -49 3q-15 1 -27 3t-22 4l-16 -2l-14 -10q-4 -5 -5 -21l1 -4q5 -3 8 -11q13 -5 22 -9.5t16 -7.5q19 -15 19 -44l-0.5 -4.5t-1.5 -12.5l4 -9q-5 -11 -6 -16
q2 -11 2.5 -16.5l0.5 -5.5v-2q0 -1 -1 -4l-4 -3l-1 -7l1 -4q3 -5 6 -6l9 2l-9 -11v-15q0 -6 1 -10l-2 -5l3 -6l-2 -5v-77q0 -3 -2.5 -9t-2.5 -8l-3 -31q-2 -12 6 -24q-3 -14 -3 -22l2 -7q-2 -11 -3 -19.5t-2 -14.5q2 -7 4 -12.5t3 -9.5l-7 -11l-1 -6l-6 -3v-29
q-4 -10 -6.5 -17.5t-4.5 -12.5l-11 -7l-3 -5q-12 -5 -21 -13q-3 0 -15 -5l-16 -15.5t-13 -21.5q1 -2 -2 -12l3 -13q2 -6 20 -17h15l11 6l4 8l7 5q4 8 14 11.5t19 7.5h25q6 1 106 -12l7 5l20 -5q19 -5 21 -6q8 1 13 1h9q13 -5 28 -1l4 -4l7 6q21 3 27 7q4 6 6.5 10.5t4.5 7.5
l-3 16l-7 8q-3 1 -9.5 2.5t-14 2.5t-14.5 3t-11 5l-7 -2q-31 16 -42 83l-7 3q10 17 10 33q0 7 -1 10l-4 4h-3v10l-4 3q-1 5 -1 7v2q0 14 5 22v13l4 9q0 5 -1.5 14t-1.5 13q0 34 6 45l-1 10q7 16 12 25l-1 4l5 5l-3 6q2 2 5 4.5t6 5.5q6 2 9 5l5 12l12 9l6 -1l2 4q13 1 20 8
q7 1 10 1h3h3t10 -1l6 -4h4l1 -6l10 -2l4 -4l7 -16v-4l8 -6q5 -13 5 -46l3 -6l4 -2q-3 -4 -5 -6t-3 -4q2 -23 0 -35l-6 -9l3 -11q-3 -12 -1 -20q-4 -9 -4 -24q0 -23 11 -31l4 -1q-2 -9 -3 -15.5t-2 -10.5l4 -6l-6 -9l4 -8l-7 -8q-6 -42 -3 -51q-1 -3 -1 -7q0 -3 -1 -8l4 -8
l-4 -10q7 -22 8 -42q0 -5 4 -22q4 -19 3 -22l6 -3l2 -12l5 -7q1 -5 2 -9.5t2 -6.5q43 -55 102 -55q44 0 69 49q-2 5 3 19z" />
    <glyph glyph-name="I" unicode="I" horiz-adv-x="406" 
d="M400 19l-1 8l-6 11l-7 6q-28 5 -40 6l-8 8l-11 1l-5 7l-5 2q-19 31 -20 68l-6 7l3 10q-2 8 -1 12l-2 5q6 19 6 29v6l-7 10l-1.5 16.5t-0.5 4.5q0 26 7 47q-7 8 -7 18q0 8 2 16q-1 5 -1.5 24t-0.5 53q0 22 4 29l1 27v5l-4 6l1 33l-4 8l-8 2l14 15q8 37 11 40l-4 1
q12 13 12 15q28 22 44 26q18 18 23 33q-1 10 -7.5 16l-12.5 12q-29 0 -37 -4q-26 -24 -58 -24q-10 0 -28.5 -2t-28.5 -2q-9 0 -22.5 1.5l-32.5 3.5l-31.5 3.5t-22.5 1.5q-27 0 -39 -14v-14l7 -4q6 -5 12 -18l7 -2l5 -5q6 -1 14 -7q1 -6 10 -11q0 -2 1 -7t2.5 -11t2.5 -12
t1 -9q0 -5 -0.5 -11t-1.5 -11l5 -6q1 -4 -1 -12t-2 -11q0 -22 3 -29l-3 -4q0 -3 -1.5 -8t-1.5 -7v-35l7 -9l-8 -14l6 -9q1 -6 0.5 -16.5t-1.5 -25.5l-2 -5l2 -7l5 -4l-4 -5q-2 -21 -7 -30q0 -3 1.5 -9t1.5 -9t-0.5 -6t-1.5 -7l-3 -4l-1 -6l5 -6q-3 -32 -3 -33
q0 -75 -27 -105q-7 -5 -12.5 -8t-9.5 -5l-26 -16l1 -4l-5 -2h-5q-5 -8 -10 -9q-13 -13 -13 -34q0 -3 1 -5v-7q4 -8 11 -14q14 -8 27 -8q9 2 22 11l7.5 9.5t8.5 9.5q17 5 30.5 7t21.5 3q6 0 10 -4h5l12 7q10 -4 17 -6.5t12 -4.5q75 -9 70 -9q16 0 26 5l2 -7q6 0 17 1.5
t16 1.5q4 0 13 -2t14 -2q23 0 40 10l7 10z" />
    <glyph glyph-name="J" unicode="J" horiz-adv-x="544" 
d="M537 627q0 17 -3 25l-12 9q-9 4 -27 4l-16 -7l-11 -14q-16 -10 -49 -13q-13 -1 -26 -1.5t-26 -1.5l-4 2q-18 -6 -41 -1l-5 -2q-3 1 -54 1l-8 7l-10 -4q-49 4 -54 8l-14 17t-10 11q-29 6 -38 9q-17 -11 -21 -15.5t-8 -10.5q-1 -8 -1 -12v-4q0 -14 11.5 -27t25.5 -17l1 4
q15 -5 19 -4l2 -5h6q3 -1 6 -1h18l5 2q7 -2 10.5 -2.5l3.5 -0.5h2q3 0 8 1l7 -3q8 3 15 2l6 -3l4 1q15 -8 22 -9l5 -10l3 -1l11 -18q1 -6 1.5 -10t0.5 -6q0 -8 -1 -13q0 -5 4 -9q1 -7 1.5 -10l0.5 -3q0 -3 -1 -10t-1 -11l5 -9q0 -6 -6 -16q1 -8 3 -14.5l4 -12.5q-1 -5 -1 -8
t-1 -5l1 -4l-2 -5v-11l-6 -4v-8q0 -16 5 -23q1 -11 1.5 -16l0.5 -5v-2q0 -1 -1 -4l3 -14q-3 -26 -4.5 -45t-0.5 -32l2 -10q-2 -8 -2.5 -12l-0.5 -4q0 -4 -1 -11.5t-1 -10.5v-4l8 -13v-9q-11 -17 -11 -28l4 -6l-3 -4q-2 -8 -2.5 -12l-0.5 -4q0 -9 1 -14l-6 -11l-5 -1
q-3 -5 -7 -11l-9 -13l-14 -8q-3 0 -9 -2t-9 -2q-20 0 -41 7l-3 4l-5 2l-5 9l-4 1l-1 5l-7 5q-8 30 -8 53l0.5 4.5l1.5 13.5l-2 6l1 7l5 9q0 17 12 29q0 11 -3 20l9 3q4 5 6 20t6 22l7 6q-1 5 -1 7v2v16l-5 6l10 16q1 8 1 11v4q0 1 -3 9t-5 14.5t-4 11.5v6l-7 11l-9 3l-6 7
q-14 5 -18 10q-8 3 -20 3q-2 0 -8 -1t-9 -1q-20 -5 -25 -20l-3 -10.5l-1 -3.5q0 -8 2 -18l6 -9l16 -8h12l10 -18q-8 -10 -15.5 -16.5l-12.5 -10.5q-24 -4 -35 -24q-11 -3 -27 -30q-5 -10 -11 -19.5l-12 -19.5q-3 -31 -5 -35q-1 3 -1 -36q0 -20 20 -55q19 -34 37 -42v-4l4 2
l-1 -4l10.5 -3.5t6.5 -2.5l1 -5q33 -3 42 -14q17 -3 31 -6t25 -5q29 -1 45.5 -1.5t20.5 -0.5l4.5 0.5t14.5 1.5l2 6l4 2l2 -6q46 1 63 11l9 -1l4 2l4 -1q20 11 43 17l5 4q4 -1 10 1l13 9l9 2l7 -2l8 8l5 -2h4l9 7q2 -1 29 7l9 9l3 8q-1 7 -1.5 11.5t-0.5 7.5q-19 14 -32 21
q-11 27 -11 26v9l4 10l-2 7l-6 7q-4 22 -6 35q-5 1 -6 6q4 8 2 39q-1 23 -1.5 33.5t-0.5 8.5l1 6t3 19l-4 5l-1 13l3 12q-7 15 -7 63l0.5 7l1.5 21l-6 4l6 4q0 3 1 8.5t1 7.5q0 86 13 111q20 27 51 28l5 5l5 1q9 12 9 23z" />
    <glyph glyph-name="K" unicode="K" horiz-adv-x="655" 
d="M646 -119q18 36 18 53v2q0 1 -1 3l1 5q-4 8 -6 13t-3 7q-9 6 -15 9q-30 4 -43 -9q-10 -17 -10 -32q4 -8 6 -14.5t4 -11.5q-1 -6 -7 -10h-15l-15 11q-5 7 -8 15v4l-4 3q1 5 -1 13t-2 12q0 -2 7 36l3 5q8 34 15 49l3.5 33t1.5 24l6 9q-1 8 -1.5 16t-0.5 15q0 4 1 14.5
t1 15.5q-6 10 -6 18v3t1 9q-14 46 -24 51v5q-15 7 -25 30l-24.5 14.5l-17.5 10.5l-4 -2l-18 14q-43 7 -46 9l6 4q6 0 47 6l4 4t6 4l2 4q37 18 54 68q-1 8 -1 13q0 6 -1 10q10 12 12 35l-3 11q2 9 4 12q-2 19 -3 32.5t-2 22.5l4 12q-3 10 4 26q9 10 15.5 16.5l11.5 11.5
q1 4 1 5v2v8l-2 4q-15 9 -40 11q-10 -2 -17 -3t-12 -2q-11 -5 -20 -8.5t-15 -5.5l-4 -5q-13 -3 -28 -25l-4 -2l-14 -33t-6 -14h4q-2 -4 -4 -8.5t-3 -11.5l-4 -2q-2 -8 -4 -14t-3 -10q0 -1 0.5 -4.5t1.5 -11.5l-4 -8q8 -37 -7 -76q-5 -11 -6 -15q-22 -34 -62 -34q-25 0 -43 6
l-3 4l-4 2q0 5 -5 15q2 6 0 17q-3 12 -3 16q0 2 0.5 4l1.5 6l-2 5v7l-4 2l1 8l6 6l2 29l2 30q4 42 19 52q4 3 21 9q12 4 19 11l7 2l-2 5l10 14l5 -2l8 4l3 9q-1 5 -1.5 9.5t0.5 9.5l-4 3q-6 6 -11 10t-9 6l-12 -1q-2 -1 -10.5 -6t-25.5 -16q-19 -12 -41 -13l-5 2
q-26 -3 -39 -3l-10 4q-8 -2 -12 -2.5l-4 -0.5q-7 0 -21.5 2.5t-21.5 2.5h-2q-1 0 -3 -1l-14 4l-5 -1l-4 3h-12q-5 3 -16 3h-4q-5 -2 -8.5 -3t-5.5 -2l-6.5 -5t-4.5 -4q-7 -8 -8 -18q0 -8 6 -15l7.5 -7.5l3.5 -3.5l17 -7q5 1 12.5 -3t10.5 -4l12 -12q9 -21 6 -40l4 -7
q-2 -10 -3 -16.5t-2 -10.5q0 -8 5 -18q0 1 -1.5 -12t-3.5 -41q-3 -5 -6 -12v-3l9 -23q-1 -13 -1.5 -22t-0.5 -15l8 -1l4 -3q-3 -1 -12 -8v-9l5 -5l-6 -9q-1 -14 -1.5 -24t-0.5 -17l-4 -3v-10q-1 -5 -1 -10v-2q0 -1 1 -5l7 -11q-4 -12 -6 -19t-3 -9q3 -13 6 -19
q-2 -8 -4 -14.5t-3 -10.5v-6q-9 -36 -27 -62l-9 -2q-13 -7 -24 -20l-5 -2l-9 1l-3 -4l-8 -5q-4 -9 -13 -18q-4 -15 -4 -25q0 -6 1 -8l11 -17l10 -2t10 -3q16 2 35 19q20 19 35 20q11 1 19 1.5t13 0.5h3q2 -1 4 -1h4q5 0 13 1l11 -4l8 2q6 -3 17 -4t17 -5l12 -2q1 3 5 9
q27 -11 28 -14l10 -3l4 5l5 -1l6 3l7 -3l-1 -3l9 -2l7 2l14 -2l7 2q7 -3 19 -3l4 3h8q8 5 12 5q8 6 12 11q3 9 3 13v3l-6 11l-14 10q-52 6 -66 16q-12 11 -17 28q0 6 -1 16.5t-1 15.5q0 3 2 9l-3 22l-8 1q-2 8 -3 11q0 51 1 82.5t3 44.5l3 4l10 4q10 -2 14.5 -2.5l4.5 -0.5
q6 0 18.5 1.5t18.5 1.5q14 0 40 -17q2 -5 4 -9t3 -8l5 11l3 -8v-7h-4q9 -16 12 -26q0 -3 2.5 -13t2.5 -14q0 -7 -1.5 -21t-1.5 -21l-2 -5l6 -11l-8 -12q1 -5 -6 -24q-6 -20 -6 -26t20 -38l-1 -11l2 -4l-3 -9q2 -13 2.5 -24.5t-0.5 -22.5l4 -4q5 -11 3 -19q10 -24 12 -35
l9 -4l5 -11l9 -4l3 -8q6 -1 13 -10l1 -6q33 -17 50 -28l11 3l5 -1l8 -6l2 -4q23 -3 34 6h6q15 6 29 12.5t28 19.5z" />
    <glyph glyph-name="L" unicode="L" horiz-adv-x="546" 
d="M533 332q0 10 -7 25q-8 9 -25 14l-5 -2q-8 3 -12 2l-2 -5q-6 0 -9 1q-11 -5 -17 -6v-4l-9 -3l-3 -6q-6 -3 -10 -10l-6 -3l-1 -8l-10 -1q-3 -7 -3 -12q0 -4 -7 -19q-5 -12 -5 -20l-4 -7l-1 -7q-13 -18 -11 -32l-4 -4q-1 -3 -5 -11v-5l3 -5l-4 -10l3 -9v-9l-5 -5l-1 -12
l-5 -3q-1 -5 -1 -7v-2v-4l4 -6q-2 -6 -4.5 -12.5t-5.5 -13.5q0 -48 -34 -57q1 0 -27 6v5q-9 2 -22 16q-15 30 -15 50q0 24 -3 32l-3 1l-2 6q2 2 3.5 5.5t3.5 7.5l1 18l-8 3v3l3 4q-1 4 -3 14q1 4 1.5 7.5t-0.5 8.5l-3 3q2 14 -3 29q4 11 1 22l-3 6v7v12l3 8l-3 4l4 19
q-4 19 -4 16t1 2t3 18l-4 16l2 6l-1 9l4 4q-4 7 -4 35q0 47 4 52q0 29 6 47l11.5 11.5t8.5 7.5q14 2 26.5 3t23.5 1l19 9h9l7 -5q18 1 27 3l3 3l8 -1l5 5q10 2 22 15t14 24q3 13 -8 25l-12 9q-1 0 -7.5 0.5t-17.5 1.5q-23 -13 -33 -23q-26 -15 -80 -15h-35t-6 1l-4 -2h-7
l-4 -2l-4 -2l4 -3q-5 -1 -8 -1h-3h-5l-9 6q-3 0 -12 1.5t-13 1.5h-2q-1 0 -3 -1q-28 5 -35 2q-1 1 -3 1q-25 0 -26 -1q-37 5 -55 6q-5 -2 -9.5 -4t-7.5 -4l-7 -10l-2 -8l2 -13q8 -7 14 -11.5t9 -6.5q4 1 21 -4q8 -5 16 -17q5 -22 5 -36v-21q0 -5 1 -1q0 -2 -1.5 -7t-1.5 -8
q0 -5 1.5 -16.5t1.5 -16.5v-19q-1 -7 -1 -12v-8q0 -1 -2.5 -7.5t-2.5 -8.5q0 -4 2.5 -10t2.5 -9q0 -8 -1 -10q3 -14 3 -25q0 -2 -1 -5v-5l9 -3l-3 -6l-6 -4q1 -5 -5 -26q2 -11 4 -19.5t4 -13.5l-1 -10l-2 -4l-5 -1q0 -58 -6 -68q6 -16 1 -32l3 -4v-10l3 -8l-6 -8l-1 -8
l-4 -6l1 -4q-2 -14 -11 -25q-4 -3 -7 -5.5t-5 -4.5q-7 -5 -14 -9.5l-15 -9.5q-18 -15 -22 -27l-1.5 -13.5l-0.5 -4.5q0 -2 2 -12l12 -16q10 -6 18 -6h8q7 4 12 4l25 20t19 17q14 2 20 3.5t2 1.5h53q10 -2 14 -3h-2q9 0 23 -3q9 -2 15 -3t8 -2l8 3l10 -6l13 2l7 -5q3 0 26 -4
q6 2 10 1l5 -3l12 2q33 -6 55 -6l10 10v4l7 -11l9 2q11 -3 43 8l7 -1l3 2q4 0 10.5 2t9.5 2l11 8l5 1l2 10.5t2 13.5l-10 6q-9 12 -8 22q-12 28 -12 39q0 1 1 5t1 6l-10 22q1 6 -2 13l1.5 19.5l0.5 6.5l-0.5 2t-1.5 7l2 12l-5 5l4 5q1 17 1 26t1 11l5 6l1 16q3 5 6 20l7 9
l7 2l5 -1l10 2q5 5 6 8l5 -1q6 2 11.5 12t5.5 16z" />
    <glyph glyph-name="M" unicode="M" horiz-adv-x="874" 
d="M834 25v2t-1 7l-11 12q-7 1 -11 1h-3h-3t-10 -1l-6 -4h-4l-11 7q-12 13 -10 23l-7 8q-1 5 -1 11l-3 4v6q2 4 4.5 7t4.5 7q-3 4 -3 17q0 3 2 10.5t2 10.5v2t-1 6q1 2 2.5 6l4.5 12q4 11 4 17q2 4 4 6.5t3 4.5l-1 15q7 10 9 26l-2 6q4 11 9 19q0 10 -1 13q5 24 7 40t1 24
l2 5q-5 41 -6 61q-11 49 -21 62q-4 5 -7 9.5t-5 6.5l-6 2l-5 13l2 11q-7 4 -52 60l-3 12l-18 2l-14 9h-5l-4 16h-9l-6 4q-8 3 -13.5 6t-9.5 5q-39 13 -60 18l-2 1h-8l-4 2q-5 0 -14.5 1t-13.5 1h-2q-1 0 -4 -1l-7 4q-2 -1 -3 -1h-1q-18 0 -20 1l-7 -2l-9 4h-11
q-4 0 -10.5 -1.5t-9.5 -1.5q-18 0 -25 4q-15 -3 -26.5 -5t-19.5 -3l-4 1q-15 -8 -38 -6q-13 -7 -29 -9l-5 1l-4 -5h-4q-40 -20 -45 -26q-12 -3 -24 -11l-2 -4q-7 -4 -11.5 -6t-7.5 -4l-7 -9l-8 -4q-25 -36 -32 -39l-3 -9q-10 -5 -14 -12v-14q-5 -4 -16 -24q-11 -18 -12 -28
l1 -8q-20 -38 -20 -80q0 -70 11 -95q0 -4 9 -38q9 -33 12 -39l5 -6q1 -23 9 -33q0 -7 1 -12l3 -5q0 -5 0.5 -12t1 -15t1.5 -15t1 -10l-1.5 -5.5l-4.5 -16.5q-8 -6 -9 -13l-9 -5q-6 -1 -9 -1h-3l-3.5 0.5t-11.5 1.5l-6 9l-1 7q7 17 7 26t-6 20q-15 15 -23 16q-5 1 -29 -7
l-11 -10q-2 -4 -4 -9t-4 -12q1 -32 3 -33l6 -4v-7q7 -19 25 -32q46 -18 64 -18h27l7 3q19 -3 48 13q25 14 40 32q9 15 15 26q8 24 12 40q2 2 4 5l4 6v10l5 13q1 25 5 36t4 18l-8 2l-3 6l7 7l-1.5 7.5l-0.5 2.5l0.5 3.5l1.5 10.5q-5 23 -7 28l2 13q15 27 15 34q0 25 -19 53
q-3 27 -9 45h-5l-1 7l5 1q-5 9 -4 36l3 8q-4 7 -6 14q6 8 8 11l-3 14q1 4 2 7.5t2 5.5v10l12 13v10l18 27q14 19 25 20l21 3q-2 0 21 -6q4 -4 11 -15v-19l3 -8v-18q0 -10 -1 -12q1 -7 2 -12l2 -10q-4 -7 -4 -14l2 -5q0 -2 -3 -24l3 -5q3 -30 3 -52q0 -2 -0.5 -9.5
l-1.5 -21.5q-1 -10 -0.5 -17.5t1.5 -13.5l-4 -7v-10l3 -7l-3 -15q0 -5 3 -9q0 -7 -3 -11v-7q1 -3 1 -6q0 -31 -1 -32l1 -6l-5 -9l-1 -8l4 -5q0 -6 -1.5 -18t-1.5 -18v-2q0 -1 1 -4l-2 -4q0 -29 -13 -54q-11 -13 -26 -19l-30 -12q-15 -9 -26 -15l-8.5 -14t-5.5 -11
q-1 -7 -1 -11v-3q0 -16 10 -23.5t19 -7.5l4 0.5l12 1.5q19 22 34 28h3l6 3l14 -2l2 -5q7 3 10 7q6 1 9 1h3h1q2 0 4 -1q12 3 25 2l7 3h6l8 -8h5l4 2l5 -3q6 -1 11 -0.5t9 1.5l7 -3h13q4 -3 26 -5q21 -2 27 -6q7 0 19.5 -2t19.5 -2q19 0 31 5l4 4l7 2q1 3 6 8l2 6t2 5
q0 12 -5 19l-5 3l-4 5l-6 -1q-17 4 -39 24q-22 19 -24 35l-3 4q-2 11 -4 19.5t-4 14.5l2 9q-1 11 -3 20l-8 12q-1 9 -1.5 14.5t-0.5 7.5q0 3 1 6v6l-3 7h-10l13 16q0 12 2 18q-2 5 -3 9.5t-2 8.5q0 31 5 43l-3 18q1 4 0 21l-9 10l-1 8l7 10l-1 14l-6 -1l7 11l-1 9
q-7 10 -7 16q4 12 9 75q5 56 17 70l8 5h4l8 3q8 1 17 -2l2 -3l14 -2l21 -18l4 -10l5 -2l1 -6q9 -5 13 -24l-1 -8l1 -4l3 -4l1 -11l3 -5l-1 -15l3 -4q-2 -28 -3 -48.5t-2 -34.5l-7 -8q4 -14 -7 -66v-8q7 -10 7 -17q0 9 -9 -48q-1 -4 2 -12q-7 -8 -5 -28q-1 -2 -1.5 -5
t-1.5 -5q4 -15 4 -25v-7t-1 -21l3 -6q-1 -4 -1.5 -7.5t0.5 -8.5l3 -3q2 -24 9 -37q10 -18 13 -28q11 -8 16 -17l7 -3l1 -5q8 -5 15 -16l15 -6q11 2 20 -2l4 -3q2 1 22 -2q19 -3 24 -3q49 0 62 16q5 15 5 19z" />
    <glyph glyph-name="N" unicode="N" horiz-adv-x="654" 
d="M614 360q-3 6 -3 16v8t-1 15v22l-8 2q1 13 6 21l-1 4q-2 2 -4 5t-4 7l3 9q-3 15 -5.5 26t-4.5 18l-7 9l-2 13l-6 4v5l-29.5 37l-9.5 12q-3 2 -6 5t-7 5l-7 1l-1 7h-9q-3 3 -10 6t-14.5 7l-15 8t-10.5 8q-21 1 -35 11l2 -8h-7l-3 8l-14 3q-5 -2 -32 0l-26 1.5l-9 0.5
q-4 0 -15 -1.5t-28 -3.5q-37 -4 -43 -8h-7q-3 0 -9.5 -2t-9.5 -2q-4 0 -8 1h-9l-5 -2l-1 6l-5 -8q-14 -6 -42 -6h-8q-5 0 -14 1l-11 5l-1 4l-4 1q-17 29 -34 29q-16 0 -23 -4l-19 -19q1 -4 -2 -16l5 -16q16 -22 44 -32q4 1 12 -2l4 -5l11 -5q-2 -12 3 -29q2 -11 3.5 -18
t2.5 -11q1 -11 1.5 -21.5t0.5 -21.5q0 -28 -1 -48t-3 -32l3 -6q1 -10 -2 -22l8 -7l-2 -9l-4 -6q-1 -1 -1 -42q0 -31 3 -40l-7 -11l-1.5 -7.5l-0.5 -2.5q0 -7 1.5 -20t1.5 -20q0 -10 -1 -12l-4 -6q0 -12 -3 -18q1 -4 1 -12q0 -43 -35 -69l-4 -1q-8 -5 -13 -14l1 -6l-3 4
l-11 1q-8 -7 -14.5 -11.5t-10.5 -6.5q-1 -7 -9 -13q-4 -11 -6 -20q3 -21 10 -28q11 -11 25 -11h7q5 4 11 4q8 7 14 13.5l11 11.5h6l4 4q13 5 24 5l4 2q7 1 10 1h3q46 0 55 -6l12 1q7 -3 13 -2l12 -5q5 1 13 -1t11 -2h29l4 -4q13 -2 16 -4l4 1l8 -2q7 2 13 7l7 -6
q30 -3 50 18q0 3 3.5 9t3.5 10v8l-5 10q-16 8 -20 8l-6 -1q-11 3 -15 2l-3 5l-9 4q-11 12 -18 18v4l-8 7q-9 25 -12 42l3 7q-7 5 -11 10t-6 9l6 10v7q-1 2 -1 3q0 2 -1 4l2 6l-3 7v7q0 4 1.5 9.5t1.5 8.5l-3 7q1 5 1 8v6l-5 4v10t-1 12q-5 5 -8 16l4 4q-1 5 1 15l-5 18
q8 21 8 26v12l-5 2q-1 23 2 30l-2 18l1 -4l-2 5l1 13l-3 6v18l3 8v13q1 5 1 8v5l-0.5 3t-1.5 10l3 8l-1 10l-1 -3q3 6 10 37q2 13 33 38q11 4 30 4q8 0 17 -3t13 -3l17 -13.5t11 -10.5l3 -7h4l6 -4l-2 -10l5 -16l4 -3l5.5 -30t4.5 -21l3 -5q0 -4 -1 -9.5t-1 -7.5v-49
q0 -29 -6 -48q3 -11 2 -15l-4 -2q-5 -15 -5 -38l-5 -4q-5 -28 -8 -40t-3 -10v-4t1 -12q2 -5 5 -8l5 -5v-11l-2 -5v-6l4 -5q-7 -18 -9 -26q4 -12 3 -16l5 -7l-3 -24v-2q0 -1 1 -5l-5 -12v-10l3 -6l-2 -17l-3 -5q0 -7 1 -12l5 -6l1 -10l-2 -5q1 -6 -2 -13q3 -12 2 -18l3 -5
q-3 -15 10 -44q5 -13 11 -23.5l11 -18.5l6 -2l2 -7l11 -8l4 -6l6 -1q17 -11 42 -11q8 0 15.5 0.5t14.5 1.5l5 4v4l17 5q39 31 39 72v6q-8 21 -8 22q-4 2 -7 5l-5 5q-8 0 -12 3q-3 2 -29 -6q-9 -7 -15 -16l-2 -22q3 -12 8 -17l-7 -11q-3 -1 -5 -1h-1h-2t-6 1q-32 20 -29 49
q7 69 18 83l1 8l5 9v16l9 9q2 13 4 21t4 12l6 6q7 20 18 34v8q1 7 19 26q1 18 3 27q5 11 8.5 20t4.5 16l-1 8l2 8l10 11q2 10 6 14q2 41 7 53z" />
    <glyph glyph-name="O" unicode="O" horiz-adv-x="643" 
d="M623 350l-2 11q-14 6 -21 13q-5 36 -11 73.5t-23 67.5q-13 23 -16 26v5q-1 3 -11 13t-11 16l-4 3l-2 8l-11 3l-2 4l-54 35q-6 -2 -20 6l-5 -2l-9 1v8q-5 5 -19 3l-4 4q-6 0 -9 1q-24 7 -65 7h-10l-1 -5l-13 1l-6 3q-2 -1 -13.5 -3.5t-32.5 -6.5q-20 -4 -31 -5.5t-12 -1.5
q-7 -7 -34 -23q-24 -13 -34 -26l2 -8l-11 -10l-11 -2q-2 -1 -18 -31q-13 -28 -26 -39q-3 -7 -6 -17.5t-5 -26.5t-5 -25.5t-5 -14.5v-9q-5 -9 -6 -11l-2 -21l-18 -10q-6 -5 -6 -13v-7q5 -11 7.5 -16l2.5 -5q1 -1 7 -38q6 -35 6 -37l4 -6l1 -9l-2 -7l2 -7l5 -1q-1 -4 4 -22
l6 -4l2 -8l-4 -6l4 -6l7 -5l4 -6l1 -5l-2 -7l16 -38l6.5 -8t4.5 -5l5 -3l3.5 -8.5t3.5 -6.5q11 -8 18.5 -15.5l12.5 -12.5l1 -5l4 -5l4 -1q22 -22 68 -42l13 -1q11 -9 43 -12l23 -2l24 -2l6 4l15 -3l10 5l4 -3q12 3 19 2q18 4 30 6l5 4q9 3 15 4.5t11.5 4t10.5 7t13 12.5
l4 11l-1 10l7 -9l12 3q15 14 25 22q2 5 8 12l14 17q15 16 16 33q2 2 4.5 3.5t6.5 3.5q8 14 8 28l8 5l2 9l-1 5l2 4q4 1 9 10q3 30 4 27l5 9q2 25 6.5 47t10.5 42q7 28 9 33zM450 318l-3 -7l-5 2q1 -5 1.5 -9t-0.5 -9l-3 -5q-5 -32 -3 -37l-2 -8l2 -8l4 2l-3 -13l-3 3
q1 -10 -7 -28l3 -11q-2 -11 -4 -14q0 -23 -11 -40q3 -21 -21 -67q-12 -12 -15 -16h-4q-11 -8 -19.5 -13t-14.5 -7l-10 2l-5 -2q2 -1 -18 -1h-2t-6 1l-6 4l-7 1q-6 9 -19 13q-7 11 -11.5 19t-8.5 13v8l-4 3l-8 41q-5 28 -5 19q0 19 2 25l-6 9l-4 20q2 7 2.5 10l0.5 3l-0.5 5
t-1.5 16l4 13q-12 25 -9 63l-14 3q-3 7 -3 16q0 36 4 40v26l1 -5q-2 37 2 45q4 10 5.5 17t2.5 11l-3 11l7 14.5t5 11.5v15l9 7q2 8 2.5 14.5t1.5 10.5q9 8 11 17l22 17l16 12l41 7l15 -4l5 2l18 -8l9 -11l4 1l11.5 -11.5t8.5 -7.5l4 -20l4 -3l4 -10v-6l5 -9l1 -13l6 -12
l-1 -7q7 -5 9 -9l2 4v-15q-5 -11 -6 -16l5 -11v-14l-4 -6q4 -8 5 -12l-3 -21q0 -19 3 -25l6 -2q4 -20 4 -36l4 -2z" />
    <glyph glyph-name="P" unicode="P" horiz-adv-x="596" 
d="M580 445q-4 9 -7 17t-7 16q-4 11 -7.5 24t-5.5 27l-7 5q-1 8 -10 15l-2 7l-8 7l-6 13l-4 4l-4 1l-2 5l-5 4l-4 8l-8 4l-2 7q-10 6 -19 8l-4 3q-13 5 -24 10l-21 10l2 -3q-41 10 -56 10q-6 0 -13 1.5t-8 1.5q-15 0 -19 -4q-14 -1 -25 -2t-19 -2q-6 0 -9 1q-23 -9 -72 -12
l-4 2l-27 -6q-5 0 -30 6q-5 7 -9.5 12t-7.5 9q-8 1 -22 12q-12 1 -30 -2l-13.5 -13.5t-9.5 -10.5q1 -3 -1 -8q2 -8 4 -13t4 -9q4 -7 24 -19q20 -13 23 -19l1 -8l4 -4q2 -6 3 -10.5t2 -6.5q-1 -3 4 -16l-4 -8q-1 -6 5 -14l-3 -7l4 -14l-5 -10l1 -8l4 -3q2 -10 3 -17.5
t2 -12.5l-3 -23l4 -14l-1 -10l-3 -6q10 -16 11 -23l-10 -26q0 -8 1 -13q-1 -2 -1 -3v-1q1 -10 1 -17q0 -6 1 -8l-2 -5l9 -21l-5 -4q-8 -14 -9 -23l5 -5q-3 -14 -1 -26l-7 -13v-11l4 -8q0 2 -2 -11.5l-6 -42.5q-2 -7 -4 -12t-4 -9q-7 -7 -12 -11.5t-9 -8.5q-7 -5 -12.5 -8.5
t-9.5 -5.5q-9 2 -29 -17l-4 -1q-27 -29 -26 -46q2 -5 2.5 -9.5t1.5 -7.5q12 -16 29 -16q24 0 33 11l6 1q1 16 27 24q18 7 40 7q17 0 21 -2l7 1l4 -2l4 1q10 -3 21 -3h4l9 8l11 -11q13 -2 20.5 -3t11.5 -2l4 -3q28 0 35 -5q4 1 23 0q11 -1 17 -1.5l6 -0.5q18 0 23 3
q4 -1 22 3q22 6 25 6q11 7 17.5 10t7.5 4q25 22 25 49q0 5 -5 17q-3 1 -9 1l1 8l-11 7h-6q-3 1 -6 1h-8l-16 -7l-9 -12q-2 -14 -6 -23l-10 -6.5t-6 -3.5l-11 4l-6 -1l-5 2l-14 14q-4 10 -3 22q-2 6 -5 9h-9q-3 7 -6 16t-5 21q3 6 2 10l-5 6q-2 8 -4 13.5t-4 9.5q-9 31 -9 56
q0 12 1 15l-4 7l1 16l-3 9q0 2 3 17q0 2 -1 5.5t-1 4.5q0 4 0.5 8t1.5 9l-4 15l3 7v5l-6 16l5 22q0 8 -4 16q2 6 2 86v9t1 16q1 8 1.5 14t-0.5 11l6 6q6 32 11 39l13 9q8 1 14 1.5t11 0.5q33 -20 36 -21q13 -18 17 -30q7 -19 8 -26l-1 -10q10 -16 12 -23l-4 -14q2 -18 7 -26
l-3 -10l3 -10l-8 -11l6 -24q-9 -29 -9 -41q0 -18 1 -17q-19 -46 -35 -60l-9 -2q-2 7 -2.5 12t-1.5 9l-12 12l-19 1q-14 -8 -20 -14q-7 -14 -7 -20q0 -19 3 -26q20 -24 42 -25l5 -5q3 0 8 1.5t7 1.5h10l6 -5q15 0 23 7l9 -1q9 6 14 6l6 4t5 4l8 -1l17 12t12 10l7 1
q10 12 19 18q8 15 20 24q7 22 17 30h6l5 3q2 10 4 17.5t3 12.5l4 6l2 12l3 4q6 27 5 32q5 13 9.5 22t6.5 15z" />
    <glyph glyph-name="Q" unicode="Q" horiz-adv-x="643" 
d="M728 -23l-5 8v4q-2 2 -5.5 4.5l-7.5 5.5q-5 1 -9.5 2t-7.5 2q-26 2 -40 -23q-2 -8 -3 -17t-2 -19l-7 -4l-10.5 -1.5l-3.5 -0.5q-15 0 -20 1l-16 11l2 6q18 13 22 23l3 16l-8 3q6 1 14 11l-6 13q-10 6 -11 12q-26 9 -36 9q-2 0 -6.5 -1t-7.5 -1l-7 3h-3q-9 -5 -12 -10
l-11 1q-45 -26 -87 -30q-5 0 -9 4l1 4q4 7 18 9l40.5 31.5l34.5 26.5l5 3l3 8q-1 2 -1 4q0 3 -1 6q22 18 39 56l12 32t13 32l-2 6q9 22 15 54q7 31 9 48l5 5v16q-12 13 -21 52q-8 35 -8 57h-4l-1 8l3 5l-4 10l2 17l-7 4q0 7 -3 15q-8 1 -14 8l-2 5q1 15 -6 30l-5 4l-13 4
l-4 7l-1 8l-11 15l-4 2q-5 1 -8 1h-2q-3 0 -4 -1q-25 33 -54 34l-5 6q-15 4 -18 4l-4 3q-10 2 -17 4t-12 4q-11 1 -18.5 1.5t-12.5 0.5q-47 3 -41 3q-8 0 -22 -2.5t-22 -2.5q-8 -2 -16 -3.5t-16 -3.5q-31 -6 -37 -15q-7 0 -24 -5l-2 -13l-16 4l-35 -31l-7 -2l-4 -7v-6
q-5 -8 -8.5 -15t-5.5 -12l-4 -1l-4 4l-6 -5l-2 -9l3 -10l-2 -5q-8 -6 -10 -9.5t-3 -10.5l-7 -8q-2 -9 -8 -14q-2 -17 -9 -24v-4l3 -5l-7 -27.5l-5 -19.5l-3 -4q-9 -31 -19 -41l-2 -13l3 -9q8 -8 14 -31t4 -35l8 -14q0 -1 -0.5 -5.5t-1.5 -14.5q2 -4 4 -7t3 -5q-1 -7 9 -34
q11 -27 14 -30l2 -10q35 -60 40 -65l12 -7q2 -3 7 -8t13 -12q17 -14 18 -20l8 1l2 3l8 1l3 -13l4 -6l9 2q16 -8 28.5 -13l22.5 -9h16q11 -5 17 -6l7 1q36 -6 55 -6q32 -8 52 -15q32 -14 55.5 -25.5l39.5 -19.5l9 4l6 -1l4 -11l6 -4q8 2 17 -3l6 1l2 -7l5 -5l7 2l10 -8
q12 1 20 -2l4 1q13 -2 17 -5h5l4 3l6 -3q4 -1 11 2l10 -1l6 4q72 9 77 81zM439 339l-4 -8q3 -20 3 -29q0 -6 -1.5 -19.5t-1.5 -19.5q0 -55 -6 -64v-5t1 -8l-13 -9l-1 -13l4 -7q1 -3 1 -5v-1q0 -3 -8 -32q-7 -4 -10 -10q3 -10 -2 -23l-14.5 -19.5l-11.5 -14.5q-2 -1 -8 -2.5
t-16 -5.5q-15 -5 -25 -5q-13 0 -29 4l-30 18q-23 26 -23 44l-3 4l-3.5 22t-3.5 15q-6 6 -6 20q0 6 2 18.5t2 18.5q0 5 -4.5 14t-5.5 13q0 5 2 15t2 14q0 -1 -1.5 14t-5.5 46l-5 5l-5 2l-4 4l-3 15v6q7 8 8 15q-2 8 -2 22q0 5 -1 9v9q0 8 4 25q4 16 3 24q4 4 6 25q3 21 9 30
l1 10q8 14 15.5 29t15.5 29q13 19 55 33l6 -1l4 2q6 0 9 1l17 -5.5l15 -4.5q41 -33 41 -51l4 -3q0 -7 4 -15l5 -3l3 -43t1 -17l9 -8q-4 -13 -4 -30v-29q0 -11 1 -18l-4 -11q4 -24 12 -36z" />
    <glyph glyph-name="R" unicode="R" horiz-adv-x="644" 
d="M667 -70q0 8 -5 20q-7 18 -7 19l-8 7l-5 1q-6 5 -10 6q-18 -2 -31 -12q-10 -14 -10 -27v-12q2 -4 4.5 -8.5l6.5 -11.5l-5 -5q-8 -4 -19 -4l-10 4q-1 2 -1.5 4t-1.5 4q-6 5 -10 7l-3 4h-7q2 10 2.5 15l0.5 5v8l-2 5v13q4 6 5 16l-1 5l6 20q-3 8 -2 12l2 5l8 8q1 23 10 35
q-6 25 4 57q-4 10 -6 17l2 8q-2 6 -3 10.5t-2 7.5q-2 12 -4 19.5t-4 11.5q-3 6 -18 28q-4 6 -5 11q-7 6 -20 8l-8 7l-4 13l-17 1q-8 5 -21.5 11l-30.5 13q8 9 22 17l12 1q14 16 23 21q14 11 28 38q8 14 12 22l5 10l3 9.5t10 28.5q7 20 19 34q-16 22 -23 34q-26 46 -28 48v4
q-17 23 -55 48q-37 24 -68 29l-8 5q-10 -1 -14 -4q-5 2 -9.5 4t-7.5 4q-21 -2 -37.5 -2.5t-27.5 0.5q-18 -2 -31.5 -5l-22.5 -5l-72 -12q-3 1 -19 1l-13 7q-7 15 -19 22l-28 9q-15 -3 -27 -15l-6 -12l2 -4l-1 -4q5 -23 19 -33q28 -18 30 -22q8 -15 12 -43l6 -5l1 -6l-5 -10
q0 -6 3 -10q-7 -14 -9 -19l9 -7l-1 -16l-4 -8q3 -6 3 -14q0 -77 -7 -90q3 -11 -4 -31l5 -8l5 -2q-1 -4 -1.5 -9t0.5 -12q-1 -2 -2 -4.5t-2 -4.5l5 -5l1 -4l-3 -10q3 -35 5 -41q-6 -6 -11 -22l6 -9l4 -2l3 -6h-7q-2 -14 -5 -18l2 -10l-4 -9l2 -9l-2 -6.5l-6 -19.5
q-5 -15 -18 -22q-28 -17 -29 -19h-10q-8 -8 -13.5 -13t-9.5 -9l-6 -2q-11 -17 -11 -28v-16q1 -6 7 -14l12 -8l14 -3q14 8 24.5 15t15.5 12l3 5l6 3q4 0 14 2.5t15 2.5q56 0 79 -10q6 2 14.5 -0.5t15.5 -5.5q7 0 12 3q10 -2 16.5 -3.5t11.5 -1.5l7 -5q6 -1 14 1l5 -3
q3 -1 13 3l9 -3l11 5q15 -1 29.5 6l14.5 7l9 18l-1 9l-6 10q-25 10 -40 12q-6 4 -10.5 7.5t-8.5 5.5q-9 13 -15 18q-5 19 -8.5 33.5t-5.5 25.5q3 13 2 16q-7 9 -8 14q3 9 2 16l-11 2v9l6 7q1 2 1 3v1q0 -5 -6 37v43q0 2 -0.5 8t-1.5 16q-1 14 0.5 24.5t8.5 20.5q1 10 1 14v5
q-2 8 -3 11l2 9q-5 19 -6 33q4 7 4 45v8q0 9 1 26l-5 15q1 2 3 4.5t4 6.5q8 23 9 34q13 19 32 19q26 0 41 -15l13.5 -18t13.5 -17q6 -47 14 -58l-2 -14l-6 -3q-2 -33 6 -41q-4 -34 -5.5 -49t-2.5 -12l-14 -29l-15 -14l-5 -2l-6 1q1 15 -2 23l-14 18l-11 3q-15 -1 -26.5 -14
t-11.5 -20q6 -19 9 -35q3 -2 7.5 -5.5t10.5 -7.5h4l6 -4q5 1 11 -1l5 1l2 -8q11 -2 18.5 -5l12.5 -5l2 -7q10 -5 14 -5l5 -13l10 -11q1 -10 5 -16l-5 -11l2 -7l3 -3q-2 -3 -2.5 -9.5t-1 -14t-1.5 -14.5t-3 -11q1 -6 -3 -18.5t-4 -17.5q0 -26 1 -28l19 -14q0 -7 -3.5 -21.5
t-3.5 -22.5q0 -5 2 -17.5t1 -19.5l3 -5v-7l2 -3l2 -16l6 -5l8.5 -19t6.5 -13l10 -3q1 -14 6 -24q11 -5 20 -8.5l14 -5.5q7 -5 8 -11q4 0 12 -1t16.5 -3t16.5 -3.5t12 -1.5q27 0 44 6q5 2 14.5 7l23.5 13q4 7 21 21q4 13 7 16q0 3 2.5 9.5t2.5 9.5z" />
    <glyph glyph-name="S" unicode="S" horiz-adv-x="563" 
d="M523 223q-2 4 -3.5 13.5t-3.5 23.5q-4 26 -11 38.5t-12 20.5l-4 3l-3 6l-1 11l-4.5 4.5t-4.5 6.5h-6l-7 3q-1 5 -2 8t-2 5v-4l-3 6q-28 25 -35 25q-45 38 -124 39q-10 -1 -20 -19q-9 4 -21 4l-17 10l-8 -6l-9 2q0 5 -5 13l-5 2q-15 12 -29 47q1 9 -2 25l7 11l-4 11l1 11
l18.5 24l12.5 17q16 12 27 18q5 0 16 3t17 3h14q18 -7 31 -7l3 -4q14 -6 23.5 -10.5t16.5 -7.5q7 -8 7 -12l-3 -11l2 -6l9 -6q13 -50 15 -72q7 -18 20 -26q8 -2 11 -3h3q4 0 11 1l11 6l6.5 11.5t4.5 8.5v4q0 17 -9 31q3 18 2 25l10 15l-1 21l3 1q46 37 46 83q0 12 -14 26
l-4 2q-7 -1 -11 -1h-3h-2q-1 0 -3 1q-11 -5 -21 -16q-2 -4 -6 -9.5t-9 -13.5l-23 -4q-33 7 -51 15q-31 10 -76 10q-41 0 -59 -9l-5 1q-12 -4 -16 -6l-6 1l-46 -27t-33 -22v-4q-17 -12 -27 -28l-1 -7l-6 -6l-4 -11h-4l1 -4q-14 -27 -17 -59l-6 -8q5 -10 5 -15l4 -1l3 -7
l-6 -2l-5 -5q2 -20 4 -32.5t4 -19.5q5 -8 5 -12l3 -4v-4q2 -3 3.5 -5t3.5 -4l8 2l4 -6l-4 -8l4 -11q13 -5 17 -19l5 -2l13 -17q7 -4 15 -8t17 -9l1 -8l9 -3l2 -7l12 -3l6 1q6 -6 24 -14h9q3 -1 8 -1l3.5 0.5t11.5 1.5q2 2 5 4.5t7 6.5l2 10l4 5q5 -1 9.5 -0.5t7.5 1.5
q12 -4 21 -6.5t15 -4.5q19 -16 28 -21h4q5 -2 16 -20q10 -16 10 -23l4 -3q0 -6 3 -17t3 -17q-3 -12 -6 -21q1 -6 1.5 -10.5t0.5 -7.5q-6 -6 -13 -19q-2 -7 -1 -20q-12 -9 -19 -10q-3 -3 -5 -9l-4 -2q-2 -2 -4.5 -5t-5.5 -6q-18 -7 -50 -7h-22q-22 9 -38 12l-4 4q-11 6 -16 6
q-17 15 -27 40q-5 13 -8.5 21t-5.5 10v10l-5 9l2 5q-9 41 -12 61q-3 7 -3 11q-23 16 -31 25q-19 0 -24 -1q-9 -5 -17 -16l-3 -10q0 -9 4 -18.5t8 -18t7.5 -14.5t3.5 -9l-2 -5q1 -3 1 -10q0 -6 -5 -21q-3 -9 -4.5 -15t-2.5 -8q-8 -8 -30 -55l-17.5 -39t-8.5 -21l1 -5
q-8 -24 -10 -42q1 -8 1.5 -14t-0.5 -10l3 -7l-1 -10q2 -5 3.5 -11t3.5 -11q11 -17 21 -24.5l21 -15.5q34 -6 36 -6q19 0 22 1q14 7 18 8q18 13 27 21q9 18 9 25v7t-1 21l-2 4l-7 6l-16 6q-4 -1 -6 -1h-1h-2q-1 0 -5 1l-7 -3q-5 -5 -8.5 -9t-5.5 -6l-2 -10l-2 -3l-11 -7
q-3 -1 -20 4l-9 14l-1.5 13.5l-0.5 4.5q0 9 3 18l9 13v5l6 7q11 3 18 13q4 2 7 3l6 2q13 -3 23 2q3 1 10 -0.5t9 -1.5l10 5l6 -1v-7l5 -5l15 4q47 -3 55 -8h7q27 0 39 3l3 -2l7 -1l7 3h8q2 1 4.5 2t4.5 2l12 -2l7 5q6 -1 17 2.5t14 8.5l11 5l6 6l7 -1q39 16 53 37l1 5
q3 7 9 10q1 10 21 36l6 4v4l8 11q-2 7 -2.5 10l-0.5 3v10l15 16l1 8q-2 5 -3 8t-2 5q2 14 10 24z" />
    <glyph glyph-name="T" unicode="T" horiz-adv-x="623" 
d="M592 630v3t-1 8q-6 6 -13 7h-5l-7 3q-13 -10 -70 -13q-3 0 -9.5 -2t-10.5 -2h-15l-9 6l-6 -3l-4 -7h-6l-15 -8l-4 8q-9 0 -28 1t-28 1l-4 -0.5l-12 -1.5l-3 -4q-7 5 -23 5q-30 0 -34 -2q-23 2 -36 3t-15 1t-30 -3l-8 3q5 1 -3 1h-27q-31 0 -37 3q-36 -6 -60 12l-9 -1
l-7 3l-10 -2q-7 -4 -13 -15q-1 -2 -1 -4v-1q0 -21 13 -31q8 -16 8 -50q0 -5 -2 -19t-1 -20l-3 -6l3 -9q-4 -17 -4 -30q-2 -5 -3.5 -9.5t-3.5 -7.5q-1 -5 -1.5 -8.5t-0.5 -5.5l-7 -19.5l-5 -14.5q2 -5 3.5 -9.5t3.5 -7.5l8 -4q-1 -10 -1.5 -21.5t0.5 -25.5q1 -35 11 -44v-8
l5 -2l1 -8q3 -3 5 -15q15 -18 29 -29q9 -4 27 -4q2 0 6 1t7 1q19 11 25.5 18t6.5 19q0 5 -0.5 9t-1.5 9l-11 13q-22 5 -30 4l-9 7q-2 8 -4 13t-4 9q0 4 0.5 12t1.5 19q1 10 1.5 17.5t0.5 12.5v2t-1 7q2 4 4 12.5t6 21.5q2 10 5.5 18.5t7.5 16.5q-1 5 -1.5 8.5t-1.5 7.5
q2 2 3.5 5t3.5 5l2 11l-3 9l6 3l5 -9q2 6 11 16l1 4q9 12 12 18q31 23 46 30l17 -10q4 -21 5.5 -42t1.5 -42q-1 -9 -5 -18q0 -5 4 -18t4 -20l-2 -7q1 -3 1 -6t1 -5q-2 -6 0 -12q-2 -9 -6 -13q1 -7 1 -11v-3v-2q0 -1 -1 -5l4 -5l-0.5 -3l-1.5 -9l-7 -5l-3 -9q7 -4 14 -6v-9
l-8 -16q-1 -8 1 -16l3 -5l1 -12l-6 -18q0 -3 1.5 -9t1.5 -9v-7l-4 -8v-10q-7 -7 -7 -17l5 -8q1 -14 -2 -23l3 -8q-3 -6 -6 -22t-9 -25h-5l-2 -7l-6 -6q-10 -3 -20.5 -8t-22.5 -12l-1 -7l-8 -5l-4 4l-4 -1q-46 -31 -46 -55q0 -3 1.5 -10.5t1.5 -11.5l4 -2l12 -13h7t13 -1
q9 4 21 16l4 9q11 5 21 8.5t18 7.5l9 7q7 -4 14 -4q4 1 7.5 2t6.5 2q-5 1 6 1h38q29 0 37 -6q7 -1 11 -1q5 0 7 -1l3 -4q7 2 14 1l6 -4q8 0 20.5 -1.5l30.5 -3.5l32.5 -3.5t22.5 -1.5q10 2 16 4t10 4l10 -9l9 4h5l9 7l8 14q9 -3 13 -2q27 20 29 39l4 7q1 10 -5 27l-9 12
q-9 6 -25 7l-17 -4l-7 -8.5t-5 -5.5l-5 -11v-18l-3 -5l-8 -5h-6l-17 5t-12 3q-33 20 -34 45l-8 8q1 4 1 10l-12 14l-2 7q2 5 4 9l4 8l-3 15l2 5l-10 3l-4 -4l-2 4q0 6 4 10q-1 10 -2 16.5t-2 11.5l3 12q-2 3 -4 5t-3 4q2 11 4 14l-4 6q-1 5 1 16.5t2 15.5q0 28 5 36v6l-9 18
q1 5 1.5 13t0.5 19q-7 8 -8 15v18q2 2 4 5t4 7q-1 13 -1.5 30.5t0.5 40.5q1 47 8 65q2 3 5.5 6.5l8.5 8.5q10 2 9 2h3t10 -1l6 -5l7 -1q5 -4 8.5 -6t5.5 -4q8 -17 13 -21l6 -2v-5q17 -17 23 -52q2 -14 3.5 -29t3.5 -29l9 -18l11 -3q1 -7 2 -13t3 -12l-3 -6l2 -15
q-2 -4 -3 -7l-2 -6l1 -7q-6 -22 -16 -29l-7 -1q-12 5 -28 -2q-2 -2 -5 -4.5t-7 -6.5q-2 -7 -2.5 -10.5l-0.5 -3.5v-4q12 -29 14 -31q4 -1 6.5 -1.5t4.5 -0.5q4 -1 7.5 -2t6.5 -2q24 0 38 14q28 30 36 45q4 8 7.5 22t5.5 34l4 1v17l-5 7l-1.5 7.5l-0.5 2.5v7l3 8l4 3l1 32
l-4 9q1 22 -0.5 40.5t-3.5 32.5q1 3 1 4v2q0 10 -2.5 29t-2.5 28q0 4 2 11.5t5 15t5 13.5t2 8z" />
    <glyph glyph-name="U" unicode="U" horiz-adv-x="620" 
d="M614 29q-2 7 -7 13q-18 13 -33 11q-4 5 -19 11q-21 21 -24 74q-2 7 -4 12t-3 9q3 7 2 14q-3 12 -3 13q0 9 1 10q-2 3 -3.5 6.5l-3.5 8.5q6 10 7 17q0 21 -7 31q0 2 0.5 7t2 11t2.5 11t1 8q0 7 -1.5 22.5t-1.5 22.5q0 18 1 21l-4 7l2 78l-4 6l-1 6l6 8q-1 6 0 25t3 24
l-2 13q4 13 6.5 22.5l4.5 16.5l15 11l8 2l3 4l4 2q7 -2 21 6l5 5l9 4l3 7l5 5l2 6v19l-8 12l-10 5h-21q-16 -7 -27 -12.5t-19 -10.5h-10t-10 -1l3 -3l9 -4q-7 1 -12 1h-7q-7 2 -11.5 4t-7.5 3l-10.5 -3l-3.5 -1q-38 0 -50 4l-7 -1l-14 4l-10 -1l-4 3l-5 -2l-9 4q-8 1 -15 1
h-10q-10 -1 -21 -11q-6 -8 -6 -16q0 -15 4 -20l16 -6l5 -12l15 -3l-4 4q10 -7 13 -17l7 -6q1 -8 1.5 -11.5l0.5 -3.5v-11q0 -10 -1 -31l3 -4v-42q0 -4 -2 -10q1 -4 1 -6t1 -4q-1 -12 -1 -23q0 -10 -1 -19q5 -2 7 -7q0 -17 -9 -24q-1 -11 -1.5 -16t-0.5 -4l2 -5q-3 -8 -2 -13
l5 -10q0 -7 -4 -12q1 -5 1 -9t1 -6q-1 -4 -1 -9t-1 -11l-4 -7q3 -5 3 -17q0 5 -1 -3t-3 -30l4 -12l-2 -10q1 -19 5 -24v-4l3 -5q0 -6 -1 -9q-15 -12 -16 -14l1 -5l4 -6q0 -12 -7.5 -27.5t-7.5 -21.5q-9 -7 -15.5 -11.5t-10.5 -8.5q-14 -3 -18 -3q-6 0 -16.5 3.5t-16.5 3.5
l-6 5l-5 1q-23 26 -30 50q-6 18 -9 56q0 3 4 23l-6 10l1 15l2 4l5 4q1 3 3 11q-2 5 0 17l4 2l2 9l8 7q-2 6 -1 12l9 19v5q0 4 -1 9l-10 11q0 3 10 23q10 22 12 39q3 7 9 13q-1 24 9 37q1 4 1 8q0 5 1 12q2 2 3 4l2 4q-1 3 -1 9q0 7 1 10l4 7l1.5 10.5l0.5 3.5q0 52 -10 76
q-9 25 -44 62q-14 5 -23.5 9t-16.5 6l-24 -2l-25 -2q-30 -5 -40 -21l-5 -2q-6 -6 -9 -8l-10.5 -20t-4.5 -8q0 -1 -3 -15t-1 -23l-2 -5q0 8 6 -26q4 -4 7 -13q6 -4 12.5 -7.5t13.5 -5.5q28 -1 42 14l4 14l3 3q1 3 1 4v2q0 7 -18 36l-1 7q2 6 5 9v6q8 5 13.5 9t9.5 6l9 -5
l2 -4q15 3 23 3q11 -18 12 -28q2 -8 3 -15t2 -15l-3 -15l2 -5l-6 -13l-8 -7q-2 -10 -19 -31q-19 -24 -26 -28q0 -6 -4 -11q-10 -4 -26 -23q-2 -4 -7 -10.5l-13 -16.5q-2 -1 -4.5 -2t-4.5 -2l-6 -10l1 -12q-2 -9 -6 -13l-6 6q-4 -4 -7 -6.5t-5 -4.5l-3 -5q1 -11 -5 -23
l-12 -23q-10 -37 -11 -53l1 -6l-3 -9q1 -5 1 -8v-2q0 -34 1 -35l8 -3q4 -4 4 -10l-7 -29l21 -21l1 -4l-1 -7l13 -19v-4q10 -8 23 -27q6 -2 17 -12l3 -5q8 -4 13.5 -7.5t9.5 -5.5q58 -33 131 -33q45 0 87 6l56 7.5t15 2.5q29 0 57 -5l5 -3q9 3 22 -2q45 3 68 3h-8l19 7l13 5z
" />
    <glyph glyph-name="V" unicode="V" horiz-adv-x="650" 
d="M663 612q-1 10 -1.5 16.5t-0.5 9.5q-25 14 -27 14q-8 0 -13 -1q-23 -14 -24 -15h-4l-5 -4q-11 -2 -17 -3.5l-6 -1.5q-20 0 -32 0.5t-17 1.5l-4 -2q-17 -2 -58 0l-5 3q-5 1 -8 1h-2q-3 0 -9 -2t-9 -2q-38 0 -50 -9q-7 -13 -7 -20l7 -14l11 -7q10 0 37 -8h3l5 4l4 -1
q7 -5 12 -12l10 -4q4 -4 7 -7.5t5 -5.5q2 -6 2.5 -10.5t1.5 -7.5q-4 -40 -6 -62q-9 -36 -9 -41t-4 -9l-2 -9l3 -6q0 -7 -8 -18q2 -24 -11 -44l4 -7l-3 -14l-4 -6l-1 -7l2 -5v-5l-11 -9q1 -4 1.5 -7t-0.5 -7l4 -8l-4 -11l-12 -12q1 -8 -7 -23q1 -3 -1 -8l-10 -8l-1 -12l3 -4
l-4 -10l5 -8q-1 -7 -2 -12t-2 -9l-9 -6l-8 -14l-2 -12l-7 -10l-15 53.5t-12 44.5l1 5q-9 49 -12 75q-9 7 -17 9l3 15q0 -1 -0.5 6t-1.5 23l-5 2q-13 45 -13 54l-5 5q-2 3 -4 16q2 29 -2 35l-9 19q-1 9 -0.5 15.5t1.5 11.5l-3 5q-1 14 0.5 25t3.5 21l-1 5l19 12t13 9h5
q7 2 10.5 4t5.5 3h4l9 6q7 7 9 18q-1 6 -6 14q-14 14 -35 15h-40l-9 4l-3 -11q-8 -4 -14 -4q-1 0 -4.5 0.5t-8.5 1.5l-6 7q-9 -2 -24 0q-10 1 -16 1h-8q-100 0 -122 13l-8 8q-9 4 -15.5 5.5t-11.5 2.5q-11 -3 -16 -6l-11 -14l-2 -12l3 -14q9 -9 15 -17q17 -7 28.5 -12.5
l19.5 -9.5q15 -8 33 -48q19 -38 22 -60l6 -5v-12l8 -18q0 -2 -1.5 -8t-1.5 -9v-2q0 -1 1 -5l8 -6q5 -19 6 -28q9 -12 14 -27l-2 -5l5 -11q-1 -3 1 -12q1 -5 1.5 -8t0.5 -5l4 -4q3 -11 5 -19t4 -13q-1 -5 -1 -10l10.5 -17l7.5 -12l-7 -11q2 -5 3 -10t3 -9l7 -4l5 -10l-1 -9
l-5 -1l-2 -3l1 -9l7 -6l2 -7l-3 -4l2 -9l2 -3q4 -38 -33 -63l-4 -1l-2 -4q-14 -4 -22 -9q-5 -4 -8.5 -6.5t-5.5 -4.5v-4h-6l-9 -7.5t-6 -5.5v-5l-3 -5v-5l-2 -5v-5q2 -5 4 -9t3 -7l11 -9q19 -4 26 -4l3 1l6 6h6l6 5l4 1l4 6l4 1l4 5q12 2 17 3l3 4q7 -2 21 0q8 1 13 1.5
t7 0.5q98 0 135 -19l10 9q18 -4 31.5 -7.5t22.5 -5.5l25 4l25 4q29 4 45 20q1 6 2 9.5t2 5.5l-5 8.5t-3 5.5l-8 5q-14 2 -18 4h-13l-4 2q-7 1 -17 -2q-4 5 -11 7l-7 7l-5 11l1 4q-1 3 -3 11q2 39 21 97l4 3l3 12l-3 4q11 26 18 46v7q4 4 6 10l-2 10l8.5 33l5.5 20l5 6v5l4 8
l-2 5q16 43 18 64l3 5q16 64 32 103l6 3q8 20 17 31q29 22 47 23l17 15.5t11 11.5z" />
    <glyph glyph-name="W" unicode="W" horiz-adv-x="869" 
d="M852 16v16q-2 9 -11 14q-42 6 -53 23q-2 3 -15 57l-4 5q-3 31 -7 42l2 3q0 45 -3 69q6 16 -1 29q1 9 1 13v5v2q0 3 -1 8l5 17l-9 10q-1 4 -1 5v2v16q8 14 8 18v9l-3 5q-1 11 -1 16v6v2t1 6l-6 5q-1 3 -1 9q0 7 -1 10q1 2 1 4q0 3 1 6q5 5 6 8q-1 21 3 58q5 47 14 58
q12 8 17 11q6 1 13.5 3.5t17.5 7.5l14 13l2 7l4 4l1 17l-6 10q-13 7 -17 7q-16 0 -42 -14l-8 -1l-5 -11l-9 -1q-2 -1 -4.5 -2t-6.5 -2q-5 1 -12 1l3 5q-32 2 -57 2.5t-43 -0.5l-3 2q-12 -1 -19 0l-12 7q-8 -2 -14.5 -3t-11.5 -2l-1 6l-5 -2h-10l-1 -3q-11 -9 -12 -27
q4 -14 18 -21q3 -2 9.5 -4t16.5 -6l7 -10q1 -12 7 -18q0 -49 3 -55l-1 -5q1 -3 1 -9l2 -3q3 -17 -7 -24q6 -48 4 -54q2 -16 2 -36t-1 -44q0 -3 -1.5 -9.5t-1.5 -10.5q0 -3 1 -10t1 -11l3 -5v-24l4 -8l-2 -8l-15 -13l-3 -14q15 -11 16 -14l-2 -6l5 -25l-10.5 -17t-8.5 -12
l4 -12l-2 -14q-4 -6 -6 -17l-3 -4l-3 -10q-25 -20 -43 -31q-2 0 -7.5 0.5t-13.5 1.5l-1 -4q-8 -2 -31 9l-5 5q1 3 3 13q39 46 45 92q-6 16 -11 22l-11 3l-16 -5q-11 -17 -19.5 -32.5l-16.5 -29.5l-4 6l3 8v8l-5 4v4q0 4 1 12t1 13l-3 7q0 6 1.5 14.5t3.5 16.5t4 14t2 8
q0 7 -1 9l-4 2v3q2 9 15 22l1 6l-1 5l7 17v8q1 4 1 8v5l-5 9q15 36 30 66q23 74 23 146q0 59 -39 88q-5 4 -9.5 6.5t-7.5 4.5q-30 10 -59 10q-43 0 -70 -31q-16 -27 -20 -39l5 -28q8 -5 13 -9t9 -6q30 4 38 20q4 19 4 22q3 10 12 19l20 6q5 -1 9.5 -2t9.5 -3l16 -22
q1 -7 1 -10v-3q0 -4 -1 -12.5t-1 -13.5q-2 -4 -5.5 -9t-7.5 -12l-1 -7l-7 -12l2 4q-1 -6 -6 -11v-5q-1 -3 -20 -26q-13 -16 -16 -27l-7 1l-5 -9l-5 -3l-27.5 -36t-22.5 -27l-1 -6q-3 -5 -6 -9t-5 -8l-4 -2l-2 -6l-4 -4q-1 -3 -1 -5v-1v-9l3 -4q-29 -50 -30 -67l2 -5
q-1 -4 -2 -7l-2 -6q2 -7 2.5 -10.5l0.5 -3.5v-11q-1 -5 -1 -12t3 -20t3 -20q3 -3 5 -9v-5l4 -4q2 -6 1 -8l15 -30l5 -2l1 -5l5 -4l1 -5l7 -5l-1 -12l-5 -2l-5 1l-10 -3q-41 6 -38 6l-15 7.5t-6 3.5q-35 34 -39 72q3 9 3 24v22q0 13 -1 30l3 8l-2 6q5 14 8.5 25t7.5 18v9
q4 8 6.5 14.5t4.5 10.5q1 3 -2 14l9 20.5t8 17.5l12 33l3 11.5t4 18.5q4 19 9 28q-1 7 0 19q3 13 3 18q0 59 -12 83q1 12 -12 30q-5 7 -10.5 13t-10.5 13l-5 2l-2 4l-9 4v4q-9 0 -26.5 5t-27.5 5q-24 0 -32 -5l-9 -1q-27 -16 -33 -17q-33 -50 -33 -67q0 -10 7 -39l7 -8
l3 -10l7 -3l4 -5h4q7 -2 11.5 -4t8.5 -3q40 1 41 41q-1 9 -19 27l-1.5 10.5l-0.5 3.5v8l8 13q11 7 17 9l16 -2l-1 6l6 1l9 -2l5 -7l1 -7l7 -10q1 -5 2 -8.5t3 -7.5q0 -5 -2 -19.5t-6 -38.5q-7 -10 -9 -19l-4 -5v-4l-9 -11t-10 -14l1 -10l-13 1l-2 -7l-5 -2q-23 -29 -36 -42
q-9 -14 -12 -21l-9 -6q-1 -5 -3.5 -13.5t-3.5 -13.5q-6 -5 -20 -34q-13 -28 -15 -37q-1 -6 -1.5 -10.5t-0.5 -7.5l5 -12l-1 -5l-3 -2l-3 -5l-3 -18v-5l5 -9l-1 -9q-4 -7 -4 -10q0 -31 12 -58l1 -12l5 -2l9 -20.5l8 -19.5q19 -13 33.5 -24t24.5 -21q10 1 18 0l3 -11
q7 -2 12 -4t8 -4q6 -1 10.5 -1.5t8.5 -0.5q4 -2 5 -2l10 -4q4 1 21 -3q8 2 12.5 3.5l4.5 1.5h6l4 -7q2 -1 3 -1h2q18 0 22 1q4 6 13 6q4 0 12 -3q7 2 12 3t9 2q11 5 19.5 8t13.5 5l6 7l2 9q7 0 19 -6h3l4 -4q13 -5 23.5 -9.5l20.5 -8.5h6l4 -2l41 -5q17 2 30.5 2.5
t23.5 -0.5q3 1 5 1t4 1q53 5 80 13l4 -1q22 7 36 4q4 2 27 -1q28 -3 29 -3h8l3 4q4 -1 12 -7l13 -2l5 4l5 1l2 -5h9q39 0 55 16l2 10z" />
    <glyph glyph-name="X" unicode="X" horiz-adv-x="692" 
d="M692 22v9l-3 8q-7 9 -16 14q-54 13 -68 21q-6 12 -25 21l-15 20q-8 12 -18 17l-2 10q2 8 1 15l-2 3l-4 2h-15v6l3 8q-10 21 -15 29l-5 -1l-7 9q1 13 -2 22q-12 3 -17 8q-1 6 2 14l-1 6q-2 3 -4 5l-4 4q-9 25 -31 58l-18 12l1 9q2 2 8 12.5l17 29.5l16.5 29t6.5 12v10
q37 34 40 63l18 11v5l15 15.5l13 14.5q17 7 28 15q16 9 31 16.5l29 14.5q11 14 13 32q-5 18 -22 28q-16 0 -17 1q-31 -13 -44 -22l-3 1l-34 -7h-77h-51t14 1q-22 0 -36 -10l-6 -7l-2 -7l3 -19q34 -16 54 -19l6 -20l-12.5 -31.5t-9.5 -21.5l-7 -7l1 -6l-4 -5q0 -5 -14 -25
q-14 -21 -20 -25l1 7q-3 5 -13 23q-5 10 -7.5 16t-3.5 9l-12 12t-9 8l7 -3q-1 8 -7 23t-6 23q0 10 1 13q13 16 21 20q10 15 12 23l-9 18q-6 2 -10.5 4t-7.5 4h-9q-4 1 -8 1h-34l-7 3l-7 -3l-3 -4q-5 -1 -11.5 -1.5t-14.5 -0.5q-2 0 -6.5 1t-6.5 1l-9 6q-3 1 -11 -2
q-24 2 -42 3t-31 2l-3 -1l-21 6q-15 10 -21 16l-5 1l-3 3q-12 4 -17 4h-4q-3 0 -10 -1q-6 -4 -9 -5l-9 -10q-2 -5 -3 -10t-3 -9v-5q1 -2 2 -6t3 -9l4 -3v-7q24 -18 41 -24q6 1 29 -5q22 -4 28 -9l10.5 -9t6.5 -7q7 -10 8 -18q9 -7 10 -20l7 -5q10 -16 16.5 -28t8.5 -20
q4 -2 6.5 -4.5l4.5 -4.5l3 -13q4 -5 8 -12l9 -16l5 1q-2 -24 11 -35h6l4 -10l-9 -28l-4 -5l-1 -4q-13 -20 -17 -30v-5l-6 -1l-5 -8.5t-4 -5.5q-4 -11 -6.5 -19.5t-4.5 -13.5q-16 -27 -18 -35l-4 -4l5 -10l-13 -8l-2 -7q-8 -7 -21 -25q-14 -18 -12 -24l-5 -4l-1 -6
q-12 -18 -30.5 -29.5l-36.5 -22.5h-7l-7 -6l-13 -4q-7 -7 -11 -9q-7 -9 -16 -14l-8 -11l-4 -16l2 -16q4 -8 13 -17q5 -1 7 -1.5l2 -0.5q13 0 15 1q9 7 17 12l16 10h5q7 7 12.5 11t9.5 6q7 -1 37 3l5 -3h12l5 -3q13 0 37 -8v3q3 1 4 1h2h15l9.5 -5.5t7.5 -4.5h8q3 -1 7 -1
q12 0 47 9q18 17 17 32q-6 7 -6 10l-5 3l-4 6q-1 1 -24 4q-15 3 -23.5 10.5t-13.5 25.5l-10 3q0 6 7 19q-2 5 1 21q4 6 15 19l1 5l-2 8q12 22 21 30l2 9l3 3q6 12 12 38q3 3 7.5 7t10.5 10q11 -17 19 -31t12 -27l5 -3q10 -23 25 -45v-5t1 -8q6 -12 10.5 -23t8.5 -22
q1 -10 -2 -18l1 -6l-2 -9q-10 -3 -30 -25t-20 -31q0 -25 16 -34q7 -1 10 -1.5l3 -0.5q9 0 14 1q26 16 44 29l8 1l5 3q2 0 7.5 1.5t7.5 1.5h3l4 -2q11 3 41 -2l16 5l8 -9q7 -1 10 -1.5l3 -0.5q8 0 19 4l6 -6v-2l4 -7q13 1 25 3l6 -2q-3 -1 20 -1q10 0 18 0.5t13 1.5l4 -1
q8 2 13.5 3t9.5 2l14 8l7 11q1 2 1 3v2z" />
    <glyph glyph-name="Y" unicode="Y" horiz-adv-x="620" 
d="M604 616l-2 18q-5 9 -15 15q-8 2 -12.5 2.5l-4.5 0.5q-10 0 -26 -9l-7 -7l-22 -6t-22 -5q-33 3 -49 3q-17 4 -12 4h-4q-7 -1 -13 -9l-10 1l-2 6l-8 1q-30 2 -43 3q-2 0 -5.5 1.5t-4.5 1.5q-29 0 -49 -14q0 -7 -4 -14q-1 -2 4 -16l10 -10l21 -7l4 -7l18 1q3 -1 7 -3.5
t9 -6.5q13 -29 13 -54v-3t-1 -9l3 -9l-3 -9q0 -4 2 -10l-6 -10l1 -8l10 -2q-1 -6 1 -16l-11 -11l-2 -6l4 -14q-3 -41 -5 -45l2 -9l3 -4l1 -7q-5 -3 -13 -15q0 -7 -1.5 -10.5t-5.5 -16.5l-5 -6q-8 -54 -58 -68q-26 1 -33 3q-11 3 -27 18l-1 4l-11 11q1 4 -6 21q-7 15 -7 24
l0.5 4.5l1.5 13.5q-3 6 -3 9v4l5 1q2 24 6 34l-1 7l-3 4v5l6 5q5 6 13 52q7 38 7 57q0 4 -1 8v8q0 2 2 8t2 7q0 7 -2.5 21t-2.5 21v1q0 2 1 6l-8.5 21t-5.5 15q-5 9 -9 15.5t-7 10.5q-6 4 -10.5 6.5t-7.5 4.5l-6 1q-11 10 -25 10q-48 0 -68 -10q-26 -12 -39 -51l1 -9l-3 -3
q1 -3 1 -20q2 -3 4 -7t5 -9l14 -9h22l3 4l10 5q9 12 10 27q-2 7 -2.5 10.5l-0.5 3.5v2t1 6q2 3 7 8l10 3l11 -3l6 -9v-4l3 -6q0 -2 1 -7t1 -8q0 -4 -1 -7v-7q-8 -21 -17.5 -39.5t-20.5 -34.5q-5 -2 -8 -5l-5 -5l-1 -6l-14 -18q-4 -2 -8 -4.5t-9 -4.5l2 -14q-21 -30 -21 -45
l-3 -4q-1 -8 -5 -26.5t-4 -29.5q0 -6 0.5 -13.5t2 -15t3 -13.5t3.5 -8q0 -21 14 -38l1 -13l7.5 -11.5t7.5 -10.5q10 -2 13 -3q10 -18 11 -26q27 -11 40 -12l4 -9l9 -3l5 1q17 -11 53 -11h7q8 0 23 1l4 2l19 1l10 8l7 -4q4 2 7.5 3.5t7.5 3.5h6q5 4 9 6.5t7 3.5q26 23 38 38
q1 -2 1 -3v-1q-2 -61 -6 -95l-4 -7v-5l-10 -20q-19 -9 -29 -8l-10 -5h-36h-39l-3 -5q-14 6 -30 6q-5 0 -13.5 -0.5t-22.5 -1.5q-24 -3 -33 -2l-5 -7q-3 -3 -7.5 -4.5t-11 -4.5t-14.5 -9.5t-18 -18.5q-5 -11 -6 -16q4 -18 6 -29l5 -6.5t4 -4.5q4 -2 7 -4t5 -4l17 -1q4 3 13 3
q18 8 31 36l4 2l6 7q24 11 51 11l3.5 -0.5t11.5 -1.5q4 2 50 2q5 0 16 -1t17 -1l5 -1h46l9 4l7 -3l4 -3h5q6 0 12 2q10 -6 116 -6q55 0 66 8q10 7 17 14l1 13q-5 16 -19 20l-5 -1q-10 6 -17 7l-4 4l-12 4q-7 14 -15 19q-1 8 -1 12v4q0 4 1 7v7l5 11l-13 15v14l3 4
q2 29 -7 52q5 15 5 73v24t-1 16l-4 1l-1 10l5 8q1 7 1 12t1 8l-2 8l-6 5l6 6q1 7 1.5 11.5t0.5 6.5q0 4 -1 9v8l-3 6q0 12 -3 21l7 8q-2 5 0 14q1 6 1.5 9.5t0.5 4.5q0 19 2 27q-2 6 0 18q3 16 3 19q6 21 20 30l11 4l4 4l7 1q28 16 36 36z" />
    <glyph glyph-name="Z" unicode="Z" horiz-adv-x="610" 
d="M539 235q31 12 31 47q0 17 -8 25q-13 7 -31 7q-13 -1 -31 -21t-18 -32l6 -4q-5 -8 -9.5 -13t-7.5 -9q-2 -26 -40 -85v-5l-6 -5v-7l-5 -8q-22 -19 -30 -32q-14 -10 -25 -17t-19 -11l-2 -6l-8 -3l-4 7h-5l-5 -3l-4 -5l-9 -3q-5 0 -19.5 1.5t-21.5 0.5l-12 12l-3 8q1 7 1 10
v3v2q0 3 -1 8q7 16 11 26.5t6 16.5q8 10 13 17t8 12l19 17t14 11q1 5 1.5 7l0.5 2v4l-2 5l-9 1v6q27 30 41 44q24 34 31.5 46t10.5 19l11 7l4 7v3l7 15l8 5l2 13l-2 5q2 5 4 8.5t4 7.5l12 10q1 11 7 20l4 2q4 15 14 23q0 9 2 15q18 18 34 42l1 6q23 29 38 85q7 6 10 21
l-5 17l-10 5l-6 -2t-7 -3l-5 -5q-15 -5 -20 -6q-44 -9 -90 -6l-5 -7l-36 2l-5 5l-6 -1q-10 2 -78 2q-4 0 -14.5 -1.5t-14.5 -1.5q-23 1 -38 3l-25 -6l-3 5l-6 4l-20 3t-9 2l-5 4q-2 13 -7 17t-15 7h-6q-40 -18 -40 -84q0 -1 0.5 -8l1.5 -20q2 -24 1 -26l2 -10l-1 -5
q4 -6 6 -15q-3 -7 1 -18q-5 -17 1 -32q-1 -5 -1 -12l2 -5q-6 -22 -5 -32l-3 -5l-5 -4l-6 2l-19 -3l-11 -10q-6 -12 -6 -18q0 -9 4 -21q7 -7 12.5 -11.5t9.5 -6.5q10 -1 14 -1h5q26 0 51 37q25 34 24 60q2 4 4.5 7t4.5 7v5q16 43 18 48l7 9l1 11h6l6 8l1 5l-3 10l10 13l6 -2
l7 2l-4 -4l11 9l4 1q6 5 13 20l8 4l6 -3q8 3 14 6l10 5q6 1 13.5 1.5t15.5 0.5q15 0 28 -16q1 -5 1.5 -12t0.5 -17q0 -13 -20 -45q-11 -17 -16.5 -27.5t-6.5 -14.5q-16 -19 -26 -34l-1 -6q-4 -3 -13 -12v-6l-15 -18l-2 -8q-22 -25 -30 -41l1 -6l-9 -2q-21 -22 -32 -43
q-4 -1 -11 -13l-8 -4q-2 -7 -9.5 -17.5t-18.5 -24.5q-23 -29 -27 -45l-8 -10l1 -7l-3 -6l-6 -1l-8 -7q-8 -23 -12 -27l2 -10q-3 -16 -14 -24q-5 -23 -8 -38.5t-3 -23.5q0 -24 13 -34q10 -5 14 -8q10 -1 18 2q14 12 25 30q27 6 47 6q5 0 14.5 -1t25.5 -3q32 -3 35 -4h3l4 -2
h12l3 3l6 2l11 -3l8 -7q5 -1 8 -1.5l3 -0.5q2 0 7 1t7 1q4 0 12 -2t11 -2h6v7l15 1l9 -11q19 1 71 3q47 0 70 4q20 4 32 6l10 6l3 6q1 7 -3 15l-5 2l-4 5l-3 10l2 4q-2 15 -3 19l1 4l-4 7q4 17 8 25v4l-7 9l-4 1l-1.5 9l-0.5 3q0 10 3 15q0 3 -0.5 9t-1.5 14q-3 15 0 24
l-2 8q1 7 2 11.5t3 8.5l5 4q0 5 5 13z" />
    <glyph glyph-name="bracketleft" unicode="[" horiz-adv-x="373" 
d="M365 14v6q-3 11 -14 23.5t-22 15.5l-5 5l-7 -1l-4 -4h-6l-10 4l-8 -6l-8 9l-10 -10l-7 2q-12 9 -19 18q-6 18 -6 47q-6 10 -6 19v33t1 46q1 54 1 80t3 35l-3 5q1 7 -2 14l3 12l1 4q0 9 -3 20q2 7 2.5 10.5l0.5 3.5q0 10 -4 21q3 8 2 15l3 4q-5 17 -5 68q0 9 6 20
q0 28 6 46l10.5 12t8.5 7l7 2l10 -11l8 9l8 -5q4 1 10 3h6l4 -4h7q5 4 11 8t11 8q14 10 19 27q2 10 -7 26q-14 8 -16 8l-21 2q-8 -2 -14 -4t-10 -4l-10 -8l-17 -5q-8 5 -21 5h-5t-15 -1l-4 -2q-9 1 -15 -3l5 -4q-5 1 -9.5 0.5t-7.5 -1.5l-8 6l-25 4l-5 -2q-5 1 -11.5 2
t-13.5 3l-10 -3q-8 1 -21 3l-9 -3l-6 2l-5 -2l-5 -7q1 -7 -6 -28l3 -33q1 -11 3 -19t4 -13q-1 -4 -1 -6v-2v-5q0 -2 1 -6v-11q0 -2 -1.5 -7t-1.5 -7q0 -6 1.5 -17t1.5 -17v-35q0 -9 -1 -4q-5 -8 -5 -16q0 -5 2 -14t2 -16t-2 -16t-2 -10q0 -11 5 -21v-23q0 -9 1 -15l-3 -160
q0 -4 1 -12t1 -12q0 -18 1 -21q-5 -19 -7 -35t-3 -29q7 -21 6 -28l5 -7l5 -2l6 1q5 -1 7 -1h2h31q5 0 25 3l5 -1q7 1 13 1.5t12 1.5l8 6h17l-5 -4q13 -5 19 -6q10 -1 15 -1h5l21 6q34 -12 51 -21q11 1 17 1.5t7 0.5q4 3 7.5 5t5.5 4q7 11 7 18z" />
    <glyph glyph-name="backslash" unicode="\" horiz-adv-x="313" 
d="M326 643l-0.5 3.5l-1.5 10.5q-15 4 -26 4q-10 2 -36 28q-13 12 -21.5 21t-12.5 15q-7 2 -10 2.5l-3 0.5h-11l-11 -7q-4 -16 -9 -22q-14 -18 -53 -31q-39 -14 -64 -14h-23l-10 -9q-1 -2 -2 -4.5t-2 -4.5l4 -14l6 -8l11 -5q11 -11 14 -17q0 -7 1.5 -21.5t1.5 -21.5
q0 -32 6 -39l-2 -7l-11 2l-6 -2t-5 -2q-44 0 -39 1q-2 -15 -3.5 -27.5t-1.5 -23.5v-4l4 -9q3 0 8.5 -2t8.5 -2q4 0 11.5 2t10.5 2q4 0 12 -1t11 -1l-4 -6q0 -41 -2 -49l2 -7q-2 -8 -2.5 -12.5l-0.5 -4.5v-5l3 -5q1 -10 -6 -37l5 -11q0 -12 2 -34.5t2 -34.5q0 -13 -3 -19
l-6 -5l-1 -4l1 -4l3 -4v-8q0 -55 -6 -68l1 -6l-9 -14t-8 -10l-1 -14q5 -8 11.5 -10.5t9.5 -5.5h10q8 -3 14.5 -6l13.5 -6l3 -4h4l5 -6l13 -5t9 -4q13 -11 21 -15q1 0 22 -9t36 -9h2t7 1q15 7 19 13v12q-1 3 -10 10l-2 6q2 5 7.5 12.5t15.5 16.5q20 18 24 31l-5 12l-5 5
q-17 6 -21 5l-3 2q-4 0 -39 7l-7 11l-15 -5l-20 4l-2 5q10 17 15 26.5t7 11.5q4 14 6 23q1 11 1.5 19t0.5 13l-3 11q5 10 5.5 22.5t0.5 21.5q0 3 -1 4l-5 4q-4 9 -4 97v8t1 24q0 6 -1.5 14.5t-3.5 17.5t-3.5 17.5t-1.5 13.5t1 13t2.5 16.5t3 16t1.5 10.5q0 37 -14 56l-10 6
l-2 28q4 4 9 4l12 -4q6 -3 9 -10l7 -5l8 1q22 -60 52 -61l5 1q9 4 12 11q0 22 6 30l27 17l19 12l3 4q1 4 1 5v2z" />
    <glyph glyph-name="bracketright" unicode="]" horiz-adv-x="373" 
d="M300 37q0 8 -1.5 19.5l-3.5 27.5l-3.5 27.5t-1.5 19.5q0 2 1.5 7.5t1.5 7.5q-1 66 -1 115q0 50 -1 83q5 10 5 17q0 5 -2 15t-2 15t2 13.5t2 12.5q0 12 -5 20q1 32 1.5 50.5t0.5 22.5q0 2 -1.5 7t-1.5 7q0 8 1.5 19.5l3.5 27.5l3.5 28t1.5 20q0 5 -3 14.5t-3 13.5l-4 7
l-6 2l-6 -2l-9 3q-17 -2 -21 -3l-9 3l-25 -5l-6 2l-25 -4l-8 -6q-7 2 -16 1l4 4q-6 4 -15 3l-4 2q-10 1 -15 1h-4q-13 0 -21 -5l-18 5l-10 8q-8 2 -13.5 4t-9.5 4q-19 0 -25 -2q-4 -2 -7 -4t-5 -4q-8 -11 -8 -20v-6q5 -17 19 -27q5 -4 11 -8t11 -8h8l3 4q6 2 17 -3l7 5l8 -9
l10 11l7 -2q5 -7 11 -8q15 -15 15 -38q0 -13 -1 -16q5 -15 5 -39q0 -41 -4 -52l4 -4l-1 -8l2 -7l-4 -15q1 -7 2 -11.5t2 -8.5q-2 -7 -2.5 -12t-1.5 -8l4 -16l-2 -6l1 -8l-4 -5q5 -18 5 -29v-165q0 2 -6 -23q7 -19 -6 -43q-13 -14 -19 -18l-7 -2l-10 10l-8 -9l-7 6
q-5 -2 -8 -3l-3 -1h-6l-3 4l-8 1l-5 -5q-11 -3 -22 -15.5t-14 -23.5q-2 -12 8 -24l12 -9q1 0 7.5 -0.5t17.5 -1.5q34 13 51 21l21 -6h4q5 0 15 1q13 5 19 6l-4 4h16l8 -6q4 0 12.5 -1.5t12.5 -1.5h1q2 0 5 1q12 -2 25 -3h30h2t7 1l6 -1l6 2l4 7q0 4 3 13.5t3 14.5z" />
    <glyph glyph-name="asciicircum" unicode="^" horiz-adv-x="406" 
d="M340 619l-3 13q-6 9 -17 17v7q-4 3 -16 5l-3 4l-7 1q-59 39 -64 41l-5 7q-25 11 -30 11q-11 0 -21 -10q-8 -8 -12 -11.5t-5 -4.5q-7 -4 -11.5 -7t-8.5 -5q-5 -4 -8 -5.5l-3 -1.5l-7 -7t-14 -13q-17 -15 -19 -15q-12 -11 -18 -24q-1 -5 -1 -7v-2q0 -14 8 -22l10.5 -1.5
l3.5 -0.5h2q3 0 8 1l8 6l2 4h5q10 13 40 28q31 15 46 15q7 0 45 -20q38 -19 43 -26q17 -5 23 -7l15 3l7 9l2 10z" />
    <glyph glyph-name="underscore" unicode="_" horiz-adv-x="500" 
d="M500 -231v99h-500v-99h500z" />
    <glyph glyph-name="grave" unicode="`" horiz-adv-x="297" 
d="M230 719l-2 9l-7 7l-10 4q-21 -3 -18 -3h-19l-5 3h-27q-2 0 -7 -1.5t-7 -1.5q-14 0 -23.5 0.5t-14.5 1.5q-3 -2 -6.5 -3.5l-8.5 -3.5l-8 -10l2 -15q11 -10 19.5 -17t14.5 -11l19 -34l5 -3l-1 -10q13 -20 33 -37q17 -2 29 9l4 12q0 7 -4 18.5t-4 17.5q0 10 4 19q2 2 7.5 7
l13.5 12q15 11 19 20z" />
    <glyph glyph-name="a" unicode="a" 
d="M395 119v14l-10 8q-21 0 -27 3l-3 5q-1 25 -1 34t-1 4q-1 2 -2 5l-2 6q3 23 0 29l-5 5q-3 24 -2 34l3 8v25v15t-1 30q-2 29 0 47q1 13 2.5 24t5.5 20l8 9l3 9v8l-4 7l-6 4q-5 -1 -14 1.5t-13 2.5q-9 0 -10 -1l-7 2l-5 4q-20 5 -25 11l-3 6l-7 1l-6 8q-4 1 -28 18
q-23 17 -38 17q-9 0 -19 -3l-12 -9q-1 -10 -5 -19l-9 -10q-51 -14 -78 -38l-9.5 -16.5t-9.5 -13.5q0 -6 -3.5 -22t-3.5 -25q0 -3 2 -10.5t2 -11.5l4 -2q2 -6 1 -10q3 -4 7.5 -8.5l11.5 -11.5q3 -1 13 -5t15 -4q40 0 51 27q1 8 1 12v4q0 6 -3 18l-13 10l-9 1l-4 2
q-3 1 -16 -4l-5 2l-3 7v20l4 7l17 14q8 2 12.5 2.5l4.5 0.5q15 0 32 -11h9q8 -4 13 -6q24 -21 24 -48l-6 -13v-9q-4 -7 -6 -23q-8 -8 -15.5 -14l-12.5 -10h-12q-7 -4 -12 -6.5l-9 -4.5q-2 -1 -10 -1t-20 -3q-15 -3 -21 -3l-4 1l-26 -3q-13 -3 -20 -15v-9l8 -13l1 -31
q0 -8 -3 -15q0 -13 3 -17v-8l-4 -10q0 -14 3 -18q1 -5 -1 -15t-2 -14q-16 -26 -27 -35l-3 -12q4 -10 12 -16h6l4 -2h16q14 -7 18 -10l3 -5l6 -2q1 -2 5.5 -5.5t9.5 -8t9.5 -9t5.5 -7.5q36 -13 42 -13q10 0 28 8l4 11l-3 11l-11 12q2 22 4 27l12 7l7 1q9 -1 15 -7
q2 -5 17 -17q14 -10 19 -18l24 -16v-4q17 -9 46 -17q13 0 19 3l7 8l3 19v-4q-5 12 -8 15l-1 4l1 8l4 6l11 8l1 4q8 4 17 19l4 -1q18 19 18 30zM234 124q-26 4 -46 6t-33 2l9 9q0 7 1 20.5t1 19.5v3t-1 9l3 7q-3 19 -5 33t-3 24l6 5q5 1 11 -1l6 6l9 4q9 -1 34 14
q-2 -53 -6 -57q4 -30 6 -53t2 -40q5 -5 6 -11z" />
    <glyph glyph-name="b" unicode="b" horiz-adv-x="418" 
d="M390 465q0 6 -3 14l-5 3q-62 12 -65 12q-14 14 -38 24q-7 8 -12.5 13t-10.5 9q-15 5 -22 5q-11 0 -22 -8q0 -7 -3 -11q1 -5 1 -8v-5q-1 -6 -11 -21q-6 -5 -13 -6l-9 1l-6 12q0 3 -1 10t-1 10q0 22 3 28q-2 3 0 27q6 87 43 97l27 1l11 -7v-8l-7 -11l-2 -11l-2 -3v-14
l7 -13l7 -6l5 -1q6 -6 21 -6q2 1 4 1q10 7 16 13q14 33 12 44l-1 4l1 6l-4 9v4q-6 11 -8 22l-5 2q-26 23 -40 28q-24 3 -36 3q-11 -1 -19 -2t-13 -2q-7 -2 -12 -4t-9 -3q-15 -9 -23 -16q-7 -11 -11.5 -20t-8.5 -14l-11 3q-4 5 -16 15l-12 2l-6 8l-18 11q-3 1 -18 1
q-9 0 -17 -4l-5 -4l-3 -17l2 -6l11 -8h3l5 -5l4 -1q4 -4 7 -6.5t5 -4.5q10 -26 10 -46q0 -5 -1 -15t-1 -15q0 -35 4 -44q-1 -11 -1 -20v-14q-4 -5 -4 -24q0 -12 2 -16q-1 -10 -1.5 -20.5t0.5 -21.5l-5 -12l2 -4v-7l3 -4q1 -1 1 -19v-6t-1 -10v-15l3 -5q-5 -30 -6 -45l2 -11
l-4 -2v-8q0 -4 1 -9v-31q-1 -5 -1 -9v-6l6 -9l1 -6q-6 -9 -6 -18v-2t1 -6l-4 -5l3 -8q0 -12 -5 -29q-7 -6 -16 -19q2 -18 4 -23q6 -3 9.5 -5.5t8 -4.5t11 -4.5t18.5 -5.5q19 -5 30 -12l12 3l6 -4q-1 -5 -1 -13q29 -20 44 -32q8 -4 10 -6h10l6 -3q7 0 12.5 0.5t10.5 1.5l6 4
q6 6 8 16q-8 25 -13 33l1 5q31 21 51 24q6 6 30 10q25 6 28 9l15.5 2l14.5 2l7 3l6 8l1 13q-14 19 -24 30q6 13 6 20v4l-3 7v63l2 5q-3 28 -3 21v57l-6 5l-4 1l11 9q1 11 1 16v5q0 45 8 59v5q12 12 16 21q1 3 1 4v2zM266 139l-6 -7q-24 0 -51 7l-6 -1q-25 4 -30 11l-5 14
l1 6q5 8 9 13.5t6 9.5q2 14 3 22t1 10v1q0 2 -1 4l2 4q1 17 1 25v8q0 11 -0.5 19t-1.5 15l-7 5l3 8v4l-3 7l5 13v4q0 22 -6 82l-11 6l13 14q17 -5 29 -10t20 -9q11 -2 18.5 -4t12.5 -3q-5 -20 -6 -30l-3 -4q-1 -10 -2 -18t-3 -14l-4 -9l5 -11q2 -2 -6 -26q3 -17 4.5 -31.5
t2.5 -26.5l-6 -18q1 -4 3 -34q2 -29 7 -41z" />
    <glyph glyph-name="c" unicode="c" horiz-adv-x="357" 
d="M348 383l-3 10q-2 2 -4 4.5t-4 4.5q-5 1 -9 1q-3 0 -6 1l-3 20q-11 13 -14 17q-3 9 -3 14q-14 33 -22 46l-8 1q-4 8 -6.5 14.5l-4.5 11.5l-15 13l-14 1h-3l-5 -2q-8 -6 -12 -15l-1 -8q-27 -21 -34 -21q-10 -12 -48 -23q-40 -10 -46 -15q-2 0 -21 -6l-12 1.5t-3 0.5
l-12 -6q-6 -9 -6 -15q2 -8 6 -14h9l-1 -12l9 -3q-1 -17 0.5 -30t3.5 -23l-2 -4q-1 -3 1 -9l-4 -11q-1 1 -1 -18v-4l2 -5q-1 -11 -0.5 -19.5t1.5 -14.5q-1 -22 -1.5 -34.5t-0.5 -16.5l6 -15l-6 -6q-2 -6 -4 -43q0 -17 -2.5 -27t-6 -16t-6.5 -8.5t-5 -5.5q-2 -5 -2.5 -7.5
l-0.5 -2.5v-6l4 -9l4 -3q3 -1 4 -1h2h25l6 -7l13 2l3 -8q6 -1 38 -18q16 -8 25 -13t11 -7l40.5 -10.5l13.5 -3.5l5 0.5l15 1.5l8 10v14l-4 9q0 4 1 7t4 6.5t10.5 7.5l21.5 12q21 13 26 24l6 3q23 25 23 59v12q-4 8 -6 14t-4 9l-21 10q-4 -3 -10 -4t-11 -7l-4 -10
q0 -2 1 -6.5t2.5 -9.5l3 -10t1.5 -6l-3 -6v-4l-2 -5l-7 -2q-7 -9 -12 -10v8q-29 -2 -54 4q-38 8 -45 26l-1 7l9 5l2 5l4 4q0 4 4 14t4 15q0 42 -1 39l3 1q-1 2 -1 5q0 4 -1 8l-4 3q0 6 3 15.5t3 14.5q0 6 -1.5 16.5t-1.5 15.5l-2 3l4 9l-2 12l1 4l-4 6q6 25 -11 55l-2 22
l6 9l5 3q9 -8 17 -25q4 -13 11 -28l9 -8q27 -71 41 -83h10l10 4l5 6l5 15l12 13l27 12.5t22 17.5z" />
    <glyph glyph-name="d" unicode="d" 
d="M375 118q-2 14 -15 29l-3 16q3 8 1 23q-1 11 -1.5 17t-0.5 7v6q0 5 1 12v18q-5 7 -5 12v4l5 9q1 7 1 10v4v5l-4 5v14l-5 3l4 2q-2 9 3 23v-5q-3 13 -3 45q0 11 6 56l2 3l1 6l6 8q-1 4 -1 7q0 4 -1 7l-7 11q-18 13 -19 16l-4 2q-5 5 -8.5 8t-6.5 5q-14 12 -32 41
q-11 1 -20 10.5l-17 18.5l3 8v4q-13 19 -25 25l-3 7q-10 8 -18.5 26t-8.5 30v3t1 9q2 6 11 16l4 1q3 7 8 9q1 5 1.5 7l0.5 2q0 17 -1 20l-13 18l-4 -2l-3 5q-12 2 -41 -6q-7 -9 -13 -10l-7 -20t-5 -14q0 -1 1 -6t1.5 -10.5l1 -10.5t0.5 -6l17 -40l-12 -1l-4 6q1 0 -20 8
q-12 5 -22 5l-6 -2l-10 1q-22 -7 -31 -8l-2 -4l-16 -7l-4 -5l-5 -1q-5 -8 -5 -27v-2q0 -1 1 -5l16 -10l9 1q16 7 24 12q13 0 26 -7q1 -4 13 -11l12 -19t9 -13l11 -1l-2 -12l11 -4v-7q33 -44 39 -58l12 -10t7 -6l3 -6q17 -8 31 -12l1 -7l-5 -3q-5 -11 -7 -20.5t-3 -16.5l3 -9
q0 -6 -6 -19q0 -5 -1 -14.5t-1 -13.5q0 -6 0.5 -12.5t1.5 -13.5l3 -5l-1 -5l-4 -2q-1 -7 -1 -14v-15q0 -84 8 -110l16 -12l2 -4v-7q-2 -7 -8 -10l-6 -2q-35 13 -54 11l-14.5 10.5t-11.5 7.5q-8 2 -13 1v5q13 17 20 27.5t9 12.5q1 7 1.5 15t0.5 18q0 44 -6 68q7 10 7 29
q0 15 -3 44l3 8q-7 10 -7 56q0 9 5.5 23t6.5 22l-6 8l-8 4q-14 -2 -39 -18t-39 -17l-5 1q-14 -6 -33 -5l-4 -2l-4 1q-6 -1 -11 -10v-11l8 -11l7 -2l5 -6l2 -11q-1 -2 -1 -5q0 -2 -1 -5l2 -5v-4l-4 -3v-5q4 -8 4 -33q0 -10 1 -31t1 -31q0 -7 -3.5 -19.5t-3.5 -18.5
q0 -5 2.5 -15t2.5 -15l-3 -13l2 -16q-5 -8 -3 -27q2 -22 -2 -28q-13 -20 -18 -32v-5l4 -9q4 -7 34 -15q28 -7 40 -17l5 -1q4 -5 14 -12t26 -17q33 -18 47 -18l4.5 0.5t12.5 1.5l10 11l2 8l-1 9l-15 27l6 7l13 -1l5 5l45 20h4l3 3l44 8.5t32 5.5l3 2z" />
    <glyph glyph-name="e" unicode="e" horiz-adv-x="367" 
d="M353 341l-3 10l-13 11q0 4 -10 25q-9 24 -9 25q-13 9 -19 19q-2 7 -3 12t-2 9l1 4q-24 51 -42 81l-9 6h-14l-6 -3l-6 -7q0 -7 -4 -14q-30 -29 -55 -39l-7 2q-2 -2 -3.5 -4t-3.5 -4h-5q-12 -9 -51 -16q-22 -4 -35 -7.5t-18 -5.5l-6 -9q-1 -5 -1 -7v-2v-1t1 -3
q1 -4 9.5 -9.5t11.5 -19.5q-2 -8 2 -37l2 -4q-3 -16 -2 -58q1 -35 1.5 -50t0.5 -10q0 -3 -1 -4l-4 -5q5 -12 5 -17l-2 -10l3 -6l-5 -3l1 -9l3 -3v-9q1 -4 1 -8q0 -7 -2.5 -18.5t-2.5 -17.5q-3 -6 -12 -15.5t-13 -21.5l3 -7q7 -9 13 -10q23 1 68 -25q43 -25 52 -25l8 -6
q24 -5 53 -15l21 4l6 8l2 8l-1 9l-3 5l2 13q17 17 32.5 31l30.5 27l1 6q3 7 9 10q7 22 9 36q1 30 -13 43q-5 1 -16 6q-11 2 -22 -6q-9 -14 -10 -23q2 -11 11 -25q-1 -3 1 -8q-1 -2 -2 -4.5t-2 -4.5l-6 -4q-7 -1 -10 -1.5l-3 -0.5q-10 0 -37 3q-30 5 -34 7h-18q-2 1 -5 1.5
t-5 1.5l-4 7l-1 9l2 6l5 6q1 9 7 15q1 4 1 6v2v3t-1 8l14 -1l8 8q6 25 21 36l4 1l7 6h4l18 10.5l13 7.5q6 2 10.5 3t6.5 2q37 27 63 39q4 9 12 16zM228 320q-7 -14 -10 -18q-10 -4 -14 -7l-2 -5l-14 -5l-13 -17l-3 5l2 9q-4 12 -1 25l-2 8l5 16q0 9 -3 15l3 7q-6 39 -6 41
q-7 21 -9 35v8l3 8l5 1l14 -27.5l10 -19.5l4 -3l18 -44t13 -32z" />
    <glyph glyph-name="f" unicode="f" horiz-adv-x="313" 
d="M326 643l-0.5 3.5l-1.5 10.5q-15 4 -26 4q-10 2 -36 28q-13 12 -21.5 21t-12.5 15q-7 2 -10 2.5l-3 0.5h-11l-11 -7q-4 -16 -9 -22q-14 -18 -53 -31q-39 -14 -64 -14h-23l-10 -9q-1 -2 -2 -4.5t-2 -4.5l4 -14l6 -8l11 -5q11 -11 14 -17q0 -7 1.5 -21.5t1.5 -21.5
q0 -32 6 -39l-2 -7l-11 2l-6 -2t-5 -2q-44 0 -39 1q-2 -15 -3.5 -27.5t-1.5 -23.5v-4l4 -9q3 0 8.5 -2t8.5 -2q4 0 11.5 2t10.5 2q4 0 12 -1t11 -1l-4 -6q0 -41 -2 -49l2 -7q-2 -8 -2.5 -12.5l-0.5 -4.5v-5l3 -5q1 -10 -6 -37l5 -11q0 -12 2 -34.5t2 -34.5q0 -13 -3 -19
l-6 -5l-1 -4l1 -4l3 -4v-8q0 -55 -6 -68l1 -6l-9 -14t-8 -10l-1 -14q5 -8 11.5 -10.5t9.5 -5.5h10q8 -3 14.5 -6l13.5 -6l3 -4h4l5 -6l13 -5t9 -4q13 -11 21 -15q1 0 22 -9t36 -9h2t7 1q15 7 19 13v12q-1 3 -10 10l-2 6q2 5 7.5 12.5t15.5 16.5q20 18 24 31l-5 12l-5 5
q-17 6 -21 5l-3 2q-4 0 -39 7l-7 11l-15 -5l-20 4l-2 5q10 17 15 26.5t7 11.5q4 14 6 23q1 11 1.5 19t0.5 13l-3 11q5 10 5.5 22.5t0.5 21.5q0 3 -1 4l-5 4q-8 25 -4 97l2 33l4 3q38 0 40 1l12 -7q-1 -35 1 -42l6 -3h22q9 7 16 22q0 2 1 7t1 8q0 5 -1.5 16t-1.5 17l-3 7
l1 10l-4 1h5q9 16 13 27q1 7 -2 16l-8 9q-19 1 -29 -7l-3 -4q-26 -11 -36 -9q-2 1 -20 1q-14 2 -18 4l-24 -15q9 13 12 24l10 11q3 12 3 21q0 37 -14 56l-10 6l-2 28q4 4 9 4l12 -4q6 -3 9 -10l7 -5l8 1q22 -60 52 -61l5 1q9 4 12 11q0 22 6 30l27 17l19 12l3 4q1 4 1 5v2z
" />
    <glyph glyph-name="g" unicode="g" horiz-adv-x="410" 
d="M406 65q0 28 -8 39q-19 25 -30 37.5t-13 14.5q-2 14 -6 20q1 12 -2 26q1 4 3 10v13l-4 7v12l4 10q1 4 -3 13l1 10l4 6q-1 15 -6 20q4 25 3 37q2 35 7 59.5t13 38.5l10 18v3l-2 4l-12 9q2 0 -4.5 0.5t-22.5 1.5l-10 7q-8 0 -13 1q-13 8 -22 13l-16 9q-46 38 -56 38h-8
l-14 -6q-20 -39 -22 -40l-1 -12q-6 0 -10 3l-19.5 -9t-13.5 -8l-11 -1l-3.5 -1.5t-8 -3t-8.5 -2.5t-5 -1q-13 0 -15 1q-15 -5 -19 -6h-5l-5 -5h-4l-10 -13l-1 -12l2 -6l9 -8q6 -8 6 -21q0 -18 -1 -21l3 -7v-11q1 -4 1 -7v-4v-41l-2 -4q-1 -6 2 -16q-5 -11 0 -23
q-1 -6 -1.5 -15t-0.5 -20l-6 -15l2 -13l4 -7q0 -6 -2 -16t-2 -15q0 -13 2 -21q-3 -11 -2 -17l-14 -14l-4 -11q0 -7 4 -14q14 -8 20 -15h11l23 -11l7 -7h7q20 -31 66 -47l15 1l8 5q1 3 1 4v2q0 -2 -1.5 5t-3.5 21q5 26 25 38l16 6t15 5q20 -11 24 -16q10 -17 19 -26l4 -21v-5
l-8 -12q-1 -3 1 -7l4 -4l-1 -10q-9 -15 -15 -21.5t-9 -9.5q-42 -13 -53 -13q-13 0 -21 4l-7 -3l-39 24l-8 2l-7 9l-5 3l-3 4q-13 6 -20 11l-2 4q-20 4 -30 9q-5 1 -9 1h-6q-20 -6 -27 -16l-1 -6l-14 -12l-11 3l-7 -1l-12 6q-7 -1 -12.5 -1.5t-9.5 -0.5q-27 -2 -52 -22
q-26 -23 -26 -47v-19l7 -2l-10 -4q19 -31 29 -39q38 -11 33 -11h16q9 4 16 5q18 16 18 36v2q0 1 -1 4q-8 6 -11 11l-7.5 1.5l-2.5 0.5h-7q-6 -4 -10 -6h-6q-4 0 -9 1l-4 4v9l7 12l15 8q6 -1 11 -0.5t10 1.5q10 -3 16 -5.5l9.5 -4t6 -3.5t7.5 -3l8.5 -5t5.5 -4q5 -9 12 -13
l7 1q10 -6 17.5 -11l13.5 -9q7 -10 17 -15h4q52 -32 68 -32h2t7 1q10 6 16 6q7 6 10 24q-1 4 -2.5 9t-5.5 12l4 11q5 1 10 9q3 1 9 2.5t14 5.5q18 6 22 5l4 3q43 13 66 24q4 7 17 13l8 12q38 18 51 73l1 -4q-1 7 1 19.5t2 17.5zM262 404l-5 -4l-12 -31.5t-9 -21.5v-5l5 -8
l-2 -9q3 -11 0 -30q-2 -14 -3.5 -21.5t-1.5 -9.5q2 -5 3 -9.5t2 -9.5l-5 -9q1 -5 1.5 -10t0.5 -9q-2 -47 0 -54q4 -19 9 -28l-5 -7q-45 2 -70 12l-21 8l17 17l3 17l4 5q5 22 5 30q0 23 0.5 35.5t1.5 16.5l-10 4l7 18q1 7 -1.5 21t-2.5 20v1q0 2 1 5l-3 5v38q0 33 -8 51v4
l2 5q7 3 10 3q13 0 61 -33q9 1 26 -7z" />
    <glyph glyph-name="h" unicode="h" horiz-adv-x="418" 
d="M383 448v14l-5 6l-10 4l-4 4q-20 7 -27 12h-3l-7 5l-18 4q-10 8 -22 13l-2 4q-11 7 -18.5 12.5t-12.5 9.5l-6 1l-6 4q-3 1 -5 1h-1l-4.5 -0.5l-13.5 -1.5l-6 -3q-9 -11 -9 -20l0.5 -4l1.5 -12l-2 -5l-12 -13l-14 1q-9 12 -9 43q0 39 1 35q4 8 4 18l-3 6l6.5 43.5
t20.5 37.5q4 1 12 5q2 -1 5 -1t7 -1q6 -6 8 -9q2 -10 -4 -24l3 -11l10 -14l24 1l14 9q2 4 3.5 6.5t3.5 4.5q1 4 1 7v6l2 4q-2 9 -2.5 15.5t-1.5 11.5q-16 22 -28 31l-6 1l-4 5l-4 1l-4 3q-13 2 -18 4q-4 -1 -6 -1h-1h-5t-8 1h-14q-29 -9 -42 -21.5t-27 -41.5h-7l-16 15.5
t-12 10.5q-5 0 -12.5 3.5t-10.5 4.5l-21 -3l-4 -5l-4 -2l-1 -5q1 -3 1 -5v-1v-2q0 -1 -1 -4q11 -10 17.5 -16.5t8.5 -9.5q0 -5 3 -16.5t3 -18.5t1.5 -23.5t1.5 -24.5v-10q-6 -9 -6 -34q0 -4 2 -12.5t2 -11.5l-1 -37q-5 -8 -5 -22q0 -3 1 -5v-6l4 -6l-1 -4l2 -6q1 3 1 -31
q0 -4 -4 -13l6 -21q-3 -32 -3 -26q0 -4 1 -7v-8l-6 -8l-3 -14q9 -18 7 -38l3 -7q1 -5 -3 -15q2 -11 -1.5 -21t-3.5 -14q5 -17 5 -21q0 -8 -4 -22.5t-5 -20.5q-19 -10 -28 -21l-2 -7l1 -14q1 -6 8 -11l19 -3l4 -4q20 -5 36 -17v-4l5 -5l4 -1l8 -6l-4 1q26 -23 41 -23
q3 0 7 0.5t9 1.5l9 8q1 7 1.5 10l0.5 3q0 10 -6 24v6l4 9q6 6 16 8l4 3l8 2q7 5 12 9.5t9 6.5l3 7l4 3l3 7l-1 5l1 5l-4 8l-14 7l-13 1l-1 7q-19 31 -16 49l-2 4q3 9 3 83q0 8 -2 25t-2 26q0 4 0.5 8.5t1.5 9.5l-3 5q-1 3 -1 4v2q1 25 3.5 41.5t6.5 25.5l3 -2l-1 4l15 10
l5 -7q31 -17 51 -27q-11 -42 -16 -63.5t-6 -32.5l3 -7q-4 -36 3 -52q2 -20 3.5 -40t3.5 -40l2 -5q-3 -13 0 -34q2 -14 3 -22t1 -12q0 -7 -3 -23t-2 -25q-12 -27 -12 -55q0 -22 11 -55l15 -16l17 -6l24 5l12 11l5 20l-3 17q-5 6 -6 10q-6 5 -10 7l-14 17q-1 5 -1.5 7l-0.5 2
q0 15 3 25t8 16.5t11.5 11.5t12.5 11q24 10 33 17l12 1l15 10l2 12l-10 11l-3 8q-2 12 -3.5 24t-3.5 24l-2 4q-1 7 -1 13v15v43l-7 9q1 10 6 13v7l-3 5v11q-1 4 -1 6v5q0 6 2 17.5t2 17.5q0 55 -1 50q3 31 19 41l-4 -5q9 9 11 14z" />
    <glyph glyph-name="i" unicode="i" horiz-adv-x="245" 
d="M200 646l-8 10l-8 10q-7 2 -17 12h-4l-15.5 18.5t-11.5 12.5l-3 1l-3 5l-8 6h-7q-4 0 -9 1q-7 -4 -12 -14v-26l-21 -14.5t-16 -10.5l-8 -14l2 -13l10.5 -12t8.5 -7l16 -4l3 -6l-1 -5l5 -4q6 -13 15.5 -18.5l19.5 -11.5h10l12 5l4 7l4 3q1 3 1 4v2l-0.5 3t-1.5 10
q2 7 5 10q-1 3 1 9l4 4l9 -5l21 14zM225 114l-18 13t-12 7q-8 6 -8 32q-1 30 -3 35l2 15l-9 6l8 5q1 8 1 11v4v15l-4 9l-4 2l-5 10q-1 3 4 19l3 4q1 10 1.5 16.5t0.5 11.5q0 75 8 97l6 2t5 2q5 7 8 13.5t5 12.5v3l-7 9q-23 9 -30 9q-3 1 -21 19q-8 8 -15 14t-14 8
q-7 9 -16 14h-5l-3 4l-19 2q-5 -5 -8.5 -9.5t-6.5 -6.5q-1 -4 2 -16t3 -16q0 -3 -1 -4q-6 -3 -10 -10l-2 -6q-14 -18 -21 -19q-3 -4 -6 -7l-7 -7l-2 -14l2 -9l9 -6.5t13 -2.5q10 -10 10 -40v-2q0 -1 -1 -3q2 -6 2.5 -10.5t1.5 -6.5q-4 -9 -1 -26l-4 -7l-1 -6q6 -17 6 -27
q0 -38 -5 -48q1 -3 1.5 -9.5t-0.5 -17.5q0 -20 -3 -26l3 -12l-3 -11q2 -9 -2 -18q-5 -15 -5 -18q-8 -8 -13.5 -13t-9.5 -9l-2 -12l2 -7l4 -4l2 -6q2 -1 9.5 -3.5t20.5 -6.5q22 -8 35 -22l5 -1q25 -33 60 -33l11 9l3 7v8l-6 15q0 6 4.5 13.5t11.5 14.5t14.5 13t13.5 9
q12 18 12 25z" />
    <glyph glyph-name="j" unicode="j" horiz-adv-x="245" 
d="M196 639v10l-5 5l-4 1l-1 4q-6 3 -9 9l-9 1q-8 10 -24 24q-2 9 -4 13l-7 6l-6 2l-1 5l-6 1.5l-2 0.5q-14 0 -24 -6q-4 -6 -6 -11q-1 -3 1 -9l-1 -5q-2 -4 -4.5 -7.5t-4.5 -5.5l-5 -1q-6 -6 -10 -12q-5 -4 -9 -6t-6 -4l-5 -4l-3 -15l9 -15l8 -1q20 -17 22 -21l-5 1
q22 -12 26 -24l8 -3q9 -13 25 -13l13 8q4 6 5 9l-3 13q2 3 7.5 8.5t12.5 11.5t12.5 12.5t7.5 11.5l4 1zM218 451q1 2 -1 8l-6 8l-8 5q-9 1 -16.5 3t-13.5 4q-22 19 -24 26l-22.5 17.5t-17.5 12.5q-5 1 -7 1.5l-2 0.5h-5q-4 0 -12 -1l-4 -2l-8 -11l-1 -5l4 -13l7 -4l1 -3
l-1 -10l-7 -7l-1 -4q-14 -11 -24 -18l-17 -12l-7 -15l1 -8q16 -12 26 -16l5 -7q5 -15 5 -43v-39q3 -18 3 -32q2 -4 3 -7t2 -7l-1 -9l-6 -7l-1 -12l9 -20q-12 -22 -9 -58l-2 -5l6 -28l-8 -16v-6l6 -16q-3 -8 -2 -13q-7 -21 -8 -34q7 -13 8 -36q10 -11 13 -19q10 -14 18.5 -28
t8.5 -33q0 -29 -24 -41l-14 -1l-6 11l-1 27q-8 11 -30 17l-8 -1l-21 -15q-12 -15 -12 -37q0 -19 22 -44l25 -9l4 1q4 -1 10 -3q8 0 16.5 1.5t18.5 3.5l5 -1q58 28 81 67l2 10q6 11 14 17l4.5 3t14.5 9q10 10 12 17q1 8 1 12v3l-0.5 2l-1.5 6q-10 4 -16 10q-9 13 -9 41
q0 25 -1 28l-4 2q0 6 1.5 20t1.5 22l-0.5 6t-1.5 17v-4q-1 7 -1.5 21t-0.5 35v86q-1 8 -1 13v9q0 -4 0.5 3t1.5 24q-1 5 -1.5 10t-0.5 10l-5 -1l-4 2l1 5l8 10l1 24v1q0 2 -1 4q15 40 18 45q9 5 14 10z" />
    <glyph glyph-name="k" unicode="k" horiz-adv-x="424" 
d="M407 112v8l-3 5l-5 4h-10l-16 6l-8 15q0 7 -1 20t-1 18q0 9 1 12l-4 5v7l9 17q-8 36 12 65v4l-7 11q-35 14 -44 13q-4 2 -7.5 3.5t-7.5 3.5l-6 -1l1 13q15 13 19 22l20.5 32.5t17.5 31.5q10 4 21 25l-5 18l-6 4q-5 1 -7 1.5l-2 0.5h-2t-7 -1l-23 8l-8 7l-3 1
q-24 7 -32 12q-7 5 -14 9.5t-14 9.5q-23 14 -29 14h-14l-7 -3l-8.5 -25.5t-5.5 -17.5q-10 -13 -17 -15l-15 7q-3 18 -3 36v1q0 2 1 4q-1 4 -1 9l2 5q0 7 1.5 20t1.5 19q0 47 23 85l11 6q5 1 7 1h3l2 -0.5t7 -1.5q1 -7 -2 -17.5t-3 -15.5l0.5 -3.5l1.5 -10.5q7 -13 16 -19
l8 -2q14 2 18 5l3.5 3t10.5 10l2 10l-10 10v4l6 4l5 8q-2 17 -4 22q-1 1 -4 5t-10 12q-23 27 -72 27l-3.5 -0.5l-10.5 -1.5q-4 -2 -9 -5t-13 -6q-12 -5 -32 -25q-2 -5 -3.5 -9.5t-3.5 -7.5v-7l-5 -3q-8 11 -15.5 20t-15.5 14h-4l-8 4q-10 1 -16 0.5t-10 -1.5q-6 -5 -11 -17
v-8l12 -7q3 -5 6 -11t7 -12q2 -21 3.5 -30t1.5 -7q0 -118 1 -121l7 -4v-11l-3 -5l2 -9l5 -3v-3l-9 -11q-5 -20 -5 -52v-9t1 -12v-22l-4 -8l2 -25l3 -5q-5 -23 1 -38q-2 -17 -7 -24v-10l3 -6v-5t1 -8v-13q0 -7 -2.5 -22t-2.5 -22q0 -24 -6 -39l-5 -4l-3 -6q-9 -6 -13 -19
q1 -5 1 -11q8 -5 14.5 -8t11.5 -5q2 -2 7.5 -6t13.5 -11q13 -11 24 -14l7 -7l3 -7l13 -7l3 -4l21 -4q10 3 15 8l3 15v3l-9 18q2 13 6 17l12 9v5q33 11 44 41l-5 9q-4 3 -7 5.5t-5 4.5h-7l-6 3l-5 12l-4 4l-1.5 7.5t-0.5 4.5q0 22 1 25q-7 18 -7 28v13l4 4q1 2 1 3v1
q0 1 -1 12l-3 33q-3 33 1 40l-2 4q1 8 1 14q0 7 1 11l-6 -2q-1 8 -1.5 13t-0.5 9l8 5q1 7 1 10v3q0 8 -1 10q2 10 3 17t2 12l7 5q11 0 31 -10q23 -11 26 -17q18 -10 33 -8l4 -2h4l6 5h5l2 -6l-1 -7l-4 -3q-20 -44 -34 -57q-10 -3 -16 -10l-9 -2q-11 2 -19 3t-13 2l-4 -1
l-7 -6l-3 -6q-2 -8 7 -21l14 -6l3 -4l14 -2q10 -12 33 -15l9 -8l-6 -20q-7 -5 -5 -20q-3 -5 -3 -14q0 -8 1.5 -20.5l3.5 -28.5l-2 -7q4 -22 -14 -39l1 -4l-9 -9l-1 -15q4 -4 9.5 -8t13.5 -8h6l5 -2l2 4l2 -7l10 -8t10 -9l1 -4q3 -5 10 -10.5t15 -10.5t15.5 -8.5t12.5 -3.5
l8 1l4 5l7 22l-4 17q1 13 19 26l-1 9q11 0 16 3q16 25 16 28z" />
    <glyph glyph-name="l" unicode="l" horiz-adv-x="245" 
d="M244 688q0 -1 -0.5 3.5t-1.5 14.5l-8 8q-10 7 -28 4l-4 2q-3 0 -30 -11l-18.5 -29t-9.5 -20l4 -6l-2 -5l-6 -2q-30 29 -49 40q-2 0 -7 1t-11.5 2.5t-12 2.5t-8.5 1h-4t-12 -1l-8 -6l-5 -9l2 -10l6 -9q5 -2 20 -20q2 -11 3 -19.5t2 -14.5q1 -35 2 -61.5t3 -44.5l-2 -5
l1 -4l-1 -4q0 -20 12 -30l-6 -6q-6 -11 -6 -53l0.5 -6.5l1.5 -19.5l2 -4l-2 -5l3 -9q0 -7 -1 -16.5t-3 -23.5t-3 -24t-1 -17q7 -13 5 -27l4 -2l2 -5q-5 -13 -4 -31l-5 -3q3 -15 0 -35l-3 -5l2 -11l3 -5l-3 -6v-21l-7 -14q-20 -11 -24 -22q1 -11 3 -15q2 -2 32 -18
q28 -14 38 -18l8 -10q13 -8 22 -14.5l15 -10.5h5l4 -3l9 -2l7 1l8 7l5 13l-2 10l-5 5l-6 13q3 14 20 25l11 2l3 7q21 13 28 28q1 8 -1 14l-10 9q-22 4 -28 9q-5 20 -8.5 35.5t-5.5 25.5q2 5 3 9l2 8q-1 5 -1 7v2q0 23 1 25q-5 25 -4 33l-7 1q5 10 5 18q0 5 -1 10v11l2 5l3 3
q1 46 -6 62q3 8 2 11l-2 5q-2 12 6 24q-1 10 2 18q-1 5 -1 15l-5 4l1 8l-4 8q2 8 7 70q4 60 3 76q16 29 19 32q13 5 22 9.5t15 6.5z" />
    <glyph glyph-name="m" unicode="m" horiz-adv-x="605" 
d="M585 117q-8 10 -30 21q-4 7 -4 21l-5 7l4 6l-3 13l1 4q-1 5 -1.5 8.5t-0.5 5.5q0 1 1.5 10t3.5 26q-11 19 -9 51l3 5q2 12 3 21t2 15l-5 7l5 5q1 24 2 39t3 22l-1 5l2 7l5 5l4 16l7 3l10 19v6q-2 2 -3.5 5t-3.5 6l-8 2l-7 5q-8 1 -14 2t-10 2q-13 7 -23 11.5l-17 7.5
q-4 1 -7 1t-5 1q-14 9 -21 12l-2 4l-12 6q1 0 -24 5q-9 -1 -15 -7l-5 -13l2 -7l-5 -10l-10 -8l-10 -8q-2 -1 -4 -1.5t-4 -1.5l-8 2q-16 16 -27 34q-11 5 -26 17q-17 2 -29 4t-20 3l-9 -6q-7 -10 -7 -14t1 -7v-8l-7 -9l-1 -4q-20 -19 -37 -19h-11q-14 7 -18 10q-16 21 -18 26
q-13 10 -27 19.5t-41 9.5h-19l-9 -4l-5 -6q-1 -2 -1 -4v-1q0 -13 4 -20q-6 -30 -36 -52l-3 -6l-5 -4l-2 -18l7 -9l9 -5q7 -1 12 -1q6 0 10 -1q1 -3 7 -9v-16l3 -6l-2 -6q5 -20 5 -28q0 -34 -1 -31l-4 -15q2 -13 4 -17l8 -6v-11l-6 2l-6 -5q0 -7 6 -20l-1 3q-6 -45 -6 -72
v-16l3 -4q-5 -11 -8 -19l-5 -13l-14 -12t-11 -8l-1 -5l2 -11l6 -7q10 1 49 -27q34 -26 49 -40q13 -3 19 -6l7 1l9 7l6 11l-2 16l-6 11l3 14q18 21 26 22q8 8 13.5 14t9.5 10l3 11q-1 2 -1.5 5t-1.5 5l-6 3l-4 5q-7 1 -12 1q-4 0 -6 1l-5 7q-5 13 -5 77q0 10 1 31t1 31v1
q0 2 -1 5l2 6l-2 8l6 21q-2 11 -3 20t-2 15q2 20 3 36t1 27q5 9 10 11q5 -1 13 1q42 -20 41 -20q4 -17 6.5 -30.5t3.5 -21.5q1 -6 1 -11v-7l-5 -16q2 -14 0 -35q-1 -14 -1 -23v-12q0 -16 4 -25l-4 -8l3 -5v-6q0 -7 -1.5 -21.5t-1.5 -21.5l2 -4q-1 -12 -4.5 -27t-9.5 -34
q-8 -11 -16 -15q0 -14 7 -21q12 -1 32 -18q7 -7 14 -13l15 -13l2 -5q17 -13 35 -21q5 -1 7 -1h2l3 0.5t8 1.5l6 6l3 11q-1 9 -8 24l4 17q14 17 25.5 29l19.5 20l2 9l-1 6l-8 8l-11 4q-4 -1 -10 -1q2 11 -4 54l2 6l-1 5q2 6 2 32q0 9 -2 15q3 7 3 66q0 6 -1.5 16t-1.5 13
l-6 12l-1 10q2 4 4 8.5t4 9.5v11l3 8q-2 5 -3 9.5t-2 8.5v6l6 8l11 5l21 -4l4 -4q33 -14 48 -29l-8 -8q0 -3 -10 -32q-7 -18 -5 -34l-3 -8q0 -11 3 -17l-3 -9v-4l4 -6q0 -6 -6 -15q-2 -12 3 -20v-8l-3 -5v-9l2 -4q-2 -18 7 -27q0 -10 -0.5 -17t-1.5 -12l7 -3l-5 -1
q1 -40 -9 -55q-5 -3 -9.5 -5t-6.5 -4l-3 -9l2 -11l4 -3l2 -6q31 -4 46 -27l8 7l6 -12l-3 -5l8 -4q16 -27 50 -27h4l7 8l4 11q-10 20 -10 23l3 16q18 18 21 25l8 1q11 11 16 22z" />
    <glyph glyph-name="n" unicode="n" horiz-adv-x="425" 
d="M418 114l-4 10l-30 10q-5 5 -8 9t-5 6q-2 11 -3 16l-1 5v37t1 6q-2 19 -3 31t-1 17l-3 3q3 22 3 27v4l-2 5q1 4 1 10q8 21 8 26q0 56 1 60q3 38 19 55q1 6 1 9v3v1q0 2 -1 6l-11 4l-1 4q-17 4 -30 6.5t-21 3.5q-5 1 -21 15q-12 9 -22 11l-7 6q-10 4 -15 5l-3 5l-16 6h-13
l-12 -6l-3 -12l4 -10q0 -4 -6 -14l-15 -13l-13 -2l-5 1q-14 14 -25 23.5t-18 16.5h-5q-23 11 -55 12l-3 2l-6 -2l-12 -13q-1 -5 -1 -7v-2q0 -3 2 -9.5t2 -9.5v-4q-1 -2 -2 -3.5t-2 -3.5l1 -4q-10 -10 -16.5 -18t-11.5 -13l-4 -1q-8 -6 -12 -22l3 -12l13 -9q8 -1 16 -1.5
t15 -0.5l5 -19q-1 -2 -1 -4v-1v-2q0 -1 1 -5q-3 -5 -3 -8q0 -5 2.5 -16.5t2.5 -17.5q0 -43 -3 -52l3 -5q1 -6 -1 -12q1 -4 1.5 -9t-0.5 -12l-5 -13q-2 -12 3 -21q-1 -2 -1 -3v-1q0 -10 1 -13l-2 -8q2 -6 1 -11l-3 -5q-5 -44 -9 -54q-9 -4 -16 -12l-3 -6l-1 -12l2 -5
q13 -16 28 -13q17 -6 28 -17l6 -10q24 -14 29 -23q10 -6 23 -9l19 6l6 6l1 13q-4 7 -6 11.5t-4 7.5l6 7l5 14l6 2q9 9 18 17t17 16l3 9v13q-13 12 -41 14l-5 3q-1 7 2 15l5 6q8 32 8 84v1q0 2 -1 5l2 7q-2 19 -4 31t-4 19l-6 4q6 1 10 7q1 5 1 7v2q0 15 -2 21l1 6q-1 3 -1 7
q-2 42 -6 51q-10 21 -10 20l3 7l6 3q17 -2 25 -7l21 -11h4q32 -22 42 -23l-6 -4q-4 -16 -6 -27t-4 -19q3 -10 -2 -27l2 -7q-3 -15 -3 -40v-15l6 -1l-5 -3q-2 -15 -3.5 -21t-1.5 -2q0 -5 3 -14l-1 -18l2 -4q-1 -37 3 -56l2 -4q-3 -18 -2 -25l-6 -10q-5 -2 -17 -14l-1 -8
l3 -10q6 -5 24 -15q15 -7 23 -19l1 -9l11 -3l5 -7q6 -1 11 -10q20 -8 26 -12h11l10 3l6 7l2 6q-4 20 -4 21q-4 7 -4 14q4 13 19 28l10 3l19.5 14l14.5 10z" />
    <glyph glyph-name="o" unicode="o" horiz-adv-x="396" 
d="M368 121v4l-8 11l-9 3l-3 9l1 5l-1 6l2 3l-6 39l2 4l-4 3q6 6 6 28q0 11 -3 19q3 12 3 15q0 7 -3 12v10q1 5 1 10q0 4 -1 7v8l2 5q-1 11 1 18q-2 12 2 22l-3 15q0 4 3 13.5t3 13.5q0 9 -1 12l3 14q7 7 7 16l-0.5 3t-1.5 8l-16 11q-37 6 -97 51l-9 3l-5 8l-23 11
q-5 1 -8 1h-3q-6 0 -12 -2l-8 -6q-5 -8 -5 -11v-3t1 -8q-3 -13 -15 -22q-20 -14 -22 -16q-77 -18 -98 -28q-5 -8 -6 -12l2 -8q5 -8 12 -11q7 -11 7 -37q0 -23 2 -29l-2 -5q0 -17 1 -22l4 -4q-2 -5 -2.5 -9t-1.5 -7l4 -7q1 -4 -4 -19q1 -7 1 -12t1 -7l-2 -9q1 -3 1 -37l6 -6
l-5 -4q0 -31 -15 -86l-12 -14l-3 -10l6 -9q9 -2 19 -8h4q11 -4 42 -20q30 -17 35 -24q2 -1 4.5 -2.5t6.5 -3.5q4 -3 12 -3l2 -4l11 -2q15 -8 16 -11q20 -4 21 -4l17 11l4 8q0 14 -7 21l-1 8q5 11 52 31q49 20 62 19q8 4 14.5 6.5t11.5 3.5l4 6t4 7zM248 140q1 -3 -2 -11
q-5 -1 -8 -1h-2q-47 0 -78 15l-4 5q4 8 6.5 14.5t4.5 10.5q4 26 6 41l-2 4q4 7 4 16v1q0 2 -1 6l5 13v4l-7 15l4 19q0 31 -4 36q1 29 1 51q0 23 -2 39q-5 8 -5 12v6l8 3q5 -2 9.5 -3t6.5 -2q11 -8 19.5 -13t14.5 -7l15 4v-8q-4 -7 -6 -16l1 -9q-4 -16 -4 -27l2 -21
q1 -10 1.5 -15.5t0.5 -7.5l7 -8q-8 -11 -6 -20l6 -11l-1 -4l-7 -7l-1 -17l2 -5l-1 -9q1 -4 0 -25q-2 -13 -2.5 -19.5l-0.5 -6.5l0.5 -4.5t2.5 -14.5q4 -11 17 -23z" />
    <glyph glyph-name="p" unicode="p" horiz-adv-x="425" 
d="M398 83v5q-2 4 -4 7l-4 6l-6 1l-8 10q-10 29 -10 131q0 8 0.5 14.5t1.5 13.5l-2 3q0 3 -1 9t-1 9q0 14 4 26l-3 6q0 6 4 11v31q0 23 7.5 35l15.5 24q-1 2 -1 3v2v1q0 2 1 6l-4 7l-8 4q-68 1 -82 9h-10q-10 5 -18.5 8t-16.5 5q-5 7 -9 9q-3 10 -10 15l-2 9l3 13l-1 8
q-9 12 -17 15q-11 -1 -19 -1q-7 0 -12 -1l-34.5 -19.5t-24.5 -13.5l-4.5 -2t-12.5 -7q-44 -16 -69 -19q-3 -2 -9 -9l-2 -7l4 -14q13 -9 16 -12.5t6 -7.5q8 -26 8 -90q0 -24 -1 -21l-2 -6q-1 5 -1 -11v-52v-11l5 -12l4 -2l-6 -1q-1 -3 -1 -5v-1l3 -25q0 -4 -1 -13t-1 -12
q-4 -5 -4 -19q0 -6 1 -14.5t2.5 -18.5t2.5 -18.5t1 -14.5q0 -17 -6 -32l2 -10q-2 -5 0 -12q1 -5 1.5 -8t0.5 -4q0 -81 -18 -112l-7 -7l-11 -3q-4 -2 -6 -4l-4 -4l-5 -2q-10 -10 -13 -25l1 -15l11 -13q2 -2 16 -5q11 0 31 5q4 3 9 7.5t8 6.5q18 21 27 56l3 1l9 -4l16 -20
l5 -2q14 -13 23 -17q5 0 17 -5h8t13 -1q5 5 18 11l3 13l-3 9q-15 18 -26 27q-1 2 -2.5 8t-4.5 15q-4 13 -3 23l-2 4q-1 11 -1.5 17l-0.5 6q0 45 7 76l5 1l7 12l7 5q7 3 18 3l21 -9q2 -4 6 -8l2 -7l-1 -10q-9 -7 -11 -13l-1 -15q1 -8 9 -16q7 -1 11 -1.5t5 -0.5q22 0 60 33
q10 7 18 11.5t13 6.5q29 14 35 13q2 3 5 6l5 5l1.5 6zM279 127h-6l-8 6q-11 1 -15 3q-13 -2 -23.5 -4t-19.5 -3q-5 -2 -8 -2.5l-3 -0.5h-14l-5 10q10 27 10 45q0 10 -3 39q-3 28 -2 39l-2 5v9l3 8q-2 7 -4 9l-1 8l4 6l1 8l-3 5q-1 5 -1 17v31q0 27 -5 47q19 6 20 7
q7 -1 30 7l4 4q2 0 6.5 1.5t6.5 1.5h7l8 -9l1 -4q-7 -41 -7 -65q0 -3 -0.5 -9l-1 -12.5l-1 -13t-0.5 -9.5v-10q0 -9 1 -29l2 -4l-2 -24q1 -4 10 -14q-6 -2 -8 -3q-1 -13 -1.5 -19l-0.5 -6q0 -6 5 -14l-1 -4l5.5 -14.5t4.5 -10.5q5 -4 16 -21q1 -4 1 -6v-1v-4z" />
    <glyph glyph-name="q" unicode="q" horiz-adv-x="425" 
d="M425 -145q-1 4 -2 7.5t-2 6.5l-9 10l-5 2q-1 4 -10 9l-10 2q-25 22 -25 120q0 1 0.5 4t1.5 8q1 6 -1 12l2 10q-1 1 -6 28q0 11 3 35q2 12 3 21t1 14q0 14 -4 19q0 3 -1 11.5t-1 12.5l3 26v1q0 2 -1 5l-6 1l5 2l2 6t2 5v61q0 19 -1 14l-2 5q1 4 1 7q0 4 1 6l-3 9
q2 38 4 60t4 29q3 3 5 9q5 4 9.5 6.5t7.5 4.5l4 14l-2 8q-6 7 -9 9q-39 3 -69 19q-8 5 -12.5 7l-4.5 2q-47 35 -72 35h-18q-9 -6 -16 -15l-2 -8l3 -13l-2 -10l-6 -7l-2 -6q-6 -1 -11 -10l-35 -14q-6 1 -21 -2q-15 -4 -20 -4q-11 -1 -20 -1h-13l-18 -1l-8 -5l-3 -6v-13
q2 -2 3.5 -5t3.5 -5l4 -2q11 -22 11 -77q4 -5 4 -11l-3 -7q4 -8 4 -19q0 -5 -1.5 -14.5t-1.5 -13.5v-89q-1 -67 -17 -79l-5 -2q-6 -5 -9 -12q-1 -5 3 -11.5t9 -12.5q20 -4 31 -9q10 -8 18.5 -13t16.5 -9q5 -9 26 -22q22 -12 34 -12q5 0 16 3q6 6 10 16l-2 14q-3 7 -10 14
l-2 10l2 7q5 5 7 8l20 9q10 -2 18 -3l7 -5l7 -12l5 -1q1 -5 2 -9t3 -9q-2 -8 0 -21l1.5 -15t0.5 -6q0 -40 -4 -44q1 -7 -5 -28q-5 -20 -11 -26q-7 -6 -11.5 -10.5t-8.5 -7.5l-3 -9l3 -13q13 -6 18 -12q16 3 21 2q12 5 17 5l14 9t9 8l5 2l16 20l9 4l3 -2q23 -74 64 -74
q19 0 27 5l11 13q1 8 1 12v3zM251 411q-5 -48 -5.5 -71.5l-0.5 -23.5l-3 -5l1 -8l4 -7q-2 -6 -3 -10.5t-2 -6.5l3 -7q-1 7 -2.5 -13.5t-4.5 -68.5q-1 -13 10 -56l-5 -9h-14q-2 0 -11.5 2t-26.5 6l-5 -1q-2 1 -5 1.5t-5 1.5q-11 -1 -16 -3l-8 -6l-6 -1q0 7 1 12q10 15 16 20
q8 16 10 26l-1 4q5 7 5 13v6q0 7 -1 20q-2 1 -4 1.5t-4 1.5q7 9 9 14l-1 24q3 4 3 43q0 6 -2.5 19t-2.5 20q0 43 -6 70l1 4l8 9q5 0 20 -4q4 -4 16 -6l3 -2q10 -3 15 -2q10 -5 20 -7z" />
    <glyph glyph-name="r" unicode="r" horiz-adv-x="340" 
d="M350 468q0 10 -7 20l-10 8q-3 -1 -37 12l-9 9q-8 2 -20 14q-11 1 -15 3q-6 -2 -11 -1l-7 -4q-9 -12 -9 -17q0 -8 1 -10l-3 -13q-5 -5 -9.5 -10t-9.5 -10q-5 -1 -7 -1.5l-2 -0.5h-8l-5 4q-7 11 -11.5 19.5t-8.5 13.5q-37 32 -77 32q-19 0 -23 -1l-8 -14v-8q7 -16 8 -21
q-4 -12 -9 -22q-33 -33 -33 -46q0 -6 3 -12q4 -6 18.5 -8.5t24.5 -13.5q2 -17 3.5 -31.5t0.5 -25.5l-1 -3q0 -4 6 -13l-8 -5q5 -17 6 -25q-1 -5 -5 -15l2 -14q-6 -11 -6 -24q0 -5 5 -13q0 -4 1 -10t1 -9q0 -25 -6 -35l2 -19q-3 -11 -2 -23q-10 -18 -26 -22q-8 -9 -9 -16
l1 -8l5 -6q6 -3 11 -6t10 -5h7q4 -2 8.5 -4t9.5 -3l11 -12h11q18 -8 25 -15l6 -8q6 -2 21 -13q11 -7 23 -7q16 6 23 13q1 3 1 4v2q0 18 -5 28q-1 4 2 12l5 5q39 10 56 24l9 12l2 11l-7 17q-8 2 -43 9q-39 8 -42 7l-7 3q1 10 6 15l1 7l4 4l5 1q5 13 7.5 20.5l3.5 10.5l-5 17
q0 2 1.5 9t1.5 10v32l-4 5q-1 2 -1 10v7q2 4 4 10t4 16l-6 9l-3.5 34.5t-1.5 29.5q0 9 4 18l6 5q4 1 5 1h2h7q25 -12 26 -40v4q1 -25 18 -37l16 -2q16 11 20 18q1 13 1.5 18t0.5 1v1q0 2 -1 4q1 4 1 10l8.5 15t5.5 9l15 11l4 8q5 3 13 14.5t8 15.5z" />
    <glyph glyph-name="s" unicode="s" horiz-adv-x="397" 
d="M380 489l-6 11l-6 4h-6q-3 0 -8 1q-14 -5 -26 -12l-11 1q-87 51 -108 53q-18 -2 -29 -17q-2 -8 -3 -11l2 -10l-2 -7l-3 -4q-13 -4 -22 -5.5l-15 -2.5q-8 -2 -14 -4t-10 -4l-12 3q-10 -2 -17 -4t-12 -3q-8 2 -16.5 -2t-11.5 -11l-1 -11l2 -5l12 -9q2 -16 7 -21
q-5 -8 -5 -15l3 -5l-2 -8q1 -3 0.5 -9t-1.5 -12.5t-2 -12t-1 -8.5q0 -54 20 -71l32 -15.5l33 -15.5q4 1 11 -0.5t18 -3.5l3 -4q37 -9 48 -18q1 -8 1.5 -11.5l0.5 -3.5v-39q3 -16 22 -33q-1 -6 -6 -11q-4 -1 -6 -1h-1q-6 0 -15 2.5t-17.5 7t-15 9.5t-9.5 10l-9 -3l-14.5 10.5
t-10.5 8.5q-23 13 -33 18q-11 1 -16 1.5l-5 0.5l-2.5 -0.5l-7.5 -1.5l-13 -13l-3 -10q3 -12 -9 -30l-28.5 -20t-20.5 -14q-19 -39 -19 -50q0 -5 2.5 -19.5t1.5 -20.5q6 -17 16.5 -27t22.5 -20l4 1q5 0 10 -4h11q13 0 25 4q7 10 11.5 17t6.5 12l-1 12l-7 8.5t-5 5.5l-9 3h-9
q-6 -6 -18 -7q-12 4 -13.5 13.5l-1.5 9.5q0 4 6 19l15 11q21 3 59 -26q45 -34 66 -40q3 1 4 1h2h2t6 -1l12 4l9 9l3 12q0 9 -4 18q9 16 15 19q20 6 29 11l4 8l11 -3q9 6 23 11q9 0 25.5 4.5t25.5 3.5q11 8 14 19q1 4 -2 10l-8 6q-3 4 -3 42q1 2 1 4l-1 5q5 27 6 41
q-2 36 1 45l-3 7l2 6l-3 15l-11 14q-10 4 -17 6.5t-12 3.5l-7 5q-15 1 -28 11q-9 -1 -34 6q-26 7 -30 6l-3 2l-10 2l-12 8q-5 8 -5 26v9q0 6 1 14q1 7 1 12v9q-1 6 -3 12t-4 11l13 -12l4 -1q18 -17 34.5 -29.5l30.5 -22.5l4 -1l4 -5q18 -7 26 -7h3t8 1l6 3l4 5l3 10
q-2 21 -1 22l4 4l1 7q9 1 33 19q22 16 27 26q1 5 1.5 9.5t0.5 6.5z" />
    <glyph glyph-name="t" unicode="t" horiz-adv-x="291" 
d="M308 532v3t-1 9q-5 10 -15 14l-10 2l-14 -4l-9 -9q-7 -20 -16 -36q-13 -13 -38 -13h-18t-13 1v20q0 40 7 67l-1 8q4 13 18 29t26 20l11 18l-4 18l-18 17q-7 -1 -12 -1h-8q-45 -6 -75 -86l-2 -4l3 -8q-22 34 -49 45q-5 -1 -21 2l-13 -6l-5 -15l6 -15q25 -16 25 -83v-21
q-8 -7 -21 -7l-4 3l-20 2l-6 -2l-3 -4l-2 -12q3 -8 3 -13v-34l5 -8q13 3 37 3l10 -4l2 -13l-3 -7q3 -8 -1 -18l3 -13q-1 -5 -1.5 -7l-0.5 -2v-41l6 -6v-7l-2 -5l1 -8q-7 -18 -7 -24q0 -43 -3 -49l6 -16v-6l-5 -1q-8 -41 -5 -74q-5 -12 -4 -20l-6 -5l-5 -12l16 -27q2 -1 8 -3
t16 -4q15 -5 21 -12q4 -2 7 -3t7 -2l2 -6q22 -13 35 -18l2 -4q4 0 11 -3.5l14.5 -7.5t15 -7t13.5 -3h5l11 5l6 10q1 5 0.5 8.5t-1.5 7.5l-6 8v9q1 7 22 26t25 28l2 17l-8 11q-7 4 -17 4q-9 0 -10 -1q-6 -1 -19 7l-24 -2q-20 7 -21 6l-3 3l-6 2l1 7q12 8 18 16l3 8q0 8 -1 10
q1 25 0.5 45t-2.5 36l-2 4l4 1q1 16 1 27v18v10q-3 20 -4.5 38t-2.5 35l3 7q-5 15 0 27q4 1 8 1.5t9 0.5h18q13 -10 23 -24q6 -2 12 -2h4q19 7 19 21q-2 9 -5 15l-5 10l1 13l11 10l4 1q7 7 8 10q23 25 23 44z" />
    <glyph glyph-name="u" unicode="u" horiz-adv-x="424" 
d="M404 109v8q-3 7 -9 11q-16 5 -22 6q-5 23 -5 30v7l3 8l-4 8l1 10l4 7l-7 10v6l4 6l-4 10q-1 4 2 11q-6 24 -6 63q0 5 2 15t2 14q0 78 6 84q18 12 25 19l3 18l-8 12q-6 2 -15 4t-20 4q-2 2 -13 9q-8 5 -11 13q-6 4 -10 7q-3 5 -7.5 10.5l-9.5 11.5q-10 1 -16 6l-18 -2
l-7 -4l-9 -11l-3 -12q6 -19 12 -26l-15 -4l-8 -6q-4 -5 -7 -9.5t-5 -6.5l-5 -3q-7 -9 -11 -18q-1 -8 -1.5 -11.5l-0.5 -3.5v-2q0 -1 1 -4l6 -9l25 -14q6 -9 6 -29q0 -9 -2 -27.5t-2 -27.5t4 -17l7 -2l-6 -8q-6 -26 -6 -35q0 -10 -1.5 -30t-1.5 -30l1 -6l3 -18q6 -12 14 -17
l1 -13l-8 -5q-46 9 -47 10l-15 1q-12 4 -20 4l-4 7q5 18 11 27q9 33 5 63l2 5q-2 13 -3 29t-1 35q0 44 -2 54q2 7 2.5 10.5l0.5 3.5q0 28 -3 42q3 10 3 15q11 16 16 22q1 5 0.5 9t-1.5 8l-11 6h-6l-1 5q-19 7 -29 14l-23 20.5t-17 13.5q-15 5 -19 5q-7 0 -11.5 -0.5
t-8.5 -1.5q-9 -17 -9 -23q1 -11 7 -16v-6l-24.5 -29.5t-18.5 -20.5l-5 -17l1 -7l11 -11h11l3 -5h5l5 -4q0 -3 2 -10.5t2 -11.5v-5q0 -2 -1 -7v-12q-5 -6 -6 -16l7 -11q1 -8 1.5 -16t0.5 -15q0 -2 -1 -6t-1 -7l4 -6v-25l-2 -6l2 -10q-3 -9 -2 -22l-5 -4l2 -8q-1 -4 -1 -8
q0 -3 -1 -6l3 -6q1 -10 1 -15v-4q0 -29 -8 -40q-17 -20 -21 -30l-1 -9l2 -7l6 -6q19 -5 26 -9h4l17 -12t12 -8q36 -26 37 -27q19 -10 44 -12l12 4q9 7 9 19q-7 15 -14 24v8l5 13l5 5l14 5q18 -2 23 -5.5t6 -7.5q13 -1 19 -11l1 -5l14 -15.5l10 -10.5q9 -3 23 -12
q5 0 14 -3.5t15 -3.5q9 0 22 5q6 6 8 21q-1 5 -2 8t-2 5l-6 5q2 3 3.5 7.5t3.5 9.5q0 1 17 16q8 8 13 11.5t6 4.5z" />
    <glyph glyph-name="v" unicode="v" horiz-adv-x="418" 
d="M398 465l-2 8l-11 8l-17 2l-24.5 14t-18.5 11q-20 27 -41 35h-12l-9 -6l-6 -11q1 -5 1 -10q0 -4 1 -6l6 -9v-5q-3 -8 -18 -21l-12 -2l-7 -5l2 -8q-3 -8 -12 -12l-5 -8l-1 -11q1 -5 8 -12q8 -4 14.5 -6.5l11.5 -4.5q4 -23 6 -41.5t1 -32.5l-5 -12l5 -14q-9 -14 -9 -40
q5 -13 5 -20v-9q0 -6 -1 -19q-2 -20 0 -30q1 -8 3 -14.5t4 -11.5q11 -8 11 -20v-5l-3 -6l-6 -4q-12 1 -32 6l-9 11l-12 6q-15 -2 -22 -6l-8 1l-9 6q-1 2 -1.5 4t-1.5 4q25 19 25 58q0 9 -2 26.5t-2 26.5q0 20 1 40t3 40l-8 5q0 9 4 17q-2 7 -3.5 11t-2.5 6v10q0 13 8 40
q17 19 17 28v7l-8 12q-10 1 -18 2t-15 3l-6.5 4.5l-7.5 5.5q-5 13 -34 36q-8 2 -15 8h-4q-2 1 -4 1h-8l-13 -7l-6 -13q1 -5 2.5 -11.5t5.5 -14.5v-6q-6 -6 -10 -12l-24 -21q-17 -17 -17 -26l4 -14q9 -7 15.5 -11t11.5 -6q4 -6 10 -33q6 -26 6 -35q0 -82 3 -95
q-2 -7 -3 -11.5t-2 -6.5q2 -11 -1 -37l2 -5q2 -30 -8 -45q-2 -3 -9 -12t-19 -23l-2 -10q1 -11 9 -18l7 -3q37 -3 44 -10l6 3l8 -2l2 -6l11 -2v-8l24.5 -13.5t17.5 -9.5l3 -4q5 -3 9.5 -5t7.5 -4l7 -1l5 -5q4 0 11.5 -1.5t10.5 -1.5q15 0 21 3l9 8l3 12v3t-1 8q-5 8 -5 14
l6 10l19 13l10 -1q7 5 16 7l6 5l9 3q6 3 9 10q5 0 12.5 2t15.5 4.5t15 5t11 2.5l12 12l2 7q-1 5 -1.5 8t-0.5 5q-9 20 -12 32q0 6 -1.5 22t-1.5 24v3t1 8l-4 12h-5q-1 11 -1 16v5v9q7 14 7 16v7q0 5 -1 12v20l-3 8q2 8 3 11q0 2 -1 7t-1 7l5 7q0 3 1 9.5t1.5 14l1 14.5
t0.5 10l8 19q23 16 22 31z" />
    <glyph glyph-name="w" unicode="w" horiz-adv-x="595" 
d="M575 449v16l-4 7q-21 7 -35 7l-7 7q-26 17 -37 30l-2 5q-6 3 -9 9l-13.5 5t-9.5 3l-13 -4q-8 -8 -8 -17q2 -8 5 -15t5 -14q-24 -27 -37 -37l-6 -14v-4v-6q0 -3 1 -7l5 -6l7 -4h4l4 2l2 -7l4 -1l2 -8l-1 -6l1 -4q-1 -7 -2 -12.5l-2 -10.5l3 -10q-2 -10 -5 -14l4 -10
q1 -4 -2 -15q3 -8 -3 -24q0 -2 2.5 -8t2.5 -9q0 -8 -1.5 -25.5t-1.5 -25.5v-6q0 -3 1 -8v-14l2 -4v-20l2 -5v-5l2 -5l6 -6l2 -10q-2 -5 -6 -11q-18 0 -41 6t-35 7l-1 5l-7 6q4 26 6 37.5t2 7.5q0 16 -0.5 39.5t-1.5 55.5t-1.5 56t-0.5 40q0 4 1 13t1 14q7 10 12.5 17
t10.5 11q-1 5 1 13l-1 5q-8 8 -26.5 18t-26.5 18h-8q-6 10 -6 15q-23 17 -31 26l-22 1l-13 -9l-2 -6l2 -9l-1 -3q4 -9 4 -24v-2q0 -1 -1 -5q-8 -8 -13 -14.5l-9 -11.5q-4 -2 -6.5 -4t-4.5 -3q-7 -8 -8 -14q-1 -7 3 -20l32 -29q2 -6 3 -10q-2 -6 -2 -24l6 -6l-6 -12
q2 -6 3 -10.5t2 -7.5q-4 -9 -4 -13v-26l-8 -6l4 -14l4 -4l1.5 -9l0.5 -3q-1 -16 -2 -24.5t-2 -10.5q3 -24 3 -36q0 -5 -4 -10v-8l-4 -10l-9 -10q-11 -2 -38 9q-15 5 -25.5 7.5t-15.5 3.5l4 11q17 20 19.5 30t2.5 24q0 17 -0.5 29t-1.5 20q0 2 -1.5 7t-1.5 8v19l3 5
q-1 20 -2 34.5t-3 24.5q1 17 0.5 27t-1.5 14q3 15 2 22q7 11 12.5 18.5t10.5 12.5q1 13 -6 22l-8 4q-19 2 -33 10q-3 2 -9.5 7.5l-17.5 15.5l-3 6l-10 7l-7 1l-12 9q-3 -1 -5 -1h-1h-3t-8 1l-8 -4l-7 -8l-1.5 -10.5l-0.5 -3.5q0 -4 3 -13t3 -12l-3 -7l-5 -5h-3l-17 -12v-3
q-4 -4 -6.5 -7t-4.5 -5l-1.5 -10.5l-0.5 -3.5v-6q18 -18 24 -19q1 -5 7 -10q5 -25 6 -37l4 -2q0 -1 -0.5 -7.5t-1.5 -17.5l1 -3l-1 -5q3 -12 2 -22l-3 -8v-17q1 -7 -4 -16v-13q3 -5 3 -11l4 -7q3 -24 -5 -60l3 -11l-3 -6q-1 -4 2 -16l-3 -6l-4 -2l1 -8q-9 -15 -23 -20
l-5 -11v-13l9 -9q5 0 13 -2t16.5 -5t16.5 -5.5t13 -2.5l13 -8l5 -9q4 -4 9 -4l8 -6l2 -4q4 0 18 -10q15 -8 19 -12q19 -2 26 -3t3 -1l3 3l4 1l5 4q1 4 1.5 7t1.5 7l-2 9l-8 12q-2 19 15 25l16 -1q18 -10 35 -24q19 -14 27 -18q4 -2 12 -5t20 -8q1 -1 5 -2.5t11 -5.5
q9 -4 16 -4h10l14 6q4 4 4 10v7q-5 7 -7 16l1 7q28 24 45 32q20 -5 35 1l6 -6h9q4 7 35 16l20 6l20 6q4 5 6.5 9.5t4.5 7.5l-3 11q-8 6 -14 17q-1 10 -2 16.5t-2 8.5q1 7 1.5 10l0.5 3v68q4 19 9 28l-8 22q4 18 -3 51l4 18l-3 7q1 7 1.5 11t0.5 6l-5 8q14 25 27 32l1 5l5 1z
" />
    <glyph glyph-name="x" unicode="x" horiz-adv-x="419" 
d="M409 116v3q0 4 -1 12l-5 9l-7 5l-12 1q-25 14 -29 23q-4 8 -8 13.5t-8 9.5q-2 12 -23 28l-8 16l1 8q-15 33 -28 49l2 5q63 63 81 120q3 9 3 10l2 53q2 35 -36 55q-3 0 -9 1t-8 1q-11 0 -21 -2q-13 -7 -22 -19l-1.5 -4.5l-0.5 -1.5v-31q1 -8 9 -18l10 -5l3.5 -13.5
t3.5 -9.5l-4 -5q1 -21 -10 -39l-22 -35l-14 -8l-6 2l-3 11l-5 4q-2 5 -6 11l-1 6q-6 12 -12 19l-1 8l-11 8l-17.5 36.5l-12.5 25.5q1 9 0.5 18t-2.5 18l-29 14l-7 -2l-3 7q1 0 -11.5 1.5t-38.5 3.5l-13 -5l-6 -6l-5 -12q-2 -5 3 -22l4 -6v-4l-4 -9l-7 -4v-4q-8 -10 -13 -11
q-17 -23 -17 -26q0 -18 3 -22l15 -7l18 2l12 -3l20.5 -25.5t13.5 -26.5q6 -4 10 -15q13 -8 26 -34l-1 -9q-1 -4 -23 -21q-10 -8 -17 -12.5t-11 -6.5l-3 -8l-11 -7q-9 -13 -15 -22.5t-10 -16.5l-6 -4l-4 -7l-9 -3l-2 -7l4 -7q-13 -23 -13 -76q0 -21 5 -38l-2 -9l4 -7l1 -12
q27 -34 60 -31q34 12 34 40q0 11 -14 44q-13 30 -13 56q0 12 5 27q8 21 9 22q21 19 30 33q5 2 9.5 5.5l9.5 7.5l4 1q5 10 9 14q4 -20 40 -70q32 -43 34 -65q-5 -15 -19 -25l-3 -13l2 -5l8 -8q40 -9 79 -49q24 -5 35 -9l6 2l6 5h4q1 7 1.5 9.5t0.5 1.5q0 5 -2 14t-2 14v3
q3 10 10 18l7 3l4 8l5 3l14.5 17t7.5 18z" />
    <glyph glyph-name="y" unicode="y" horiz-adv-x="434" 
d="M410 75q-8 18 -12.5 27l-4.5 9q-1 2 -4.5 5.5l-8.5 8.5t-8 19l-11 4l3 9l5 5v11q-1 5 -1 10v29q0 9 1 27.5t1 27.5q0 26 -5 39l-5 2q2 3 5 6.5t6 8.5l-2 19q7 18 7 30v9l-3 5q0 26 7 36q5 5 10 9t9 8l1 10q-2 4 -3 7t-2 5l-35 17l-14 7q-1 1 -6 5t-13 12q-10 10 -21 13
h-1v3l-5 6q-15 5 -20 6l-7 -2l-11 -8l-4 -8q0 -4 2.5 -12t2.5 -13q0 -10 -2 -14q-7 -13 -25 -24q-4 -9 -17 -19l-1 -19l2 -5q9 -8 16.5 -13.5t12.5 -8.5l2 -3q-1 -1 1 -22v-3l-5 -10v-15l4 -5q-3 -13 2 -27l-4 -1q-3 -26 7 -43l-2 -5l-7 -7q-1 -10 -1 -23v-28
q0 -14 5.5 -31.5t5.5 -23.5v-9q-7 -1 -10 -1h-3q-1 0 -72 13q14 30 14 99q0 21 -3 29l3 7v6l-5 9l-1 11q1 4 2 7t2 5q0 8 -0.5 19.5t-1.5 27.5t-1.5 28t-0.5 20q0 12 9.5 21t12.5 17l1 12l-8 9q-20 3 -55 38l-2 5q-12 6 -17 14q-11 4 -19.5 6t-13.5 4l-5 -1l-14 -14
q-3 -8 -3 -12q0 -11 7 -21l-3 -12q-6 -2 -25 -21q-21 -21 -23 -24v-16l4 -9q18 -5 31 -21l4 -10v-7l4 -10v-12q1 -5 1 -8v-4q0 -11 -6 -20q1 -8 -1 -16q6 -9 6 -24v-6q-5 -8 -5 -12t4 -15q-1 -22 -1.5 -36t-0.5 -19q0 -2 1.5 -6.5t1.5 -6.5q0 -47 -8 -58q-19 -10 -22 -23
l1 -18l10 -7h5q36 -20 60.5 -35.5t38.5 -25.5q3 1 19 -4l6 2l11 12l2 11l-6 11l6 19q7 6 18 18l14 -1l6 2q22 -6 35 -11l-1 -4l5 -5l5 -1l4 -3l4 -9l3 -3l2 -10.5t2 -13.5q-3 -14 -3 -21q-11 -14 -17.5 -23.5t-10.5 -13.5q-12 -5 -18 -11q-11 -2 -18 -8h-12q-27 0 -46 13
q-9 5 -38 31l-6 1l-4 7q-7 4 -12 6.5l-9 4.5l4 1l-27 14l-25 1l-17 -10q-3 -5 -5 -9t-4 -7l-2 -14l-3 -4l-11 2l-4 3q-8 1 -13 1h-8l-5 2q-20 -3 -30 -3q-17 -8 -29 -15.5t-19 -12.5q-6 -16 -12 -23l-3 -16.5l-1 -5.5q0 -23 13 -53q32 -26 52 -26q4 0 10.5 2.5t9.5 2.5
q2 5 12 11q1 3 7 9l1.5 7.5l0.5 2.5v13l-8 15l-6 3q-6 0 -11 1q-8 -2 -13.5 -3l-10.5 -2l-7 8v9l5 9q9 9 26 9q4 0 11 -2l14 -4t13 -4.5t9 -2.5q8 -5 15 -8.5t12 -4.5l25 -16.5t18 -13.5l3 -2l6 -8l33 -18.5l23 -12.5q6 -2 10.5 -3t8.5 -2h13l13 9l6 12q1 5 -2 18
q3 18 39 35l54 21t48 24l10 1l18 14l4 1q4 4 7.5 6t5.5 4q16 17 20 26l1 8q11 16 13 39l-2 4z" />
    <glyph glyph-name="z" unicode="z" horiz-adv-x="363" 
d="M346 157q1 9 0.5 15t-1.5 9l-6 8q-6 0 -10 4l-18 -8l-16 -17l-2 -5q-11 -9 -20 -14.5t-14 -7.5q-2 0 -8 -1.5t-9 -1.5q-7 0 -17.5 1t-24.5 3t-23.5 3.5t-16.5 1.5q-28 0 -35 -9q2 5 3 9t2 9q17 20 17 30l27.5 38.5l25.5 35.5h8q21 0 29 -3q10 1 19 1t18 1q23 2 35 11
q8 9 9 16v13l-8 14l-8 5l-14 2q-23 -6 -41 -9q-2 5 -3 8l-1 3v4q17 17 33 40t30 51q5 13 9.5 23t6.5 17l4 3q5 15 6 20l-2 4q1 8 2 14.5t2 10.5q-2 24 -3 27l-11 10l-14 -1q-8 -6 -13.5 -11t-9.5 -10q-12 -5 -28 -5q-5 0 -18 2.5t-35 7.5q-14 2 -23.5 4t-16.5 3l-7 -5
q-6 7 -9 9l-5 -1q-7 7 -33 7h-3q-2 0 -7 -1l-11 -7q-2 -3 -3.5 -6t-3.5 -5q-1 -5 5 -32q-2 -7 -24 -29q-24 -24 -28 -33q-2 -10 -2.5 -14.5l-0.5 -4.5q0 -9 5 -17l7 -4q3 -1 4 -1h2q20 0 36 19q8 3 16 9q7 2 10 2.5l3 0.5q14 0 32.5 -3t43.5 -8q10 4 18 1l5 2q4 -2 18 3v-5
l-19.5 -29.5t-13.5 -20.5l-7 -5l-2 -7l-4 -4l-3 -8l-6 -3q-2 -6 -5 -9l-2 -7l-6 -7l-24.5 3.5t-17.5 3.5q-10 1 -17 1h-11q-6 -2 -31 -4l-17 -11q-8 -17 -9 -26l2 -8q8 -12 21 -17l8 -1q33 9 43 9l12 -3l-1 -6q-7 -5 -14 -13.5t-14 -20.5q0 -8 -24 -44q-22 -33 -24 -40
l-4 -3l-2 -7l2 -5q-7 -4 -16 -45q-8 -37 -8 -49v-2t1 -6q7 -10 11 -14.5t11 -4.5q10 3 18 3l6.5 10t4.5 6q5 17 10 23q4 2 6.5 3.5t4.5 3.5l26 -4l9 -5h3q14 -8 25 -13.5t18 -10.5q22 -8 31 -11l4 1l6 -3l6 2q25 -5 39 -6h14q8 3 19 15l3 11l-2 10q-5 9 -10 11l1 8
q5 10 9.5 17t6.5 12l5 2q28 33 44 72z" />
    <glyph glyph-name="braceleft" unicode="{" horiz-adv-x="992" 
d="M326 643l-0.5 3.5l-1.5 10.5q-15 4 -26 4q-10 2 -36 28q-13 12 -21.5 21t-12.5 15q-7 2 -10 2.5l-3 0.5h-11l-11 -7q-4 -16 -9 -22q-14 -18 -53 -31q-39 -14 -64 -14h-23l-10 -9q-1 -2 -2 -4.5t-2 -4.5l4 -14l6 -8l11 -5q11 -11 14 -17q0 -7 1.5 -21.5t1.5 -21.5
q0 -32 6 -39l-2 -7l-11 2l-6 -2t-5 -2q-44 0 -39 1q-2 -15 -3.5 -27.5t-1.5 -23.5v-4l4 -9q3 0 8.5 -2t8.5 -2q4 0 11.5 2t10.5 2q4 0 12 -1t11 -1l-4 -6q0 -41 -2 -49l2 -7q-2 -8 -2.5 -12.5l-0.5 -4.5v-5l3 -5q1 -10 -6 -37l5 -11q0 -12 2 -34.5t2 -34.5q0 -13 -3 -19
l-6 -5l-1 -4l1 -4l3 -4v-8q0 -55 -6 -68l1 -6l-9 -14t-8 -10l-1 -14q5 -8 11.5 -10.5t9.5 -5.5h10q8 -3 14.5 -6l13.5 -6l3 -4h4l5 -6l13 -5t9 -4q13 -11 21 -15q1 0 22 -9t36 -9h2t7 1q15 7 19 13v12q-1 3 -10 10l-2 6q2 5 7.5 12.5t15.5 16.5q20 18 24 31l-5 12l-5 5
q-17 6 -21 5l-3 2q-4 0 -39 7l-7 11l-15 -5l-20 4l-2 5q10 17 15 26.5t7 11.5q4 14 6 23q1 11 1.5 19t0.5 13l-3 11q5 10 5.5 22.5t0.5 21.5q0 3 -1 4l-5 4q-4 9 -4 97v8t1 24q0 6 -1.5 14.5t-3.5 17.5t-3.5 17.5t-1.5 13.5t1 13t2.5 16.5t3 16t1.5 10.5q0 37 -14 56l-10 6
l-2 28q4 4 9 4l12 -4q6 -3 9 -10l7 -5l8 1q22 -60 52 -61l5 1q9 4 12 11q0 22 6 30l27 17l19 12l3 4q1 4 1 5v2zM617 383l-3 10q-2 2 -4 4.5t-4 4.5q-5 1 -9 1q-3 0 -6 1l-3 20q-11 13 -14 17q-3 9 -3 14q-14 33 -22 46l-8 1q-4 8 -6.5 14.5l-4.5 11.5l-15 13l-14 1h-3
l-5 -2q-8 -6 -12 -15l-1 -8q-27 -21 -34 -21q-10 -12 -48 -23q-40 -10 -46 -15q-2 0 -21 -6l-12 1.5t-3 0.5l-12 -6q-6 -9 -6 -15q2 -8 6 -14h9l-1 -12l9 -3q-1 -17 0.5 -30t3.5 -23l-2 -4q-1 -3 1 -9l-4 -11q-1 1 -1 -18v-4l2 -5q-1 -11 -0.5 -19.5t1.5 -14.5
q-1 -22 -1.5 -34.5t-0.5 -16.5l6 -15l-6 -6q-2 -6 -4 -43q0 -17 -2.5 -27t-6 -16t-6.5 -8.5t-5 -5.5q-2 -5 -2.5 -7.5l-0.5 -2.5v-6l4 -9l4 -3q3 -1 4 -1h2h25l6 -7l13 2l3 -8q6 -1 38 -18q16 -8 25 -13t11 -7l40.5 -10.5l13.5 -3.5l5 0.5l15 1.5l8 10v14l-4 9q0 4 1 7
t4 6.5t10.5 7.5l21.5 12q21 13 26 24l6 3q23 25 23 59v12q-4 8 -6 14t-4 9l-21 10q-4 -3 -10 -4t-11 -7l-4 -10q0 -2 1 -6.5t2.5 -9.5l3 -10t1.5 -6l-3 -6v-4l-2 -5l-7 -2q-7 -9 -12 -10v8q-29 -2 -54 4q-38 8 -45 26l-1 7l9 5l2 5l4 4q0 4 4 14t4 15q0 42 -1 39l3 1
q-1 2 -1 5q0 4 -1 8l-4 3q0 6 3 15.5t3 14.5q0 6 -1.5 16.5t-1.5 15.5l-2 3l4 9l-2 12l1 4l-4 6q6 25 -11 55l-2 22l6 9l5 3q9 -8 17 -25q4 -13 11 -28l9 -8q27 -71 41 -83h10l10 4l5 6l5 15l12 13l27 12.5t22 17.5zM958 447v14l-5 6l-10 4l-4 4q-20 7 -27 12h-3l-7 5l-18 4
q-10 8 -22 13l-2 4q-11 7 -18.5 12.5t-12.5 9.5l-6 1l-6 4q-3 1 -5 1h-1l-4.5 -0.5l-13.5 -1.5l-6 -3q-9 -11 -9 -20l0.5 -4l1.5 -12l-2 -5l-12 -13l-14 1q-9 12 -9 43q0 39 1 35q4 8 4 18l-3 6l6.5 43.5t20.5 37.5q4 1 12 5q2 -1 5 -1t7 -1q6 -6 8 -9q2 -10 -4 -24l3 -11
l10 -14l24 1l14 9q2 4 3.5 6.5t3.5 4.5q1 4 1 7v6l2 4q-2 9 -2.5 15.5t-1.5 11.5q-16 22 -28 31l-6 1l-4 5l-4 1l-4 3q-13 2 -18 4q-4 -1 -6 -1h-1h-5t-8 1h-14q-29 -9 -42 -21.5t-27 -41.5h-7l-16 15.5t-12 10.5q-5 0 -12.5 3.5t-10.5 4.5l-21 -3l-4 -5l-4 -2l-1 -5
q1 -3 1 -5v-1v-2q0 -1 -1 -4q11 -10 17.5 -16.5t8.5 -9.5q0 -5 3 -16.5t3 -18.5t1.5 -23.5t1.5 -24.5v-10q-6 -9 -6 -34q0 -4 2 -12.5t2 -11.5l-1 -37q-5 -8 -5 -22q0 -3 1 -5v-6l4 -6l-1 -4l2 -6q1 3 1 -31q0 -4 -4 -13l6 -21q-3 -32 -3 -26q0 -4 1 -7v-8l-6 -8l-3 -14
q9 -18 7 -38l3 -7q1 -5 -3 -15q2 -11 -1.5 -21t-3.5 -14q5 -17 5 -21q0 -8 -4 -22.5t-5 -20.5q-19 -10 -28 -21l-2 -7l1 -14q1 -6 8 -11l19 -3l4 -4q20 -5 36 -17v-4l5 -5l4 -1l8 -6l-4 1q26 -23 41 -23q3 0 7 0.5t9 1.5l9 8q1 7 1.5 10l0.5 3q0 10 -6 24v6l4 9q6 6 16 8
l4 3l8 2q7 5 12 9.5t9 6.5l3 7l4 3l3 7l-1 5l1 5l-4 8l-14 7l-13 1l-1 7q-19 31 -16 49l-2 4q3 9 3 83q0 8 -2 25t-2 26q0 4 0.5 8.5t1.5 9.5l-3 5q-1 3 -1 4v2q1 25 3.5 41.5t6.5 25.5l3 -2l-1 4l15 10l5 -7q31 -17 51 -27q-11 -42 -16 -63.5t-6 -32.5l3 -7q-4 -36 3 -52
q2 -20 3.5 -40t3.5 -40l2 -5q-3 -13 0 -34q2 -14 3 -22t1 -12q0 -7 -3 -23t-2 -25q-12 -27 -12 -55q0 -22 11 -55l15 -16l17 -6l24 5l12 11l5 20l-3 17q-5 6 -6 10q-6 5 -10 7l-14 17q-1 5 -1.5 7l-0.5 2q0 15 3 25t8 16.5t11.5 11.5t12.5 11q24 10 33 17l12 1l15 10l2 12
l-10 11l-3 8q-2 12 -3.5 24t-3.5 24l-2 4q-1 7 -1 13v15v43l-7 9q1 10 6 13v7l-3 5v11q-1 4 -1 6v5q0 6 2 17.5t2 17.5q0 55 -1 50q3 31 19 41l-4 -5q9 9 11 14z" />
    <glyph glyph-name="bar" unicode="|" horiz-adv-x="602" 
d="M315 627l1 -5l6 -8l11 -5q11 -11 14 -17q0 -7 1.5 -21.5t1.5 -21.5q0 -32 6 -39l-2 -7l-11 2l-6 -2t-5 -2q-44 0 -39 1q-2 -15 -3.5 -27.5t-1.5 -23.5v-4l4 -9q3 0 8.5 -2t8.5 -2q4 0 11.5 2t10.5 2q4 0 12 -1t11 -1l-4 -6q0 -41 -2 -49l2 -7q-2 -8 -2.5 -12.5l-0.5 -4.5
v-5l3 -5q1 -10 -6 -37l5 -11q0 -12 2 -34.5t2 -34.5q0 -13 -3 -19l-6 -5l-1 -4l1 -4l3 -4v-8q0 -55 -6 -68l1 -6l-9 -14t-8 -10l-1 -14q5 -8 11.5 -10.5t9.5 -5.5h10q8 -3 14.5 -6l13.5 -6l3 -4h4l5 -6l13 -5t9 -4q13 -11 21 -15q1 0 22 -9t36 -9h2t7 1q15 7 19 13v12
q-1 3 -10 10l-2 6q2 5 7.5 12.5t15.5 16.5q20 18 24 31l-5 12l-5 5q-17 6 -21 5l-3 2q-4 0 -39 7l-7 11l-15 -5l-20 4l-2 5q10 17 15 26.5t7 11.5q4 14 6 23q1 11 1.5 19t0.5 13l-3 11q5 10 5.5 22.5t0.5 21.5q0 3 -1 4l-5 4q-4 9 -4 97v8t1 24q0 6 -1.5 14.5t-3.5 17.5
t-3.5 17.5t-1.5 13.5t1 13t2.5 16.5t3 16t1.5 10.5q0 37 -14 56l-10 6l-2 28q4 4 9 4l12 -4q6 -3 9 -10l7 -5l8 1q22 -60 52 -61l5 1q9 4 12 11q0 22 6 30l27 17l19 12l3 4q1 4 1 5v2l-0.5 3.5l-1.5 10.5q-15 4 -26 4q-10 2 -36 28q-13 12 -21.5 21t-12.5 15q-7 2 -10 2.5
l-3 0.5h-11l-11 -7q-4 -16 -9 -22q-14 -18 -53 -31q-39 -14 -64 -14h-23l-1 -1l-1 4q-15 4 -26 4q-10 2 -36 28q-13 12 -21.5 21t-12.5 15q-7 2 -10 2.5l-3 0.5h-11l-11 -7q-4 -16 -9 -22q-14 -18 -53 -31q-39 -14 -64 -14h-23l-10 -9q-1 -2 -2 -4.5t-2 -4.5l4 -14l6 -8
l11 -5q11 -11 14 -17q0 -7 1.5 -21.5t1.5 -21.5q0 -32 6 -39l-2 -7l-11 2l-6 -2t-5 -2q-44 0 -39 1q-2 -15 -3.5 -27.5t-1.5 -23.5v-4l4 -9q3 0 8.5 -2t8.5 -2q4 0 11.5 2t10.5 2q4 0 12 -1t11 -1l-4 -6q0 -41 -2 -49l2 -7q-2 -8 -2.5 -12.5l-0.5 -4.5v-5l3 -5q1 -10 -6 -37
l5 -11q0 -12 2 -34.5t2 -34.5q0 -13 -3 -19l-6 -5l-1 -4l1 -4l3 -4v-8q0 -55 -6 -68l1 -6l-9 -14t-8 -10l-1 -14q5 -8 11.5 -10.5t9.5 -5.5h10q8 -3 14.5 -6l13.5 -6l3 -4h4l5 -6l13 -5t9 -4q13 -11 21 -15q1 0 22 -9t36 -9h2t7 1q15 7 19 13v12q-1 3 -10 10l-2 6
q2 5 7.5 12.5t15.5 16.5q20 18 24 31l-5 12l-5 5q-17 6 -21 5l-3 2q-4 0 -39 7l-7 11l-15 -5l-20 4l-2 5q10 17 15 26.5t7 11.5q4 14 6 23q1 11 1.5 19t0.5 13l-3 11q5 10 5.5 22.5t0.5 21.5q0 3 -1 4l-5 4q-4 9 -4 97v8t1 24q0 6 -1.5 14.5t-3.5 17.5t-3.5 17.5t-1.5 13.5
t1 13t2.5 16.5t3 16t1.5 10.5q0 37 -14 56l-10 6l-2 28q4 4 9 4l12 -4q6 -3 9 -10l7 -5l8 1q22 -60 52 -61l5 1q9 4 12 11q0 22 6 30q25 16 39 24z" />
    <glyph glyph-name="braceright" unicode="}" horiz-adv-x="554" 
d="M581 532v3t-1 9q-5 10 -15 14l-10 2l-14 -4l-9 -9q-7 -20 -16 -36q-13 -13 -38 -13h-18t-13 1v20q0 40 7 67l-1 8q4 13 18 29t26 20l11 18l-4 18l-18 17q-7 -1 -12 -1h-8q-45 -6 -75 -86l-2 -4l3 -8q-22 34 -49 45q-4 -1 -17 1q-1 5 -1 8q0 4 -1 6q-15 4 -26 4
q-10 2 -36 28q-13 12 -21.5 21t-12.5 15q-7 2 -10 2.5l-3 0.5h-11l-11 -7q-4 -16 -9 -22q-14 -18 -53 -31q-39 -14 -64 -14h-23l-10 -9q-1 -2 -2 -4.5t-2 -4.5l4 -14l6 -8l11 -5q11 -11 14 -17q0 -7 1.5 -21.5t1.5 -21.5q0 -32 6 -39l-2 -7l-11 2l-6 -2t-5 -2q-44 0 -39 1
q-2 -15 -3.5 -27.5t-1.5 -23.5v-4l4 -9q3 0 8.5 -2t8.5 -2q4 0 11.5 2t10.5 2q4 0 12 -1t11 -1l-4 -6q0 -41 -2 -49l2 -7q-2 -8 -2.5 -12.5l-0.5 -4.5v-5l3 -5q1 -10 -6 -37l5 -11q0 -12 2 -34.5t2 -34.5q0 -13 -3 -19l-6 -5l-1 -4l1 -4l3 -4v-8q0 -55 -6 -68l1 -6l-9 -14
t-8 -10l-1 -14q5 -8 11.5 -10.5t9.5 -5.5h10q8 -3 14.5 -6l13.5 -6l3 -4h4l5 -6l13 -5t9 -4q13 -11 21 -15q1 0 22 -9t36 -9h2t7 1q15 7 19 13v12q-1 3 -10 10l-2 6q2 5 7.5 12.5t15.5 16.5q20 18 24 31l-5 12l-5 5q-17 6 -21 5l-3 2q-4 0 -39 7l-7 11l-15 -5l-20 4l-2 5
q10 17 15 26.5t7 11.5q4 14 6 23q1 11 1.5 19t0.5 13l-3 11q5 10 5.5 22.5t0.5 21.5q0 3 -1 4l-5 4q-4 9 -4 97v8t1 24q0 6 -1.5 14.5t-3.5 17.5t-3.5 17.5t-1.5 13.5t1 13t2.5 16.5t3 16t1.5 10.5q0 37 -14 56l-10 6l-2 28q4 4 9 4l12 -4q6 -3 9 -10l7 -5l8 1
q22 -60 52 -61l5 1q9 4 12 11q0 22 6 30l17 10.5l12 7.5l5 -13q25 -16 25 -83v-21q-8 -7 -21 -7l-4 3l-20 2l-6 -2l-3 -4l-2 -12q3 -8 3 -13v-34l5 -8q13 3 37 3l10 -4l2 -13l-3 -7q3 -8 -1 -18l3 -13q-1 -5 -1.5 -7l-0.5 -2v-41l6 -6v-7l-2 -5l1 -8q-7 -18 -7 -24
q0 -43 -3 -49l6 -16v-6l-5 -1q-8 -41 -5 -74q-5 -12 -4 -20l-6 -5l-5 -12l16 -27q2 -1 8 -3t16 -4q15 -5 21 -12q4 -2 7 -3t7 -2l2 -6q22 -13 35 -18l2 -4q4 0 11 -3.5l14.5 -7.5t15 -7t13.5 -3h5l11 5l6 10q1 5 0.5 8.5t-1.5 7.5l-6 8v9q1 7 22 26t25 28l2 17l-8 11
q-7 4 -17 4q-9 0 -10 -1q-6 -1 -19 7l-24 -2q-20 7 -21 6l-3 3l-6 2l1 7q12 8 18 16l3 8q0 8 -1 10q1 25 0.5 45t-2.5 36l-2 4l4 1q1 16 1 27v18v10q-3 20 -4.5 38t-2.5 35l3 7q-5 15 0 27q4 1 8 1.5t9 0.5h18q13 -10 23 -24q6 -2 12 -2h4q19 7 19 21q-2 9 -5 15l-5 10l1 13
l11 10l4 1q7 7 8 10q23 25 23 44z" />
    <glyph glyph-name="asciitilde" unicode="~" horiz-adv-x="464" 
d="M397 708l-9 13l-11 2q-8 -1 -33 -17q-23 -15 -37 -15q-17 0 -39 9q-5 0 -12 -4h-6t-10 -1v7l-3 8q-11 2 -32 12q-10 5 -18 7.5t-14 3.5l-10 -3q-9 -9 -11 -22q1 -7 1.5 -11.5t0.5 -6.5l-9 -14l-23 -16l-23 -16q-30 -23 -33 -39l2 -10l6 -7l9 -3l9 1l16 12l16 12
q20 16 36 16q9 0 14 -3h8l4 -3q10 2 23 -8q7 0 14 -4h4l12 -5l7 1q25 -15 37 -17q13 3 21 14l5 14l-1 9l2 7q59 37 82 63z" />
    <glyph glyph-name="quotesinglbase" unicode="&#x201a;" horiz-adv-x="233" 
d="M189 79l-3 9l-8 8q-11 7 -18 12.5t-12 10.5l-3 6l-3 2q-4 8 -6 14l-26 18q-4 -2 -7 -1q-5 -2 -8.5 -4t-5.5 -3q-4 -6 -5 -9l2 -15l-2 -8l-8 -7l-2 -7q-12 -2 -24 -12l-6 -10q-1 -7 2 -16q1 -1 6.5 -6t16.5 -13q15 -10 18 -23v-14q-17 -17 -16 -27q1 -5 2 -8.5t2 -5.5h4
l4 -4h6q3 -1 6 -1q5 0 8 1l17 14t11 11l3 8l4 1l3 4v4q7 17 12 27l7 14q3 3 13 7.5t15 11.5z" />
    <glyph glyph-name="florin" unicode="&#x192;" horiz-adv-x="591" 
d="M623 623q-17 2 -38 14q-5 8 -9.5 13t-7.5 9q-1 3 -4.5 10t-8.5 18q-10 17 -10 25q-10 2 -15 3.5l-5 1.5h-5q-4 0 -14 -1q-4 -7 -14 -10l-4 -5q-23 -13 -50 -13q-10 0 -29.5 1.5t-29.5 1.5h-3t-9 -1q-27 10 -40 10q-14 0 -21 -9l-4 -11q1 -7 11 -26q10 -16 10 -24
q-10 -17 -7 -37q-1 -3 -3.5 -13l-6.5 -27q-6 -24 -14 -36q1 -8 -5.5 -21t-5.5 -21q-6 -4 -10 -13v-12q-10 -13 -9 -22q-5 -7 -8 -22.5t-8 -23.5q-7 -1 -10 -1h-3q-4 0 -11 1t-11 1q-7 0 -22 -1.5t-22 -1.5q-28 0 -29 -1q-8 -1 -26 -19l-7.5 -17t-8.5 -15v-9l-5 -10l2 -13
l4 -7q3 -3 13 -5q11 6 19 11t13 9h43q3 0 9 1.5t9 1.5t11 -1t12 -1q-7 -11 -8 -23q-5 -8 -16 -18v-10q1 -2 1.5 -5t1.5 -5q-2 -6 -4 -10.5t-3 -7.5l1 -6l-6 -6q-6 -23 -9 -33q-2 -17 -4 -25t-4 -11q-7 -34 -9 -53q-8 -22 -14.5 -38t-11.5 -27q-2 -12 -4 -21t-3 -15l3 -26
q7 -7 8 -16q-5 -12 -3 -21h-10l-11 9l-3 10l-11 3q1 4 0.5 11.5t-2.5 15t-4.5 13.5t-5.5 9l-1 6q-14 15 -21 21q-7 1 -10 1h-3h-2t-6 -1q-8 -13 -8 -26q-10 -2 -17 -10l-15 -3l-6 -4q-22 -5 -29 -13q-2 -7 -2.5 -12t-1.5 -9q26 -8 35 -15l14 -24l14 -24q18 -29 33 -37h5
l8.5 11t11.5 11q5 2 11 5l12 6q3 -1 8.5 -0.5t12 2t12 2.5t7.5 1t3 -1h2q26 1 47 -0.5t35 -3.5q5 -1 8 -1h5l8 -3q22 5 26 8v14q0 11 -6.5 20l-13.5 18l-1 9l8.5 36.5t5.5 26.5l-2 7q2 5 3 8.5t2 5.5q8 23 13.5 41t8.5 31q4 6 6.5 10.5t4.5 7.5q2 14 3 22.5t2 10.5
q4 5 6.5 8.5l4.5 6.5l-3 7q-1 5 1 11q8 10 17 57q11 53 16 64q8 -1 16 0.5t16 3.5l11 -2q10 1 19 0.5t17 -1.5q9 -4 15.5 -7.5l10.5 -5.5l12 2q6 5 13 14q1 4 1.5 5.5l0.5 1.5v22q21 21 21 46q0 16 -7 23q-7 4 -16 4q-13 -3 -20 -11.5l-15 -17.5q-8 1 -13 1h-8q-5 -5 -21 -5
h-23q7 20 12.5 34l9.5 24q3 11 4.5 20l2.5 15l7 18l-1 10q7 9 15 35q9 25 9 36v18q-3 11 -9 17v22l10 18q10 -9 14 -17l8 -5q-1 -5 2 -12l7 -2l6 -30q5 -11 8.5 -19.5t4.5 -15.5l9 -7h10l4 4l7 2l4 3q3 8 2 13l11 12l16 7q6 -1 16.5 1t14.5 2h2t7 -1l11 10z" />
    <glyph glyph-name="quotedblbase" unicode="&#x201e;" horiz-adv-x="400" 
d="M356 79l-3 9l-8 8q-11 7 -18 12.5t-12 10.5l-3 6l-3 2q-4 8 -6 14l-26 18q-4 -2 -7 -1q-5 -2 -8.5 -4t-5.5 -3q-4 -6 -5 -9l2 -15l-2 -8l-8 -7l-2 -7q-12 -2 -24 -12l-6 -10q-1 -7 2 -16q1 -1 6.5 -6t16.5 -13q15 -10 18 -23v-14q-17 -17 -16 -27q1 -5 2 -8.5t2 -5.5h4
l4 -4h6q3 -1 6 -1q5 0 8 1l17 14t11 11l3 8l4 1l3 4v4q7 14 11.5 24l7.5 17q3 3 13 7.5t15 11.5zM189 79l-3 9l-8 8q-11 7 -18 12.5t-12 10.5l-3 6l-3 2q-4 8 -6 14l-26 18q-4 -2 -7 -1q-5 -2 -8.5 -4t-5.5 -3q-4 -6 -5 -9l2 -15l-2 -8l-8 -7l-2 -7q-12 -2 -24 -12l-6 -10
q-1 -7 2 -16q1 -1 6.5 -6t16.5 -13q15 -10 18 -23v-14q-17 -17 -16 -27q1 -5 2 -8.5t2 -5.5h4l4 -4h6q3 -1 6 -1q5 0 8 1l17 14t11 11l3 8l4 1l3 4v4q7 17 12 27l7 14q3 3 13 7.5t15 11.5z" />
    <glyph glyph-name="ellipsis" unicode="&#x2026;" horiz-adv-x="1000" 
d="M910 78v9q-8 18 -18 19q-6 7 -11 12l-9 9l-4 2l-1 6l-7 4q-7 18 -14 26l-10 7h-12l-16 -6l-6 -6q0 -3 -2 -8t-2 -8v-3q0 -2 1 -7l-6 -10q-7 -5 -12 -9l-9 -7q-11 -11 -15 -21l2 -12l10 -14l9 -3l18 -14.5t15 -10.5l4 -12l21 -19l9 -2q5 2 8.5 3t5.5 2q11 11 11 22v14
q4 4 21 18q14 11 19 19zM577 78v9l-8 13q-6 4 -11 6q-13 16 -19 21l-5 2l-1 6l-6 4l-8.5 15.5l-5.5 10.5l-11 7h-12l-15 -6l-6 -6l-5 -16l2 -10l-6 -10q-31 -22 -36 -37l1 -12l10 -14l10 -3l18 -14.5t15 -10.5l4 -12l21 -19l8 -2q3 0 15 5q10 10 10 22v1q0 2 -1 5l2 8
q13 13 23 22zM243 78v9q-8 18 -18 19q-11 14 -20 21l-4 2l-1 6l-7 4q-7 18 -14 26l-10 7h-12l-16 -6l-5 -6q-2 -5 -3 -9.5t-2 -6.5l2 -10l-6 -10l-16.5 -12l-5.5 -4q-11 -11 -15 -21l2 -12l10 -14l9 -3l18 -14.5t15 -10.5l4 -12l22 -19q2 -1 4 -1t4 -1q5 2 8.5 3t5.5 2
q11 11 11 22v1q0 2 -1 5q2 11 19 25q16 12 22 20z" />
    <glyph glyph-name="dagger" unicode="&#x2020;" horiz-adv-x="562" 
d="M463 334l106 98q-7 7 -20 19t-33 29q-39 36 -52 49q-46 -41 -77 -57q-31 -14 -76 -17v1q0 37 15 82t60 96q-50 43 -105 114q-59 -75 -105 -114q18 -21 32.5 -44t25 -47t15 -47t3.5 -42q-71 6 -114 41l-21 16t-18 16l-101 -95l57 -56.5l44 -42.5q76 72 154 75
q1 -144 -5.5 -237.5t-19.5 -138.5q-13 -47 -51 -124l52 -68l52 -73l39 57.5t17 24.5q19 25 48 57q-21 46 -34.5 80t-18.5 57q-14 56 -18 128q-1 25 -3 128q-2 81 0 111q81 -5 152 -76z" />
    <glyph glyph-name="circumflex" unicode="&#x2c6;" horiz-adv-x="406" 
d="M340 619l-3 13q-6 9 -17 17v7q-4 3 -16 5l-3 4l-7 1q-59 39 -64 41l-5 7q-25 11 -30 11q-11 0 -21 -10q-8 -8 -12 -11.5t-5 -4.5q-7 -4 -11.5 -7t-8.5 -5q-5 -4 -8 -5.5l-3 -1.5l-7 -7t-14 -13q-17 -15 -19 -15q-12 -11 -18 -24q-1 -5 -1 -7v-2q0 -14 8 -22l10.5 -1.5
l3.5 -0.5h2q3 0 8 1l8 6l2 4h5q10 13 40 28q31 15 46 15q7 0 45 -20q38 -19 43 -26q17 -5 23 -7l15 3l7 9l2 10z" />
    <glyph glyph-name="perthousand" unicode="&#x2030;" horiz-adv-x="898" 
d="M871 144v5q-3 10 -10 15q-3 13 -5 22.5t-3 16.5l-4 2q-1 23 -20 43l-9 4q-5 12 -3 18h-7q-40 31 -84 31q-2 0 -7.5 -1.5t-12.5 -3t-12.5 -2.5t-7.5 -1q-26 -10 -55 -42l-4 -2q-9 -9 -21 -45q-14 -39 -21 -51l1 -6q4 -4 6 -8q3 -12 6 -18l8 -26l8 -26q13 -37 28 -44l1 -4
q39 -34 67 -30l5 -5h7l3 4q4 -1 10 -3h4l4 2l4 -1q9 6 28 6q16 7 27 14l3 4l6 3l3 6l7 4q3 7 13 20.5t13 23.5l3 3q7 48 21 72zM313 506q-2 10 -11 20q-14 61 -35 85q-25 30 -84 41h-4q-34 0 -42 -7l-7 1q-49 -29 -68 -60q-14 -21 -35 -84l5 -7q9 -38 14.5 -55.5t12.5 -34.5
q5 -8 30 -32v-6q28 -12 33 -15h9q16 -10 45 -10q37 0 57 18l21 19t20 19q8 23 14 27q10 26 13 43q-1 19 12 38zM497 617l-0.5 3l-1.5 9l-11 9q-6 -1 -17 2l-4 -3l-4 -1q-3 -2 -17 -31q-7 -14 -10.5 -23t-5.5 -13q-10 -13 -17 -23.5l-12 -18.5l-1 -4l-8 -11l2 -9l-8 -16
l-12 -9h-3q-21 -26 -25 -42l-54.5 -79l-51.5 -77q-23 -32 -33 -48q-119 -185 -119 -196v-9t1 -9q1 -2 1.5 -4t1.5 -4l9 -10q9 -2 12 -4q6 1 12.5 3.5t13.5 14.5l1 11q12 17 16 29q14 25 35.5 59.5l51.5 79.5l11.5 16.5t8.5 11.5q4 8 6 14t4 10l16 12q5 18 9 25q9 10 15 18
t9 13l16 21l12 15q34 53 44 63l3 8l-3 4l7 9.5t9 13.5l9 5q1 2 7 11.5t17 28.5l17.5 29.5t7.5 12.5t6 11l13 23q14 23 14 49zM558 149q-3 10 -10 15q-3 13 -5 22.5t-3 16.5l-4 2l-1 6l-3 5q0 3 -4 16l-13 16l-9 4q-3 13 -2 18h-7q-37 31 -84 31q-2 0 -7.5 -1.5t-12.5 -3
t-12.5 -2.5t-7.5 -1q-31 -12 -44 -27.5t-16 -16.5q-4 -7 -9 -19t-10 -29t-11 -28.5t-11 -19.5l1 -6q4 -4 6 -8q3 -12 6 -18q22 -78 43 -96l1 -4q39 -34 67 -30l6 -5h7l3 4q4 -1 10 -3h3l5 2l3 -1q10 6 29 6l36 21l3 6l6 4q12 20 19.5 31.5t9.5 15.5q12 51 22 77zM785 124
q0 -9 -6 -36q-2 -14 -4 -22t-4 -12q-6 -8 -12 -17q-9 -5 -17 -8t-15 -5q-7 4 -16 4q-24 9 -30 48q-2 13 -3.5 25t-3.5 25h-4l-1.5 4.5l-0.5 1.5v9l6 4l2 27t3 26q3 32 22 48q19 10 30 12q21 1 36 -26l1 -6l7 -4q8 -20 9 -86v-2q0 -1 -1 -4l1.5 -4.5zM231 466q0 -1 -2 -5.5
t-2 -5.5q-6 -32 -9 -39q-6 -17 -24 -33q-11 -2 -15 -4q-11 2 -16 0q-10 3 -15.5 6.5t-9.5 6.5q-13 29 -17 31q-6 13 -6 42q0 3 1 9.5t1 9.5q0 7 -2 20.5t-2 19.5l6 15q-3 11 2 28.5t14 23.5v5l7 8q5 2 9 4.5t8 4.5q5 1 7 1h3q15 0 24 -4q38 -26 38 -117v-27zM471 112
l-1.5 -6t-3.5 -17q-13 -43 -20 -52q-11 -5 -19.5 -8t-13.5 -5l-6 3l-9 1q-7 3 -18 14q-14 30 -13 42q-7 25 -7 42h-3l-1.5 4.5l-0.5 1.5v9l6 4q0 4 1 12.5t1 11.5q0 23 4 30q0 2 8 32q9 13 19 19q2 1 8 2.5t16 5.5q9 0 16 -4q18 -15 21 -28l7 -4l3 -12q0 -20 5 -32l1 -42
v-24z" />
    <glyph glyph-name="Scaron" unicode="&#x160;" horiz-adv-x="563" 
d="M523 223q-2 4 -3.5 13.5t-3.5 23.5q-4 26 -11 38.5t-12 20.5l-4 3l-3 6l-1 11l-4.5 4.5t-4.5 6.5h-6l-7 3q-1 5 -2 8t-2 5v-4l-3 6q-28 25 -35 25q-45 38 -124 39q-10 -1 -20 -19q-9 4 -21 4l-17 10l-8 -6l-9 2q0 5 -5 13l-5 2q-15 12 -29 47q1 9 -2 25l7 11l-4 11l1 11
l18.5 24l12.5 17q16 12 27 18q5 0 16 3t17 3h14q18 -7 31 -7l3 -4q14 -6 23.5 -10.5t16.5 -7.5q7 -8 7 -12l-3 -11l2 -6l9 -6q13 -50 15 -72q7 -18 20 -26q8 -2 11 -3h3q4 0 11 1l11 6l6.5 11.5t4.5 8.5v4q0 17 -9 31q3 18 2 25l10 15l-1 21l3 1q46 37 46 83q0 12 -14 26
l-4 2q-7 -1 -11 -1h-3h-2q-1 0 -3 1q-11 -5 -21 -16q-2 -4 -6 -9.5t-9 -13.5l-23 -4q-33 7 -51 15q-31 10 -76 10q-41 0 -59 -9l-5 1q-12 -4 -16 -6l-6 1l-46 -27t-33 -22v-4q-17 -12 -27 -28l-1 -7l-6 -6l-4 -11h-4l1 -4q-14 -27 -17 -59l-6 -8q5 -10 5 -15l4 -1l3 -7
l-6 -2l-5 -5q2 -20 4 -32.5t4 -19.5q5 -8 5 -12l3 -4v-4q2 -3 3.5 -5t3.5 -4l8 2l4 -6l-4 -8l4 -11q13 -5 17 -19l5 -2l13 -17q7 -4 15 -8t17 -9l1 -8l9 -3l2 -7l12 -3l6 1q6 -6 24 -14h9q3 -1 8 -1l3.5 0.5t11.5 1.5q2 2 5 4.5t7 6.5l2 10l4 5q5 -1 9.5 -0.5t7.5 1.5
q12 -4 21 -6.5t15 -4.5q19 -16 28 -21h4q5 -2 16 -20q10 -16 10 -23l4 -3q0 -6 3 -17t3 -17q-3 -12 -6 -21q1 -6 1.5 -10.5t0.5 -7.5q-6 -6 -13 -19q-2 -7 -1 -20q-12 -9 -19 -10q-3 -3 -5 -9l-4 -2q-2 -2 -4.5 -5t-5.5 -6q-18 -7 -50 -7h-22q-22 9 -38 12l-4 4q-11 6 -16 6
q-17 15 -27 40q-5 13 -8.5 21t-5.5 10v10l-5 9l2 5q-9 41 -12 61q-3 7 -3 11q-23 16 -31 25q-19 0 -24 -1q-9 -5 -17 -16l-3 -10q0 -9 4 -18.5t8 -18t7.5 -14.5t3.5 -9l-2 -5q1 -3 1 -10q0 -6 -5 -21q-3 -9 -4.5 -15t-2.5 -8q-8 -8 -30 -55l-17.5 -39t-8.5 -21l1 -5
q-8 -24 -10 -42q1 -8 1.5 -14t-0.5 -10l3 -7l-1 -10q2 -5 3.5 -11t3.5 -11q11 -17 21 -24.5l21 -15.5q34 -6 36 -6q19 0 22 1q14 7 18 8q18 13 27 21q9 18 9 25v7t-1 21l-2 4l-7 6l-16 6q-4 -1 -6 -1h-1h-2q-1 0 -5 1l-7 -3q-5 -5 -8.5 -9t-5.5 -6l-2 -10l-2 -3l-11 -7
q-3 -1 -20 4l-9 14l-1.5 13.5l-0.5 4.5q0 9 3 18l9 13v5l6 7q11 3 18 13q4 2 7 3l6 2q13 -3 23 2q3 1 10 -0.5t9 -1.5l10 5l6 -1v-7l5 -5l15 4q47 -3 55 -8h7q27 0 39 3l3 -2l7 -1l7 3h8q2 1 4.5 2t4.5 2l12 -2l7 5q6 -1 17 2.5t14 8.5l11 5l6 6l7 -1q39 16 53 37l1 5
q3 7 9 10q1 10 21 36l6 4v4l8 11q-2 7 -2.5 10l-0.5 3v10l15 16l1 8q-2 5 -3 8t-2 5q2 14 10 24zM476 814l-5 8l-2 10l-7 9l-15 3q-17 -5 -23 -7q-5 -7 -43 -26q-38 -20 -45 -20q-15 0 -46 15q-30 15 -40 28h-5l-2 4l-8 6q-5 1 -8 1h-2l-3.5 -0.5l-10.5 -1.5q-8 -8 -8 -22
v-2t1 -7q6 -14 18 -24q3 0 19 -16q19 -16 21 -19q4 -2 6.5 -3.5t4.5 -3.5q7 -4 11.5 -7t8.5 -5q1 -1 5 -4.5t12 -11.5q10 -10 21 -10q5 0 30 11l5 7q5 2 64 41l7 1l3 4q12 2 16 5v7q11 8 17 17z" />
    <glyph glyph-name="guilsinglleft" unicode="&#x2039;" horiz-adv-x="241" 
d="M214 99q-5 13 -33 57q-24 36 -25 60l-4 5l-11 1l-5 12l2 10q-7 13 -10 32l24 51.5l17 38.5l1 10q6 2 14 12.5t8 16.5l12 17.5t8 13.5l2 18l-11 9q-8 2 -17 -3q-47 -42 -58 -65l-34 -50.5t-30 -48.5q-7 -7 -12.5 -12t-9.5 -8l-2 -7l3 -4h5q3 -2 23 -34t20 -35
q12 -12 15 -13q1 -5 3 -10l4 -10l5 -4l11 -18q4 -2 12 -11t19 -26l5 -3q7 -8 13.5 -14t12.5 -11l20 -2z" />
    <glyph glyph-name="OE" unicode="&#x152;" horiz-adv-x="871" 
d="M847 292q0 24 -14 33q-9 5 -36 10q-16 -7 -25 -15l-7 -1q-37 -29 -52 -87q-15 -61 -22 -68l3 -14q-5 -23 -10.5 -45.5t-19.5 -42.5q-11 -4 -22 -4q-38 0 -56 32q-5 16 -11 32l-12 32l4 20l-6 6q1 9 -1.5 13t-9.5 11q7 7 7 17l-3 7v40v35q2 1 3 1h2q21 0 65 -15
q8 -14 11 -16q12 -26 11 -35q6 -12 16 -16l9 -1l8 3h4q9 10 15 15q0 3 1 9t1 9q0 10 -7 35q-6 28 -9 29q-1 12 -3 22l5 9v12l9 23t6 17v13l-5 9l-22 12q-4 1 -14 -3l-39 -39q-13 -4 -19.5 -5.5l-6.5 -1.5q-14 0 -21 3l-4 -5h-16l-4 3q0 10 3.5 24.5t3.5 17.5v8q-4 6 -6 17
l2 23l2 23q1 33 13 41q2 8 5 14t21 16q11 0 19 3q22 -3 31 -2q8 -5 12 -13l10 -6q2 -5 3 -9.5t2 -7.5q8 -8 11 -15l1 -7l4 -5q4 -12 7.5 -21t5.5 -15q3 -14 12 -23q2 -14 11 -27q5 -5 9.5 -11t9.5 -12q11 -5 20 -8.5t15 -5.5q33 10 33 39q0 11 -3 19q-12 12 -14 13l-18 4
q-1 7 -1.5 10l-0.5 3q0 6 1 16t1.5 20.5t1.5 20.5t1 16q0 4 -2 16t-2 16q3 33 3 28q0 23 -9 37l-7 3l-3 3l-17 1q-14 -7 -20 -13q-25 -7 -76 -7q-6 0 -18.5 2t-18.5 2q-4 0 -12 -2t-12 -2q-6 0 -15.5 -1l-19.5 -2l-19.5 -2t-15.5 -1q-7 0 -21 2t-21 2h-7t-21 -1q-10 4 -23 6
q-10 10 -27 10q-12 0 -19 -3q-8 6 -24.5 8t-30.5 3q-18 -5 -17 -5q-6 0 -14 2l-29 -6l-29 -6q-32 -8 -56 -24l-4 -11l-19 -4q-4 -2 -7 -4t-5 -4q-2 -5 -3 -9t-2 -6q-8 1 -12 0l-14.5 -26.5t-11.5 -19.5q-10 -5 -18 -21.5t-9 -28.5l-10 -7q-2 -10 -2.5 -15l-0.5 -5l0.5 -5.5
l1.5 -16.5l-7 -3q1 -19 -6 -34l-1 -4v-11q-4 -5 -7 -20l-7 -1l-2 -10l-9 -8l12 -44t11 -49q9 -40 18 -50l-1 -9l6 -3l5 -7q-2 -6 -2 -9q0 -5 4.5 -11.5t4.5 -12.5l8 -5q1 -14 24 -52q24 -36 38 -42l9 -1q5 -9 8.5 -12.5t11.5 -3.5l4 -7l7 -2l16.5 -13.5t6.5 -5.5
q11 -2 19.5 -5t13.5 -5q4 -1 12.5 -2t22.5 -2q22 -2 33 -9l7 1l7 4l2 4q8 -5 11 -5q13 0 26 4l8 -3q11 -2 16 5h13q7 0 14 -1q17 11 40 11h16l5 3q6 2 35 2q9 0 27.5 -2.5t27.5 -2.5q28 0 34 -3l24 2l25 -3.5t19 -3.5q10 0 14 -2q19 2 28.5 2.5l9.5 0.5q5 0 9 -1h9l8 4
q7 -2 10.5 -2.5l3.5 -0.5q27 0 49 17l2 13q-3 10 -9 15l-1 10q-16 26 -16 50q0 5 1 10v10l-2 5l-8 6.5t-5 4.5q2 6 7 61q3 43 24 65l15 -4q16 5 19 8q10 9 10 28zM406 398q-2 -8 -3 -14t-2 -11q0 -5 1 -13.5t1 -11.5v-117q0 -13 -6 -23q0 -15 0.5 -26.5t1.5 -19.5
q-4 -59 -17 -89q-11 -8 -18 -14t-10 -8q-8 0 -23.5 -4.5t-24.5 -4.5q-5 0 -22 7q-8 8 -25 18q-4 22 -20 49l-10 8l-3 7q1 13 -5 40l-3.5 22.5t-2.5 14.5q-3 48 -3 50l2 19q-6 10 -6 20q0 9 9 41l-6 6l-2 5q2 17 2.5 30.5t1.5 22.5q1 7 2 12t2 9l-2 6l1 12q6 8 8 13
q2 8 2.5 12.5l0.5 4.5v2t-1 6q2 4 4 15q7 7 9 10v6l-2 4l10.5 17.5t8.5 12.5l1 5q18 21 30 28l3 6q24 11 44 11q24 0 34 -7l5 -5q32 -8 32 -54v-2t-1 -7l-5 -3l-2 -5q7 -18 8 -25l-3 -15q2 -69 4 -73z" />
    <glyph glyph-name="quoteleft" unicode="&#x2018;" horiz-adv-x="233" 
d="M189 534q1 7 -2 16q-1 2 -23 19q-13 10 -18 23v14q17 17 16 28q-1 5 -2 8.5t-2 5.5h-4l-4 4h-6q-3 1 -6 1q-5 0 -8 -1l-17 -14t-11 -11l-3 -8l-4 -1l-3 -5v-4q-7 -14 -11.5 -24l-7.5 -17q-3 -3 -13 -7.5t-15 -11.5l-1 -11l3 -9l8 -8q26 -19 36 -31q4 -8 6 -14l26 -18
q4 2 7 1q9 5 13 8.5t6 7.5l-2 15l2 8l8 7l2 7q12 3 24 12z" />
    <glyph glyph-name="quoteright" unicode="&#x2019;" horiz-adv-x="233" 
d="M189 573l-3 9l-21.5 19t-16.5 13q-4 4 -6 8l-3.5 8.5t-2.5 5.5l-26 17h-7q-4 -4 -9 -4q-7 -4 -10 -12l2 -16l-2 -7l-8 -7l-2 -7q-12 -3 -24 -12l-6 -10q-1 -7 2 -16l14 -14l7 -3q19 -20 20 -26v-13q-17 -17 -16 -29q1 -5 2 -8t2 -5h4l4 -4l12 -2q2 1 4 1t4 1q3 3 5.5 4.5
t5.5 3.5t7 5.5t10 11.5l3 8l4 1l3 5v4q1 1 10 24q8 17 14 21l16 7l7 8z" />
    <glyph glyph-name="quotedblleft" unicode="&#x201c;" horiz-adv-x="400" 
d="M356 534q1 7 -2 16q-1 2 -23 19q-13 10 -18 23v14q17 17 16 28q-1 5 -2 8.5t-2 5.5h-4l-4 4h-6q-3 1 -6 1q-5 0 -8 -1l-17 -14t-11 -11l-3 -8l-4 -1l-3 -5v-4q-7 -14 -11.5 -24l-7.5 -17q-3 -3 -13 -7.5t-15 -11.5l-1 -11l3 -9l8 -8q26 -19 36 -31q4 -8 6 -14l26 -18
q4 2 7 1q9 5 13 8.5t6 7.5l-2 15l2 8l8 7l2 7q12 3 24 12zM189 534q1 7 -2 16q-1 2 -23 19q-13 10 -18 23v14q17 17 16 28q-1 5 -2 8.5t-2 5.5h-4l-4 4h-6q-3 1 -6 1q-5 0 -8 -1l-17 -14t-11 -11l-3 -8l-4 -1l-3 -5v-4q-7 -14 -11.5 -24l-7.5 -17q-3 -3 -13 -7.5t-15 -11.5
l-1 -11l3 -9l8 -8q26 -19 36 -31q4 -8 6 -14l26 -18q4 2 7 1q9 5 13 8.5t6 7.5l-2 15l2 8l8 7l2 7q12 3 24 12z" />
    <glyph glyph-name="quotedblright" unicode="&#x201d;" horiz-adv-x="400" 
d="M356 573l-3 9l-21.5 19t-16.5 13q-4 4 -6 8l-3.5 8.5t-2.5 5.5l-26 17h-7q-4 -4 -9 -4q-7 -4 -10 -12l2 -16l-2 -7l-8 -7l-2 -7q-12 -3 -24 -12l-6 -10q-1 -7 2 -16l14 -14l7 -3q19 -20 20 -26v-13q-17 -17 -16 -29q1 -5 2 -8t2 -5h4l4 -4l12 -2q2 1 4 1t4 1q3 3 5.5 4.5
t5.5 3.5t7 5.5t10 11.5l3 8l4 1l3 5v4q1 1 10 24q8 17 14 21l16 7l7 8zM189 573l-3 9l-21.5 19t-16.5 13q-4 4 -6 8l-3.5 8.5t-2.5 5.5l-26 17h-7q-4 -4 -9 -4q-7 -4 -10 -12l2 -16l-2 -7l-8 -7l-2 -7q-12 -3 -24 -12l-6 -10q-1 -7 2 -16l14 -14l7 -3q19 -20 20 -26v-13
q-17 -17 -16 -29q1 -5 2 -8t2 -5h4l4 -4l12 -2q2 1 4 1t4 1q3 3 5.5 4.5t5.5 3.5t7 5.5t10 11.5l3 8l4 1l3 5v4q18 40 24 45l16 7l7 8z" />
    <glyph glyph-name="bullet" unicode="&#x2022;" horiz-adv-x="440" 
d="M387 331q0 69 -49 117q-49 49 -118 49t-118 -49t-49 -118t49 -118t118 -49t118 49t49 119z" />
    <glyph glyph-name="endash" unicode="&#x2013;" horiz-adv-x="479" 
d="M439 332q1 5 -4 17l-6 5l-10 3q-2 -1 -8.5 -4.5t-17.5 -11.5q-23 -14 -23 -15q-15 -6 -33.5 -7t-35.5 -1q-1 0 -4 -1t-4 -1q-41 2 -46 0l-10 2l-11 -3l-7 4h-6l-7 -4h-5l-4 4l-5 -1l-10 2l-7 -2q-10 4 -23 1l-7 3q-21 -2 -57 3l-6 -2l-10 -10l2 -28q-1 -7 -4.5 -15
t-8.5 -18l-10.5 -14t-10.5 -15v-10l8 -16l17 -5l7 5q12 0 27 20q15 9 41 9h18q10 0 21 -1l2 5l9 -1l6 -5q30 -2 43 -3t8 -1q12 0 20 3l5 10h4l7 -13h32h11t21 1q19 1 31 0l7 5l4 1q9 9 11 12l2 8q-2 7 -2.5 10.5l-0.5 3.5v7l9 17.5t7 12.5l6 3q9 11 18 31z" />
    <glyph glyph-name="emdash" unicode="&#x2014;" horiz-adv-x="1080" 
d="M1040 338l-4 11l-6 5l-11 3q-21 -12 -29 -20q-20 -14 -42.5 -16t-45.5 -3q-1 0 -4 -1t-4 -1h-239h-16q-10 0 -24 1h-40q-3 0 -10 -1.5t-10 -1.5q5 0 -37 1l-132 3q-127 3 -139 -2l-10 2l-11 -3l-7 4h-6l-7 -4h-5l-4 4l-5 -1l-10 2l-7 -2q-10 4 -23 1l-7 3q-21 -2 -57 3
l-6 -2l-10 -10l2 -28q-1 -7 -4.5 -15t-8.5 -18l-10.5 -14t-10.5 -15v-10l8 -16l17 -5l7 5q12 0 27 20q15 9 41 9h18q10 0 21 -1l2 5l9 -1l6 -5q30 -2 43 -3t8 -1q12 0 20 3l5 10h4l7 -13q8 -1 12 -1h4h154q3 0 9.5 1t9.5 1q11 0 27.5 -0.5t39.5 -1.5t40 -1h28q14 0 34 0.5
t47 1.5q55 3 82 3h70q32 0 56 -1q4 0 12 -1.5t12 -1.5h11q8 0 19 1q9 1 16.5 1.5t12.5 -0.5q7 6 10 6q10 7 12 12l2 8q-2 7 -2.5 12t-1.5 9q5 11 9.5 18l7.5 12l6 3q15 15 18 37z" />
    <glyph glyph-name="tilde" unicode="&#x2dc;" horiz-adv-x="464" 
d="M397 708l-9 13l-11 2q-8 -1 -33 -17q-23 -15 -37 -15q-17 0 -39 9q-5 0 -12 -4h-6t-10 -1v7l-3 8q-11 2 -32 12q-10 5 -18 7.5t-14 3.5l-10 -3q-9 -9 -11 -22q1 -7 1.5 -11.5t0.5 -6.5l-9 -14l-23 -16l-23 -16q-30 -23 -33 -39l2 -10l6 -7l9 -3l9 1l16 12l16 12
q20 16 36 16q9 0 14 -3h8l4 -3q10 2 23 -8q7 0 14 -4h4l12 -5l7 1q25 -15 37 -17q13 3 21 14l5 14l-1 9l2 7q59 37 82 63z" />
    <glyph glyph-name="trademark" unicode="&#x2122;" horiz-adv-x="825" 
d="M42 585q7 48 49 48h37v-239q0 -40 -43 -40v-22h174v22q-43 0 -43 40v239h37q40 0 48 -48h23v70h-304v-70h22zM353 655v-22q16 0 36 -14t20 -27v-198q0 -37 -39 -40v-22h108v22q-41 0 -41 40v159h1l105 -220h13l115 220h2v-159q0 -40 -43 -40v-22h173v22q-42 0 -42 40v207
q0 32 43 32v22h-107l-113 -216l-105 216h-126z" />
    <glyph glyph-name="scaron" unicode="&#x161;" horiz-adv-x="397" 
d="M380 489l-6 11l-6 4h-6q-3 0 -8 1q-14 -5 -26 -12l-11 1q-87 51 -108 53q-18 -2 -29 -17q-2 -8 -3 -11l2 -10l-2 -7l-3 -4q-13 -4 -22 -5.5l-15 -2.5q-8 -2 -14 -4t-10 -4l-12 3q-10 -2 -17 -4t-12 -3q-8 2 -16.5 -2t-11.5 -11l-1 -11l2 -5l12 -9q2 -16 7 -21
q-5 -8 -5 -15l3 -5l-2 -8q1 -3 0.5 -9t-1.5 -12.5t-2 -12t-1 -8.5q0 -54 20 -71l32 -15.5l33 -15.5q4 1 11 -0.5t18 -3.5l3 -4q37 -9 48 -18q1 -8 1.5 -11.5l0.5 -3.5v-39q3 -16 22 -33q-1 -6 -6 -11q-4 -1 -6 -1h-1q-6 0 -15 2.5t-17.5 7t-15 9.5t-9.5 10l-9 -3l-14.5 10.5
t-10.5 8.5q-23 13 -33 18q-11 1 -16 1.5l-5 0.5l-2.5 -0.5l-7.5 -1.5l-13 -13l-3 -10q3 -12 -9 -30l-28.5 -20t-20.5 -14q-19 -39 -19 -50q0 -5 2.5 -19.5t1.5 -20.5q6 -17 16.5 -27t22.5 -20l4 1q5 0 10 -4h11q13 0 25 4q7 10 11.5 17t6.5 12l-1 12l-7 8.5t-5 5.5l-9 3h-9
q-6 -6 -18 -7q-12 4 -13.5 13.5l-1.5 9.5q0 4 6 19l15 11q21 3 59 -26q45 -34 66 -40q3 1 4 1h2h2t6 -1l12 4l9 9l3 12q0 9 -4 18q9 16 15 19q20 6 29 11l4 8l11 -3q9 6 23 11q9 0 25.5 4.5t25.5 3.5q11 8 14 19q1 4 -2 10l-8 6q-3 4 -3 42q1 2 1 4l-1 5q5 27 6 41
q-2 36 1 45l-3 7l2 6l-3 15l-11 14q-10 4 -17 6.5t-12 3.5l-7 5q-15 1 -28 11q-9 -1 -34 6q-26 7 -30 6l-3 2l-10 2l-12 8q-5 8 -5 26v9q0 6 1 14q1 7 1 12v9q-1 6 -3 12t-4 11l13 -12l4 -1q18 -17 34.5 -29.5l30.5 -22.5l4 -1l4 -5q18 -7 26 -7h3t8 1l6 3l4 5l3 10
q-2 21 -1 22l4 4l1 7q9 1 33 19q22 16 27 26q1 5 1.5 9.5t0.5 6.5zM355 694l-5 8l-2 10l-7 9l-15 3q-17 -5 -23 -7q-5 -7 -43 -26q-38 -20 -45 -20q-15 0 -46 15q-30 15 -40 28h-5l-2 4l-8 6q-5 1 -8 1h-2l-3.5 -0.5l-10.5 -1.5q-8 -8 -8 -22v-2t1 -7q6 -14 18 -24
q3 0 19 -16q19 -16 21 -19q4 -2 6.5 -3.5t4.5 -3.5q7 -4 11.5 -7t8.5 -5q1 -1 5 -4.5t12 -11.5q10 -10 21 -10q5 0 30 11l5 7q5 2 64 41l7 1l3 4q12 2 16 5v7q11 8 17 17z" />
    <glyph glyph-name="guilsinglright" unicode="&#x203a;" horiz-adv-x="241" 
d="M201 272q-12 6 -19 19t-13 26q-9 18 -28 40q-1 2 -1.5 4t-1.5 4l-10 1q0 14 -3 19q-8 5 -31 38q-22 30 -40 37h-16l-4 -3q-4 -5 -5 -19q7 -11 12.5 -18.5t10.5 -12.5v-3q12 -25 25 -43l5 -3l18.5 -41l16.5 -36l3 -3q1 -6 -4 -25l2 -5q2 -8 -4 -18l-9 -3q-1 -16 -37 -71
q-36 -56 -36 -63q0 -9 3 -15q10 -7 17 -7q6 0 17 10t12 15q29 23 35 53l6 2q8 5 17.5 17.5t20.5 32.5q22 39 36 50z" />
    <glyph glyph-name="oe" unicode="&#x153;" horiz-adv-x="570" 
d="M557 327q1 5 -2 16l-3 4l-11 6q-28 59 -29 70q-4 3 -12 7l-2 5l1 22l-15 35l1 8q-4 9 -6 15t-4 10v3q-3 9 -14 22h-12l-10 -8l-7 -13.5t-5 -9.5q-48 -29 -52 -35t-5 -9q9 -25 12 -37q4 -15 21 -55q16 -33 19 -55l3 -4l-3 -17q-4 -4 -11.5 -8.5l-15.5 -9.5l-15.5 -9.5
t-11.5 -8.5q-4 9 -4 27q0 11 4 20l-7 10v7q-1 3 -1 6q0 25 5 38q0 6 -5 16q2 13 3.5 19l1.5 6q0 36 -1 32q-2 3 -4 5v2q-10 8 -40 18q-31 11 -41 19q-36 27 -41 27l-5 8l-23 11q-5 1 -8 1h-3q-6 0 -12 -2l-8 -6q-5 -8 -5 -11v-3t1 -8q-3 -13 -15 -22q-20 -14 -22 -16
q-32 -9 -48 -15l-29.5 -7l-20.5 -5q-5 -10 -6 -13l2 -8l6 -6t6 -5q7 -11 7 -37q0 -23 2 -29l-2 -5q0 -17 1 -22l4 -4q-4 -8 -4 -16l4 -7q1 -4 -4 -19q1 -10 1.5 -14.5l0.5 -4.5l-0.5 -2t-1.5 -7q1 -3 1 -37l6 -6l-5 -4q0 -31 -15 -86l-12 -13l-3 -10l6 -10q9 -2 19 -8h4
q11 -4 42 -20q30 -17 35 -24q2 -1 4.5 -2.5t6.5 -3.5q4 -3 12 -3l2 -3q19 -1 27 -14q20 -4 21 -4l17 11l4 8q0 14 -7 21l-1 8q6 13 29 21l31.5 -10.5t21.5 -8.5q11 -12 17 -16l12 1q4 -1 6.5 -2t4.5 -2q1 -2 1.5 -4t1.5 -4l15 -11q39 -11 42 -11h2t6 1q6 -3 15 -3h2t6 1
l12 7q3 5 5 9.5t4 7.5q0 7 -6 19l11 13q22 10 51 47q28 35 28 59q0 5 -2.5 13.5t-2.5 12.5l-13 19q-10 5 -13 6q-16 -2 -20 -4l-4.5 -4.5t-11.5 -10.5q0 -10 -3 -17l2 -13l8 -13v-12l-3 -5q-8 -6 -13 -6q-28 0 -41 6l-10 -1l-3 2h-6q-21 7 -37 7q-7 11 -7 18q10 18 8 37l8 2
l9 8q5 13 7 24q16 16 36 19l5 5q16 5 36 13.5t45 20.5l28 16.5t17 20.5zM255 141q1 -3 -2 -11q-8 -1 -13 -1h-4q-47 0 -78 15l-4 6q16 45 17 65l-2 4q4 7 4 16v1q0 2 -1 6l5 13v4l-7 15l4 19q0 29 -4 36q1 29 1 51q0 23 -2 39q-5 8 -5 12v6l8 3l16 -5q11 -8 19.5 -13
t14.5 -7l22 4v-8l-5 -7q-1 -5 -1.5 -7l-0.5 -2q0 -28 -2 -36l2 -21q1 -10 1 -16v-7l7 -7l-5 -12v-9l5 -11l-1 -4l-6 -7l-1 -17l2 -5l-1 -9q2 -4 -1 -24q-1 -13 -1.5 -19t-0.5 -7l0.5 -5t2.5 -15q4 -11 17 -23z" />
    <glyph glyph-name="Ydieresis" unicode="&#x178;" horiz-adv-x="620" 
d="M604 616l-2 18q-5 9 -15 15q-8 2 -12.5 2.5l-4.5 0.5q-10 0 -26 -9l-7 -7l-22 -6t-22 -5q-33 3 -49 3q-17 4 -12 4h-4q-7 -1 -13 -9l-10 1l-2 6l-8 1q-30 2 -43 3q-2 0 -5.5 1.5t-4.5 1.5q-29 0 -49 -14q0 -7 -4 -14q-1 -2 4 -16l10 -10l21 -7l4 -7l18 1q3 -1 7 -3.5
t9 -6.5q13 -29 13 -54v-3t-1 -9l3 -9l-3 -9q0 -4 2 -10l-6 -10l1 -8l10 -2q-1 -6 1 -16l-11 -11l-2 -6l4 -14q-3 -41 -5 -45l2 -9l3 -4l1 -7q-5 -3 -13 -15q0 -7 -1.5 -10.5t-5.5 -16.5l-5 -6q-8 -54 -58 -68q-26 1 -33 3q-11 3 -27 18l-1 4l-11 11q1 4 -6 21q-7 15 -7 24
l0.5 4.5l1.5 13.5q-3 6 -3 9v4l5 1q2 24 6 34l-1 7l-3 4v5l6 5q5 6 13 52q7 38 7 57q0 4 -1 8v8q0 2 2 8t2 7q0 7 -2.5 21t-2.5 21v1q0 2 1 6l-8.5 21t-5.5 15q-5 9 -9 15.5t-7 10.5q-6 4 -10.5 6.5t-7.5 4.5l-6 1q-11 10 -25 10q-48 0 -68 -10q-26 -12 -39 -51l1 -9l-3 -3
q1 -3 1 -20q2 -3 4 -7t5 -9l14 -9h22l3 4l10 5q9 12 10 27q-2 7 -2.5 10.5l-0.5 3.5v2t1 6q2 3 7 8l10 3l11 -3l6 -9v-4l3 -6q0 -2 1 -7t1 -8q0 -4 -1 -7v-7q-8 -21 -17.5 -39.5t-20.5 -34.5q-5 -2 -8 -5l-5 -5l-1 -6l-14 -18q-4 -2 -8 -4.5t-9 -4.5l2 -14q-21 -30 -21 -45
l-3 -4q-1 -8 -5 -26.5t-4 -29.5q0 -6 0.5 -13.5t2 -15t3 -13.5t3.5 -8q0 -21 14 -38l1 -13l7.5 -11.5t7.5 -10.5q10 -2 13 -3q10 -18 11 -26q27 -11 40 -12l4 -9l9 -3l5 1q17 -11 53 -11h7q8 0 23 1l4 2l19 1l10 8l7 -4q4 2 7.5 3.5t7.5 3.5h6q5 4 9 6.5t7 3.5q26 23 38 38
q1 -2 1 -3v-1q-2 -61 -6 -95l-4 -7v-5l-10 -20q-19 -9 -29 -8l-10 -5h-36h-39l-3 -5q-14 6 -30 6q-5 0 -13.5 -0.5t-22.5 -1.5q-24 -3 -33 -2l-5 -7q-3 -3 -7.5 -4.5t-11 -4.5t-14.5 -9.5t-18 -18.5q-5 -11 -6 -16q4 -18 6 -29l5 -6.5t4 -4.5q4 -2 7 -4t5 -4l17 -1q4 3 13 3
q18 8 31 36l4 2l6 7q24 11 51 11l3.5 -0.5t11.5 -1.5q4 2 50 2q5 0 16 -1t17 -1l5 -1h46l9 4l7 -3l4 -3h5q6 0 12 2q10 -6 116 -6q55 0 66 8q10 7 17 14l1 13q-5 16 -19 20l-5 -1q-10 6 -17 7l-4 4l-12 4q-7 14 -15 19q-1 8 -1 12v4q0 4 1 7v7l5 11l-13 15v14l3 4
q2 29 -7 52q5 15 5 73v24t-1 16l-4 1l-1 10l5 8q1 7 1 12t1 8l-2 8l-6 5l6 6q1 7 1.5 11.5t0.5 6.5q0 4 -1 9v8l-3 6q0 12 -3 21l7 8q-2 5 0 14q1 6 1.5 9.5t0.5 4.5q0 19 2 27q-2 6 0 18q3 16 3 19q6 21 20 30l11 4l4 4l7 1q28 16 36 36zM491 782q0 16 -19 31
q-22 18 -27 26l-2 12l-3 5q-4 4 -22 9q-5 -2 -9.5 -5t-8.5 -5q-13 -13 -18 -28q-40 -21 -40 -42v-3t1 -8l7 -9q33 -19 34 -23q-3 -11 -2 -16q4 -12 8 -16l7 -4l14 -1l14 9l13 20q20 11 30 25l13 3l4 3q4 9 6 17zM322 777q1 7 -2 15q-11 14 -35 29q-4 7 -7 14q-1 3 1 9l-3 7
l-7 7l-16 3l-13 -3q-21 -28 -32 -41l-13 -3q-14 -8 -21 -18q0 -3 0.5 -7.5t1.5 -11.5q21 -24 39 -37q-3 -8 -2 -15q7 -14 11 -20l15 -4l8 1q7 3 11 9l2 7q37 34 57 48z" />
    <glyph glyph-name="exclamdown" unicode="&#xa1;" horiz-adv-x="288" 
d="M218 594l-3 10l-12 10l-6 1l-6 6l-5 2q-1 2 -2 5t-3 7l-15.5 14t-10.5 11l-7 2l-6 5l-14 3l-7 -2l-8 -6q-5 -8 -3 -25l-10 -16q-26 -18 -34 -32l1 -14q5 -9 18 -17q2 -1 7 -3t15 -7v-5q14 -15 34 -40l14 -1q12 8 17 11l4 7v5q0 4 -3 15l1 5l24.5 19l17.5 13q0 2 0.5 6
t1.5 11zM261 129q-14 11 -24 33t-8 40l-2 5v6l-6 14v18l-11 18l-1 11q2 3 4 12l-10 9l-2 6l8 12v4l-5 7q-9 3 -10.5 6.5t-1.5 4.5q0 3 1.5 9t1.5 8q0 13 -15 61q-7 25 -12.5 40t-9.5 22l-11 8q-10 1 -20 -3q-18 -31 -17 -61l-4 -2q-2 -7 -3 -11.5t-2 -7.5l-4 -4l1 -13
q-5 -11 -12 -45q-7 -28 -16 -44l4 -5l6 -3q-1 -30 -5 -41l-6 -3q-12 -63 -25 -97l-14 -12l-3 -14q19 -8 33 -10l16 -13l4 -1q4 -11 3 -15l7 -4l7 3q10 -16 10 -21l-1 -20l13 -23l4 -2l3 -6q3 -1 11 -5h12q18 8 25 27q11 26 18 32q2 5 1 8q2 2 5 7l8 13q9 12 17 17q6 2 11 4
l14 -1l5 2l7 8z" />
    <glyph glyph-name="cent" unicode="&#xa2;" horiz-adv-x="502" 
d="M469 575l-3 10l-9 4l-5 5l-21 -7q-19 -15 -30 -26h-5q-13 8 -17 12q-6 0 -31 9q-26 9 -38 8q-1 5 -1 7v2q0 6 1.5 20t1.5 21q-5 19 -15 26l-13 4l-18 -5q-10 -10 -12 -17q0 -7 2 -13l-4 -8q-1 -4 -1 -14v-23h-10q-24 -10 -38 -10l-15 -9.5t-12 -6.5l-2 -5l-30 -15l-4 -10
q-15 -11 -23 -19l-5 -9l-12 -4l-5 -17l1 -14l-5 -7v-8l-6 -5q-6 -18 -5 -23l-5 -8q-2 -14 -9 -36q-8 -27 -14 -32l-5 -3v-4l3 -3q9 -23 9 -34q0 -5 1.5 -13.5t1.5 -13.5v-7t-1 -9q4 -5 7.5 -8.5t5.5 -6.5l2 -6q-1 -3 -1 -9q0 -15 23 -61l8 -3v-10l4 -4v-4l13 -16l12 -7
q-1 -7 5 -16q45 -37 73 -35q28 -9 41 -8q-1 -6 2 -22l-3 -9q4 -45 8 -50q7 -5 12 -8t9 -5q4 1 7.5 2t7.5 3h8q7 13 7 18q-3 8 2 28q-2 10 -3 14.5l-1 4.5v6t1 9v15l7 -2q10 4 17.5 6t12.5 4q10 8 18 13l13 8q5 1 7 1h2l3 -0.5t10 -1.5q3 -4 16 -16q13 -11 18 -13h11
q4 3 13 3l6 13v4l-4 6l2 4q1 4 -2 12l-8 7q-1 2 -1 5q0 4 -1 8l-13 8l-1 9l-4 7l1 7q-3 12 -3 16v4l3 8q0 8 -4 15q1 13 -2 28l2 4q0 4 1.5 12.5t1.5 13.5q0 38 -12 46l-8 3h-12l-15 -14q-4 -9 -4 -27v-6l3 -5l-7 -7l-1 -7l2 -8l-4 -7l1 -17l-4 -5q-4 -17 -5.5 -26.5
t-2.5 -11.5q-4 -10 -7.5 -17.5t-5.5 -12.5l-9.5 -9.5t-7.5 -6.5l-7 -2l-5 -4l-10 -1q-2 39 0 42l-2 4l3 9q0 4 -1.5 13t-1.5 13v4l2 5q1 4 -3 18l2 5q0 7 -0.5 18t-1.5 22.5t-1.5 22.5t-0.5 18q0 4 -1 11.5t-1 10.5v114q0 4 2.5 11t2.5 10t-2 9t-2 8q0 62 1 57h4q7 -4 14 -7
t14 -7q10 -7 18.5 -21t12.5 -20l-3 -7q2 -3 4 -5.5t4 -4.5l1 -5l4 -5q-6 -25 7 -47l-2 -40l4 -9l15 -14l4 -1q5 2 10 3t10 3q14 11 14 34q0 5 -2.5 13t-2.5 12v8l4 3l-1 11l-4 6l1 11l-2 5q-1 11 -1 18v13l5 5q-2 11 8 26q4 5 8 11l8 12v8l5 6zM261 244q-4 -4 -4 -14
q0 2 0.5 -10.5l1.5 -38.5q1 -16 0.5 -27.5t-2.5 -19.5l2 -10q-25 7 -29 34l-5 4l-1 5l-4 5q-4 19 -4 35l-4 6q0 14 6 25l-8 6l4 21l-5 7q2 6 -1 20l3 8l-7 7q2 8 3.5 11.5l1.5 3.5v6l-9 6l-2 4l2 8l-1 8l3 7q-1 4 1 12t2 11q0 6 -3 14q2 7 3 16q3 34 13 66l7 7v13
q16 16 19 30l10 7q-1 -6 -1 -9v-3v-2q0 -1 1 -3q-3 -12 1 -22l-3 -9l3 -14q-5 -17 -3 -48l-3 -4q8 -28 4 -49l2 -6q-1 -4 -1.5 -7.5t-0.5 -8.5q0 -6 1 -14.5t2.5 -17.5t2.5 -17t1 -12q0 -45 1 -47z" />
    <glyph glyph-name="sterling" unicode="&#xa3;" horiz-adv-x="546" 
d="M538 142q0 3 -1 4q-7 9 -13 10h-13l-11 -5q-11 -14 -29 -25q-23 -14 -35 -11l-8 -3q-16 1 -26 2t-15 3q-1 -1 -16 -1l-4 3l-6 -2q-19 4 -20 4h-5l-5 -2q-8 1 -12 9l-12 -5h-16q-2 1 -4 1l-6 -1q-27 9 -61 9q-9 0 -22 -3q-17 -3 -23 -3l3 4q27 13 48 48q8 15 17 30t17 30
v4l-3 7q16 16 21 60q5 0 16.5 1t17.5 1q16 0 39 -3l4 -2l4 1l3 -3q19 -6 30 -12l6 1q9 5 14 14l1 5l-4 21q10 18 18 28q5 15 6 20v10l-4 10l-5 3l-12 3l-11 -4q-11 -11 -17 -17.5t-8 -7.5l-9 -1l-7 -4l-7 1q-6 -2 -10 -2q-48 0 -54 2q-6 -2 -10 -1v7q0 7 -1 20q-2 21 -5 24
q0 7 -3 48l-6 8l8 14q-2 14 8 42q11 31 21 38l23 18l9 2l5 5l1 4h5l3 -4l10 1l21 -7l10 3q5 -7 9 -10.5t11 -2.5q2 -8 9 -14q1 -8 9 -16q2 -12 3.5 -19.5t1.5 -10.5q0 -8 -1.5 -25t-1.5 -25q0 -41 36 -54h12q19 7 25 20q1 3 1 4v2l-3 24q-4 6 -15 11l-3 10q2 8 -1 17
q1 6 9 18l-2 6q3 3 5 15l6 4q3 19 8 35l3 4q4 14 5.5 25.5t2.5 21.5q-2 7 -8 12t-9 5q-14 0 -33 -10l-2 -4q-6 -8 -17 -13q-16 10 -53 22q-41 12 -56 8l-4 1q-13 -1 -22.5 -1.5t-16.5 -0.5q-13 -3 -22 -6t-16 -5q-5 -1 -8 -1h-3l-21 -12t-15 -7l-3 -4l-19 -12l-13 -8l-2 -5
l5 -2q-17 -8 -29 -13l-5 -13v-6l-6 -7q-1 -4 -4.5 -11.5l-8.5 -18.5q-11 -23 -12 -35l-3 -2l3 -11q0 -3 -2.5 -9t-2.5 -8v-7l3 -8q-2 -4 -4 -15q2 -16 3 -27t2 -19h-39q-14 -1 -28 -28l-4 -3l-1 -7l-12 -19q2 -14 4 -17l9 -7l10 -1l28 12h7q5 0 10 1h17q7 0 9 -1
q5 -4 9.5 -9.5t9.5 -12.5l-2 -14l9 -5l1 -4q-3 -3 -5 -13l2 -8l6 -4l-5 -18q1 -4 3 -10v-5l-5 -6q-3 -8 -3 -16q0 -4 2 -12t2 -11v-3l-5 -12l-12 -13l-1 -4l2 -10l-3 -7l-10 -6l-5 -12v-4l4 -9l-2 -4q-7 -4 -13.5 -13t-11 -19.5t-7.5 -21t-3 -19.5q0 -7 11 -23l18 -5l12 5
q10 21 31 29q15 5 43 5q16 0 30 -3q3 -1 7 1q30 -1 44 -11l8 2l5 -5l1 -3l4 -3l12 -1l6 2t5 2q15 0 17 -1l11 -9l10 3q20 -5 27 -5l4 -2q6 0 18 -1t17 -1q27 0 44 13q7 8 10 20q0 13 -8 26q14 5 42 43l7 3l7 8v7q15 16 15 38z" />
    <glyph glyph-name="currency" unicode="&#xa4;" horiz-adv-x="693" 
d="M596 35l71 74l-100 99q39 73 39 130q0 65 -42 136l100 100l-73 73l-103 -101q-73 37 -129 37q-59 0 -133 -38l-104 103l-74 -74l103 -101q-41 -74 -41 -134q0 -65 39 -131l-101 -101l73 -72l100 99q78 -42 142 -42t133 42zM360 462q26 0 48 -9.5t38.5 -26t25.5 -39
t9 -48.5t-9.5 -48t-26 -38.5t-38.5 -26t-48 -9.5t-48 9.5t-38 26t-25.5 38.5t-9.5 48t9.5 48.5t26 39t38.5 26t48 9.5z" />
    <glyph glyph-name="yen" unicode="&#xa5;" horiz-adv-x="663" 
d="M663 625v7l-8 16l-15 11q-2 1 -4 1h-1q-10 0 -13 -1q-4 -4 -14 -7q-6 -6 -9.5 -9t-4.5 -4l-8 -1q-8 -12 -17 -17q-27 -7 -32 -7h-5l-7 4l-7 -3l-5 6l-5 2h-13l-8 4h-25q-10 0 -17 -1l-9 8l-9 1.5l-3 0.5q-21 0 -48 -8q-23 -14 -24 -30q3 -12 11 -24q17 -2 26 -3.5
t11 -1.5l15 -12l5 -4l4 -16l14 -5l-9 -15q0 -8 3 -15q-4 -18 -16 -25l-1 -9q2 -6 1 -8q-8 -10 -13 -17.5t-9 -12.5v-7l-5 -3v-8q-7 -12 -11 -34l-13 -13l-12.5 19l-10.5 15q-4 12 -6 22l-9 7q-12 24 -24 36v17l-7 5q0 4 -2 10t-5 11.5l-5.5 10.5t-2.5 8q2 11 3 20t2 14l11 5
q6 7 12 13l12 12l5.5 10.5t8.5 17.5q-3 9 -3 21q-10 15 -21 16q-9 -4 -20 -1l-13 -4q-2 -2 -3.5 -5l-3.5 -7q-14 -7 -19 -8l-5 -7l-14.5 -3.5l-10.5 -2.5q-6 1 -23 1q-16 0 -25 3l-12 -6l-11 11l-3 1l-7 -5l-5 9v5l-3 2q-10 -1 -14 -1.5t-3 -0.5q-2 0 -6.5 1.5t-7.5 0.5
q-15 -3 -10 -3q-61 0 -73 -6q-4 -4 -7.5 -7t-7.5 -7l-4 -8q1 7 3 -18q7 -13 13 -16l38.5 -10.5t29.5 -6.5l6 -9l1 -5l21 -8l14 -20t11 -14l10 -7q1 -4 1 -6v-2v-3t-1 -9l12 -11l7 2l1 -5l-2 -10l6 -11q0 -8 5 -16q7 -4 13 -4l2 -13.5t3 -13.5l16 -4l-1 -9q-11 1 -28 -1
t-24 -2h-19l-13.5 -13.5t-9.5 -10.5l-12 -24.5t-10 -16.5l10 -12l16 -9l9 -1l20 11q40 5 58 6h6t11 -1q10 -2 18 3q11 -8 16.5 -13t7.5 -7q-5 -28 -5 -21q0 -4 0.5 -8.5t1.5 -9.5h-6q-3 1 -7 1q-7 0 -17.5 -0.5t-24.5 -1.5t-24 -1h-17h-29q-2 -1 -4.5 -3t-6.5 -4
q-30 -38 -30 -66l4 -5q5 -2 16 -11q2 2 22 12q14 8 24 8h9q10 0 30 -1q24 -1 31 0q3 0 10 2t11 2h7q3 -8 3 -20v-4l-4 -7q-3 -43 -19 -58l-2 -5l-14 -15l-13 -2q-12 -9 -21.5 -15t-16.5 -10q-8 -14 -13 -24.5t-7 -18.5v-7l11.5 -13.5t10.5 -11.5q5 -2 7.5 -2.5l2.5 -0.5h15
q2 0 6.5 3t9 7l8.5 7.5t5 5.5q20 13 55 16l12 -6q7 2 12 7q7 -4 12 -6.5t8 -3.5h14l5 -5h3q10 -6 41 -6q6 0 14 3l3 -8q27 7 32 7t15.5 -2t15.5 -2h10q29 11 35 28l1 12q-3 9 -11 17q-6 -1 -14 1l-8 5l-7.5 1.5l-2.5 0.5h-2t-7 -1l-6 7l-12 1l-2 4l-8 6l-10 20q0 3 -0.5 8.5
t-2 11.5t-2.5 12t-1 9l-8 9q1 4 1 6v2v29q7 0 23 2t24 2h60l24 -21l22 3l9 5l5 20q-5 4 -8.5 12l-7.5 16.5l-7.5 16t-7.5 10.5q-14 12 -44 12q-6 0 -16 -1t-20.5 -1.5t-20.5 -1.5t-16 -1q-3 0 -11.5 1t-12.5 1q5 28 5 41l5 5l4 11q8 -1 18 -0.5t23 1.5q15 1 25.5 1.5
t15.5 0.5l7 -1.5t21 -3.5q5 -5 9 -8.5t8 -6.5l8 -3h6q3 2 7.5 5.5t10.5 7.5l-1 14q-4 5 -5.5 9t-2.5 6q1 10 0 19q-12 23 -18 28q-5 0 -16 2t-17 2h-12q-7 0 -18 -1q-18 -2 -30 0q1 2 1 4q0 3 1 6l9 9q5 11 8 19t5 12l-3 9l8 5l33 57l8 6l3 9q12 11 17 17l36 26q7 1 12 2
t9 2l7 7l10 3q21 20 34 31q0 20 3 25z" />
    <glyph glyph-name="brokenbar" unicode="&#xa6;" horiz-adv-x="360" 
d="M186 329h128v323h-128v-323zM186 -150h128v288h-128v-288z" />
    <glyph glyph-name="section" unicode="&#xa7;" horiz-adv-x="500" 
d="M380 106q81 112 81 156q0 39 -28 67l-50.5 40t-39.5 28l-85 59.5l-61 42.5q-40 33 -40 53q0 16 22 44t40 28q10 0 27 -11l57 -40.5l48 -35.5l66 90l-102.5 70.5t-64.5 39.5q-185 -159 -185 -248q0 -39 53 -86q-42 -51 -53 -68q-29 -44 -29 -77q0 -49 112 -137l77.5 -57
t49.5 -35q44 -33 58.5 -51t14.5 -38q0 -25 -23 -56q-18 -24 -36 -35q-134 53 -134 93q0 2 17 38l-31 27l-53 -62q-52 -61 -52 -71q0 -8 18 -23q49 -42 95 -71.5t91 -46.5q14 11 21 17t9 8q166 139 166 247q0 47 -56 101zM288 283q86 -63 86 -83q0 -18 -31 -64
q-213 157 -213 183q0 14 28 54l89 -60.5t41 -29.5z" />
    <glyph glyph-name="dieresis" unicode="&#xa8;" horiz-adv-x="450" 
d="M384 662q0 16 -19 31q-22 18 -27 26l-2 12l-3 5q-4 4 -22 9q-5 -2 -9.5 -5t-8.5 -5q-13 -13 -18 -28q-40 -21 -40 -42v-3t1 -8l7 -9q33 -19 34 -23q-3 -11 -2 -16q4 -12 8 -16l7 -4l14 -1l14 9l13 20q20 11 30 25l13 3l4 3q4 9 6 17zM215 657q1 7 -2 15q-11 14 -35 29
q-4 7 -7 14q-1 3 1 9l-3 7l-7 7l-16 3l-13 -3q-21 -28 -32 -41l-13 -3q-14 -8 -21 -18q0 -3 0.5 -7.5t1.5 -11.5q21 -24 39 -37q-3 -8 -2 -15q7 -14 11 -20l15 -4l8 1q7 3 11 9l2 7q37 34 57 48z" />
    <glyph glyph-name="copyright" unicode="&#xa9;" horiz-adv-x="589" 
d="M298 654q-123 0 -202 -78t-79 -200q0 -64 31 -125q37 -72 101.5 -111.5t145.5 -39.5q66 0 126 29q70 36 110 102t40 145q0 67 -30 126q-18 34 -43.5 62.5t-57 48t-67.5 30.5t-75 11zM297 601q54 -2 98 -25q55 -29 86 -81.5t31 -118.5q0 -96 -61 -160t-156 -64
q-92 0 -156 66q-63 66 -63 158q0 96 63 161q63 66 158 64zM438 348h-57q-9 -66 -83 -66q-40 0 -61 29q-19 25 -19 67t20 70t60 28q66 0 80 -51h57q-5 42 -32 71q-41 44 -106 44q-35 0 -63 -12t-48 -33.5t-31 -51t-11 -64.5q0 -72 40 -116.5t112 -44.5q60 0 99 35t43 95z" />
    <glyph glyph-name="guillemotleft" unicode="&#xab;" horiz-adv-x="324" 
d="M297 439v12l-7 8l-8 1l-11 -4l-21 -19l-13.5 -24.5t-13.5 -21.5q-5 -11 -6 -18h-6l-10.5 -20t-8.5 -14l-17.5 -38l-12.5 -27q3 -25 26 -73l21 -37.5t20 -31.5l5 -2l4 -15q22 -22 31 -34l9 -2l15 3l3 16q-4 8 -6.5 14t-4.5 10l-13 29.5t-18 44.5q-22 57 -22 74q0 14 7 31
l12 30q-2 10 22 53t24 55zM214 99q-5 13 -33 57q-24 36 -25 60l-4 5l-11 1l-5 12l2 10q-7 13 -10 32l24 51.5l17 38.5l1 10q6 2 14 12.5t8 16.5l12 17.5t8 13.5l2 18l-11 9q-8 2 -17 -3q-47 -42 -58 -65l-34 -50.5t-30 -48.5q-7 -7 -12.5 -12t-9.5 -8l-2 -7l3 -4h5
q3 -2 23 -34t20 -35q12 -12 15 -13q1 -5 3 -10l4 -10l5 -4l11 -18q4 -2 12 -11t19 -26l5 -3q7 -8 13.5 -14t12.5 -11l20 -2z" />
    <glyph glyph-name="logicalnot" unicode="&#xac;" horiz-adv-x="600" 
d="M452 109h100v301h-504v-100h404v-201z" />
    <glyph glyph-name="registered" unicode="&#xae;" horiz-adv-x="589" 
d="M298 654q-123 0 -202 -78t-79 -200q0 -64 31 -125q37 -72 101.5 -111.5t145.5 -39.5q66 0 126 29q70 36 110 102t40 145q0 67 -30 126q-18 34 -43.5 62.5t-57 48t-67.5 30.5t-75 11zM297 601q54 -2 98 -25q55 -29 86 -81.5t31 -118.5q0 -96 -61 -160t-156 -64
q-97 0 -158 64t-61 160t63 161q63 66 158 64zM177 533v-308h74v126h34q38 0 51 -25q10 -19 11 -61q2 -33 7 -40h70q-6 13 -8 47q-1 23 -3 37.5t-4 22.5q-9 30 -40 40q51 22 51 75q0 86 -112 86h-131zM251 488h45q51 0 51 -47q0 -48 -55 -48h-41v95z" />
    <glyph glyph-name="plusminus" unicode="&#xb1;" horiz-adv-x="402" 
d="M171 279v-126h77v126h145v76h-144v125h-77v-125h-145v-76h144zM27 114v-77h366v77h-366z" />
    <glyph glyph-name="acute" unicode="&#xb4;" horiz-adv-x="296" 
d="M229 714v9l-4 9l-15 9q-5 1 -15.5 -1t-14.5 -2l-4 -2q-18 1 -23 4q-6 -2 -22 -2q-18 0 -21 3l-12.5 -2.5t-16.5 -4.5q-7 -4 -10.5 -12l-3.5 -8q0 -9 1 -12q11 -16 42 -26q9 -17 9 -28v-3t-1 -9l-3 -6q-7 -4 -14 -16q-1 -8 2.5 -14t10.5 -14l4 -2q5 1 8 1h6l14 7
q30 36 46 89q8 5 13 11l12 3l8 8l2 6t2 5z" />
    <glyph glyph-name="paragraph" unicode="&#xb6;" horiz-adv-x="526" 
d="M480 614h52v48h-252q-91 0 -141 -26q-80 -44 -80 -146q0 -78 50 -123q46 -43 126 -43h18v-430h64v720h99v-720h64v720z" />
    <glyph glyph-name="periodcentered" unicode="&#xb7;" horiz-adv-x="233" 
d="M193 328v9q-8 18 -18 19q-6 7 -11 12l-9 9l-4 2l-1 6l-7 4q-7 18 -14 26l-10 7h-12l-16 -6l-5 -6q-2 -5 -3 -9.5t-2 -6.5l2 -10q-11 -20 -28 -26q-11 -11 -15 -21l2 -12l10 -14l9 -3l18 -14.5t15 -10.5l4 -12l21 -19l9 -2q5 2 8.5 3t5.5 2q11 11 11 22v1q0 2 -1 5
q1 11 19 25q16 12 22 20z" />
    <glyph glyph-name="periodcentered" unicode="&#x2219;" horiz-adv-x="233" 
d="M193 328v9q-8 18 -18 19q-6 7 -11 12l-9 9l-4 2l-1 6l-7 4q-7 18 -14 26l-10 7h-12l-16 -6l-5 -6q-2 -5 -3 -9.5t-2 -6.5l2 -10q-11 -20 -28 -26q-11 -11 -15 -21l2 -12l10 -14l9 -3l18 -14.5t15 -10.5l4 -12l21 -19l9 -2q5 2 8.5 3t5.5 2q11 11 11 22v1q0 2 -1 5
q1 11 19 25q16 12 22 20z" />
    <glyph glyph-name="cedilla" unicode="&#xb8;" horiz-adv-x="278" 
d="M207 15l-35 17q-2 -4 -11.5 -15l-26.5 -30q-30 -34 -31 -44q-3 -10 13 -13q4 -1 16 0q16 0 19 -1q24 -6 20 -28q-4 -25 -32 -19q-20 7 -32.5 10t-18.5 4q-32 6 -48 -39q8 7 25 7q14 0 59 -17q30 -11 47 -11q30 0 51 19.5t21 48.5q0 41 -40 48q-17 2 -28 3.5t-16 2.5z" />
    <glyph glyph-name="guillemotright" unicode="&#xbb;" horiz-adv-x="324" 
d="M284 276q-2 2 -5 4t-7 4l-27 45l-24 40l-10 1l-1 14q-4 7 -7.5 11.5t-6.5 7.5l-4 3q-4 12 -25 33t-31 25h-15l-5 -3q-2 -4 -4 -19q4 -7 7.5 -12.5t5.5 -9.5q9 -5 10 -9v-3q12 -25 25 -43l4 -3q10 -20 12 -22l12 -28l12 -27l3 -3q1 -6 -4 -25l2 -5v-7l-5 -11l-8 -3
q-2 -15 -37 -70q-17 -28 -26.5 -45t-10.5 -25l4 -9l10 -6l6 -1l5 1q9 6 23 20l1 4q28 18 36 53q9 1 38 42q25 36 30 50l12 10zM169 273v4l-4 2l-21 45q-8 4 -13 14.5t-9 17.5l1 8q-4 5 -4 11l-16 24l-16 25q-24 36 -35 38h-6t-9 -1l-7 -12l-1 -8q1 -2 3.5 -8l6.5 -16
q5 -16 12 -23v-7q8 -17 14 -25l17 -52q8 -26 8 -25q7 -5 9 -12l-22.5 -62.5l-20.5 -59.5l-5 -5q0 -3 -3 -9.5l-6.5 -14t-6.5 -15t-3 -11.5l8 -19l5 -4q13 2 17 4q1 8 26 39q24 30 22 38q39 51 59 119z" />
    <glyph glyph-name="questiondown" unicode="&#xbf;" horiz-adv-x="382" 
d="M276 576l-1 13q-21 19 -34 28l-8 -9l-5 3l-1 15l-15.5 16l-15.5 16l-11 5h-6l-2 -3l-5 -2l-4 -5q-1 3 -4 -31l-22 -17t-9 -7l-12 -23l7 -15q9 -5 16 -14l7 -2l5 -4h4l12 -11q1 -4 1.5 -8.5t2.5 -10.5l6 -2l7 -8q10 -3 17 -3l4 1l3 -1q7 1 17 11l3 6v14q5 8 19 18t19 17z
M356 174q-4 19 -4 22q-2 2 -4.5 5.5t-6.5 7.5l-11 3q-16 -2 -22 -5q-5 -12 -11 -18v-7l-4 -4l3 -11l-5 -7l-9 -5l-9 -12q-5 -2 -11 -2.5t-12 -1.5l-5 3q-16 -1 -40 10q-24 22 -30 30q-2 9 -4 15.5t-4 10.5q2 11 -5 22l3 11l-1 4l2 18q8 20 9 31q6 18 16.5 39.5t26.5 46.5
l1 6q15 9 18 68q0 3 -4 9t-5 8q-12 5 -23 5q-3 0 -4 -1q-4 -6 -14 -9l-9.5 -29.5t-7.5 -24.5l-8 -8q-1 -5 -1 -8v-2q1 -2 1 -4l-3 -7l-6 1l-13 -8l-2 -5l1 -6q-8 -5 -14.5 -8.5t-11.5 -5.5l-1 -10l-8 -3l-3 -10l2 -6l-3 -9l-13 -5q-18 -15 -32 -49q-1 -4 -5 -18t-12 -39
q-8 -6 -11 -14q3 -8 5.5 -14t4.5 -10l8 -40t5 -20q10 -31 34 -49l3 -12h13l3 -4l7 -3l3 -6q6 -2 33 -12q17 -7 37 -7q6 0 14.5 1.5t17.5 4t16.5 4t12.5 1.5q4 -1 7 -2t5 -2l1 -4l19 -14q13 0 19 1.5t15 14.5q1 6 1 9v3q0 3 -4 22l-4 4l-3 9q1 21 9 30l12 15t5 7l6 3l3 8
q10 8 14 22q1 1 7 26z" />
    <glyph glyph-name="Agrave" unicode="&#xc0;" horiz-adv-x="760" 
d="M760 24l-5 11l-13 8q-13 0 -26.5 5t-16.5 5q-5 6 -8 11t-5 9l-13 4l-3 12l-6 8q-1 12 -13 29q-9 1 -21 8l8 11v4l-9 25.5t-7 21.5q1 5 -1 15l-7 10v6q-4 12 -9 17l1 9l-2 6l-4 2q-4 11 -6.5 20t-4.5 14q16 -8 24 -7q6 -4 10 -6t6 -4l10.5 -17.5t6.5 -13.5l14 -10
q4 -1 8 -1.5t8 -1.5q14 5 21 13l6 20q-2 8 -3 13.5t-2 7.5q-8 14 -17 19l-4 1q1 5 -2 12l-8 -3l-3 10q-20 12 -33 12l-12 8q-20 -3 -36 7h-4l-10 14l-2 13q4 16 -7 32l-6 5q-1 5 -1.5 7l-0.5 2q0 3 -1.5 12t-3.5 24l-7 6l1 9l-12 60v5l3 4q0 8 3 11l26 20q19 1 49 24
q5 13 12 17l4 18l-2 12q-3 3 -6 6.5t-6 7.5q-8 2 -11.5 3.5l-3.5 1.5h-15l-12 -5l-13 -18q-20 -12 -57 -12l-4 2q-34 3 -51 -5l-4 -7l-9 2l-7 -7l-4 10q-5 2 -8 2.5l-3 0.5q-68 0 -81 -3q-23 6 -77 6l-8 3l-2 6q-7 6 -11.5 10.5l-7.5 7.5h-6l-4 3q-3 1 -5 1h-1q-5 0 -21 -3
l-5 -3l-12 -16t-6 -20q0 -6 3 -16l7 -10q12 -7 17 -13q13 -2 23.5 -4t18.5 -4q8 3 21 -1l21 -6l11 -8v-8l2 -4q-3 -3 -14 -60l-13 -20v-10l-9.5 -25.5l-7.5 -19.5q3 -8 -1 -17q-6 -5 -8 -10l1 -6l-5 -10l-1 -9l-2 -4l-13 -6q-48 -1 -86 -21q-47 -24 -47 -67q0 -11 1 -16
l16 -16q8 -1 12.5 -1.5l4.5 -0.5l3 0.5l9 1.5q15 15 15 17v5q8 18 14 24q21 14 38 12q4 -1 10 -3l-6.5 -16.5t-9.5 -28.5q-10 -31 -19 -43v-6l-4 -8v-3q-4 -11 -9 -20.5t-11 -17.5l-1 -10q-4 -5 -7.5 -10t-6.5 -10q-13 -7 -16 -19l-6 -5q-12 -2 -15 -5l-2 -8q-8 -8 -46 -27
q-34 -17 -44 -40l-1 -16l8.5 -13.5t5.5 -9.5q4 -1 7 -1q4 0 6 -1l5 1l4 -1q11 5 18 7.5t11 4.5l4 8q30 13 38 14q5 1 15 2t26 3l4 -2q31 -3 27 -3l4 -3h8h4h22l7 -2l4 -7l13 -1q4 -2 23 -2q23 0 57 7l15 11l4 7q-2 10 -2.5 15l-0.5 5l-6.5 5t-4.5 4q-54 9 -65 26l-1 4l-5 6
q-8 24 -10 27v11q0 32 11 48l-1 8l-9 11l7 6l1 5l-6 13l13 5l4 4l2 9l-2 10l-2 3q0 5 5 18l4 5l-1 9l7 -1l-1 -5h4q42 -29 54 -68q9 -29 9 -30l17 -7l9 2l11 9q19 76 71 93q10 -34 10 -54q0 -26 4 -41l-2 -19l5 -12q3 -22 -14 -44.5t-38 -32.5l-7 -1q-14 -13 -21.5 -19
t-8.5 -7q-15 -16 -13 -36q4 -13 17 -23q8 -4 15 -4q5 2 11 4t14 4l1 4q12 9 20 17l7 1l5 5l15 5l4 -2h3l5 2q58 3 120 -12l1 6q5 1 13 -1q15 -10 28 -8q19 -6 30 -9h6l8 3q14 -3 39 2q19 7 27 19q2 5 2.5 8.5t1.5 5.5zM449 313l-9 2q-25 -7 -43 -20l-4 -1l-15.5 -17.5
l-10.5 -12.5q-49 58 -79 61q-1 5 -1.5 7l-0.5 2v2q0 3 1 8q10 10 16 38q6 29 13 37v5q10 28 11 39q10 32 18 55t16 37l6 2l7 -7l37 -109l-4 -7l3 -11l17 -19v-15q-3 -3 -5 -11q1 -3 6.5 -16.5t5.5 -20.5v-3t-1 -8l15 -8zM472 839l-2 9l-7 7l-10 4q-21 -3 -18 -3h-19l-5 3
h-27q-2 0 -7 -1.5t-7 -1.5q-14 0 -23.5 0.5t-14.5 1.5q-3 -2 -6.5 -3.5l-8.5 -3.5l-8 -10l2 -15q11 -10 19.5 -17t14.5 -11l19 -34l5 -3l-1 -10q13 -20 33 -37q17 -2 29 9l4 12q0 7 -4 18.5t-4 17.5q0 10 4 19q2 2 7.5 7l13.5 12q15 11 19 20z" />
    <glyph glyph-name="Aacute" unicode="&#xc1;" horiz-adv-x="760" 
d="M760 24l-5 11l-13 8q-13 0 -26.5 5t-16.5 5q-5 6 -8 11t-5 9l-13 4l-3 12l-6 8q-1 12 -13 29q-9 1 -21 8l8 11v4l-9 25.5t-7 21.5q1 5 -1 15l-7 10v6q-4 12 -9 17l1 9l-2 6l-4 2q-4 11 -6.5 20t-4.5 14q16 -8 24 -7q6 -4 10 -6t6 -4l10.5 -17.5t6.5 -13.5l14 -10
q4 -1 8 -1.5t8 -1.5q14 5 21 13l6 20q-2 8 -3 13.5t-2 7.5q-8 14 -17 19l-4 1q1 5 -2 12l-8 -3l-3 10q-20 12 -33 12l-12 8q-20 -3 -36 7h-4l-10 14l-2 13q4 16 -7 32l-6 5q-1 5 -1.5 7l-0.5 2q0 3 -1.5 12t-3.5 24l-7 6l1 9l-12 60v5l3 4q0 8 3 11l26 20q19 1 49 24
q5 13 12 17l4 18l-2 12q-3 3 -6 6.5t-6 7.5q-8 2 -11.5 3.5l-3.5 1.5h-15l-12 -5l-13 -18q-20 -12 -57 -12l-4 2q-34 3 -51 -5l-4 -7l-9 2l-7 -7l-4 10q-5 2 -8 2.5l-3 0.5q-68 0 -81 -3q-23 6 -77 6l-8 3l-2 6q-7 6 -11.5 10.5l-7.5 7.5h-6l-4 3q-3 1 -5 1h-1q-5 0 -21 -3
l-5 -3l-12 -16t-6 -20q0 -6 3 -16l7 -10q12 -7 17 -13q13 -2 23.5 -4t18.5 -4q8 3 21 -1l21 -6l11 -8v-8l2 -4q-3 -3 -14 -60l-13 -20v-10l-9.5 -25.5l-7.5 -19.5q3 -8 -1 -17q-6 -5 -8 -10l1 -6l-5 -10l-1 -9l-2 -4l-13 -6q-48 -1 -86 -21q-47 -24 -47 -67q0 -11 1 -16
l16 -16q8 -1 12.5 -1.5l4.5 -0.5l3 0.5l9 1.5q15 15 15 17v5q8 18 14 24q21 14 38 12q4 -1 10 -3l-6.5 -16.5t-9.5 -28.5q-10 -31 -19 -43v-6l-4 -8v-3q-4 -11 -9 -20.5t-11 -17.5l-1 -10q-4 -5 -7.5 -10t-6.5 -10q-13 -7 -16 -19l-6 -5q-12 -2 -15 -5l-2 -8q-8 -8 -46 -27
q-34 -17 -44 -40l-1 -16l8.5 -13.5t5.5 -9.5q4 -1 7 -1q4 0 6 -1l5 1l4 -1q11 5 18 7.5t11 4.5l4 8q30 13 38 14q5 1 15 2t26 3l4 -2q31 -3 27 -3l4 -3h8h4h22l7 -2l4 -7l13 -1q4 -2 23 -2q23 0 57 7l15 11l4 7q-2 10 -2.5 15l-0.5 5l-6.5 5t-4.5 4q-54 9 -65 26l-1 4l-5 6
q-8 24 -10 27v11q0 32 11 48l-1 8l-9 11l7 6l1 5l-6 13l13 5l4 4l2 9l-2 10l-2 3q0 5 5 18l4 5l-1 9l7 -1l-1 -5h4q42 -29 54 -68q9 -29 9 -30l17 -7l9 2l11 9q19 76 71 93q10 -34 10 -54q0 -26 4 -41l-2 -19l5 -12q3 -22 -14 -44.5t-38 -32.5l-7 -1q-14 -13 -21.5 -19
t-8.5 -7q-15 -16 -13 -36q4 -13 17 -23q8 -4 15 -4q5 2 11 4t14 4l1 4q12 9 20 17l7 1l5 5l15 5l4 -2h3l5 2q58 3 120 -12l1 6q5 1 13 -1q15 -10 28 -8q19 -6 30 -9h6l8 3q14 -3 39 2q19 7 27 19q2 5 2.5 8.5t1.5 5.5zM449 313l-9 2q-25 -7 -43 -20l-4 -1l-15.5 -17.5
l-10.5 -12.5q-49 58 -79 61q-1 5 -1.5 7l-0.5 2v2q0 3 1 8q10 10 16 38q6 29 13 37v5q10 28 11 39q10 32 18 55t16 37l6 2l7 -7l37 -109l-4 -7l3 -11l17 -19v-15q-3 -3 -5 -11q1 -3 6.5 -16.5t5.5 -20.5v-3t-1 -8l15 -8zM482 834v9l-4 9l-15 9q-5 1 -15.5 -1t-14.5 -2l-4 -2
q-18 1 -23 4q-6 -2 -22 -2q-18 0 -21 3l-12.5 -2.5t-16.5 -4.5q-7 -4 -10.5 -12l-3.5 -8q0 -9 1 -12q11 -16 42 -26q9 -17 9 -28v-3t-1 -9l-3 -6q-7 -4 -14 -16q-1 -8 2.5 -14t10.5 -14l4 -2q5 1 8 1h6l14 7q30 36 46 89q8 5 13 11l12 3l8 8l2 6t2 5z" />
    <glyph glyph-name="Acircumflex" unicode="&#xc2;" horiz-adv-x="760" 
d="M760 24l-5 11l-13 8q-13 0 -26.5 5t-16.5 5q-5 6 -8 11t-5 9l-13 4l-3 12l-6 8q-1 12 -13 29q-9 1 -21 8l8 11v4l-9 25.5t-7 21.5q1 5 -1 15l-7 10v6q-4 12 -9 17l1 9l-2 6l-4 2q-4 11 -6.5 20t-4.5 14q16 -8 24 -7q6 -4 10 -6t6 -4l10.5 -17.5t6.5 -13.5l14 -10
q4 -1 8 -1.5t8 -1.5q14 5 21 13l6 20q-2 8 -3 13.5t-2 7.5q-8 14 -17 19l-4 1q1 5 -2 12l-8 -3l-3 10q-20 12 -33 12l-12 8q-20 -3 -36 7h-4l-10 14l-2 13q4 16 -7 32l-6 5q-1 5 -1.5 7l-0.5 2q0 3 -1.5 12t-3.5 24l-7 6l1 9l-12 60v5l3 4q0 8 3 11l26 20q19 1 49 24
q5 13 12 17l4 18l-2 12q-3 3 -6 6.5t-6 7.5q-8 2 -11.5 3.5l-3.5 1.5h-15l-12 -5l-13 -18q-20 -12 -57 -12l-4 2q-34 3 -51 -5l-4 -7l-9 2l-7 -7l-4 10q-5 2 -8 2.5l-3 0.5q-68 0 -81 -3q-23 6 -77 6l-8 3l-2 6q-7 6 -11.5 10.5l-7.5 7.5h-6l-4 3q-3 1 -5 1h-1q-5 0 -21 -3
l-5 -3l-12 -16t-6 -20q0 -6 3 -16l7 -10q12 -7 17 -13q13 -2 23.5 -4t18.5 -4q8 3 21 -1l21 -6l11 -8v-8l2 -4q-3 -3 -14 -60l-13 -20v-10l-9.5 -25.5l-7.5 -19.5q3 -8 -1 -17q-6 -5 -8 -10l1 -6l-5 -10l-1 -9l-2 -4l-13 -6q-48 -1 -86 -21q-47 -24 -47 -67q0 -11 1 -16
l16 -16q8 -1 12.5 -1.5l4.5 -0.5l3 0.5l9 1.5q15 15 15 17v5q8 18 14 24q21 14 38 12q4 -1 10 -3l-6.5 -16.5t-9.5 -28.5q-10 -31 -19 -43v-6l-4 -8v-3q-4 -11 -9 -20.5t-11 -17.5l-1 -10q-4 -5 -7.5 -10t-6.5 -10q-13 -7 -16 -19l-6 -5q-12 -2 -15 -5l-2 -8q-8 -8 -46 -27
q-34 -17 -44 -40l-1 -16l8.5 -13.5t5.5 -9.5q4 -1 7 -1q4 0 6 -1l5 1l4 -1q11 5 18 7.5t11 4.5l4 8q30 13 38 14q5 1 15 2t26 3l4 -2q31 -3 27 -3l4 -3h8h4h22l7 -2l4 -7l13 -1q4 -2 23 -2q23 0 57 7l15 11l4 7q-2 10 -2.5 15l-0.5 5l-6.5 5t-4.5 4q-54 9 -65 26l-1 4l-5 6
q-8 24 -10 27v11q0 32 11 48l-1 8l-9 11l7 6l1 5l-6 13l13 5l4 4l2 9l-2 10l-2 3q0 5 5 18l4 5l-1 9l7 -1l-1 -5h4q42 -29 54 -68q9 -29 9 -30l17 -7l9 2l11 9q19 76 71 93q10 -34 10 -54q0 -26 4 -41l-2 -19l5 -12q3 -22 -14 -44.5t-38 -32.5l-7 -1q-14 -13 -21.5 -19
t-8.5 -7q-15 -16 -13 -36q4 -13 17 -23q8 -4 15 -4q5 2 11 4t14 4l1 4q12 9 20 17l7 1l5 5l15 5l4 -2h3l5 2q58 3 120 -12l1 6q5 1 13 -1q15 -10 28 -8q19 -6 30 -9h6l8 3q14 -3 39 2q19 7 27 19q2 5 2.5 8.5t1.5 5.5zM449 313l-9 2q-25 -7 -43 -20l-4 -1l-15.5 -17.5
l-10.5 -12.5q-49 58 -79 61q-1 5 -1.5 7l-0.5 2v2q0 3 1 8q10 10 16 38q6 29 13 37v5q10 28 11 39q10 32 18 55t16 37l6 2l7 -7l37 -109l-4 -7l3 -11l17 -19v-15q-3 -3 -5 -11q1 -3 6.5 -16.5t5.5 -20.5v-3t-1 -8l15 -8zM538 739l-3 13q-6 9 -17 17v7q-4 3 -16 5l-3 4l-7 1
q-59 39 -64 41l-5 7q-25 11 -30 11q-11 0 -21 -10q-8 -8 -12 -11.5t-5 -4.5q-7 -4 -11.5 -7t-8.5 -5q-5 -4 -8 -5.5l-3 -1.5l-7 -7t-14 -13q-17 -15 -19 -15q-12 -11 -18 -24q-1 -5 -1 -7v-2q0 -14 8 -22l10.5 -1.5l3.5 -0.5h2q3 0 8 1l8 6l2 4h5q10 13 40 28q31 15 46 15
q7 0 45 -20q38 -19 43 -26q17 -5 23 -7l15 3l7 9l2 10z" />
    </font>
</defs>
</svg>
